<ttFont>
    <TTGlyph name="A" xMin="13" yMin="0" xMax="1407" yMax="1456">
      <contour>
        <pt x="199" y="0" on="1"/>
        <pt x="13" y="0" on="1"/>
        <pt x="732" y="1456" on="1"/>
        <pt x="917" y="1456" on="1"/>
        <pt x="1407" y="0" on="1"/>
        <pt x="1216" y="0" on="1"/>
        <pt x="1084" y="397" on="1"/>
        <pt x="386" y="397" on="1"/>
      </contour>
      <contour>
        <pt x="453" y="545" on="1"/>
        <pt x="1037" y="545" on="1"/>
        <pt x="851" y="1150" on="1"/>
        <pt x="844" y="1169" on="0"/>
        <pt x="830" y="1220" on="0"/>
        <pt x="824" y="1243" on="1"/>
        <pt x="816" y="1270" on="0"/>
        <pt x="809" y="1298" on="1"/>
        <pt x="797" y="1266" on="0"/>
        <pt x="784" y="1237" on="1"/>
        <pt x="774" y="1212" on="0"/>
        <pt x="752" y="1163" on="0"/>
        <pt x="745" y="1149" on="1"/>
      </contour>
    </TTGlyph>
    <TTGlyph name="AE" xMin="5" yMin="0" xMax="1990" yMax="1456">
      <contour>
        <pt x="1047" y="1308" on="1"/>
        <pt x="549" y="546" on="1"/>
        <pt x="1097" y="546" on="1"/>
        <pt x="1097" y="1308" on="1"/>
      </contour>
      <contour>
        <pt x="951" y="1456" on="1"/>
        <pt x="1990" y="1456" on="1"/>
        <pt x="1981" y="1308" on="1"/>
        <pt x="1262" y="1308" on="1"/>
        <pt x="1262" y="820" on="1"/>
        <pt x="1899" y="820" on="1"/>
        <pt x="1890" y="672" on="1"/>
        <pt x="1269" y="672" on="1"/>
        <pt x="1269" y="148" on="1"/>
        <pt x="1910" y="148" on="1"/>
        <pt x="1901" y="0" on="1"/>
        <pt x="1104" y="0" on="1"/>
        <pt x="1104" y="398" on="1"/>
        <pt x="458" y="398" on="1"/>
        <pt x="201" y="0" on="1"/>
        <pt x="5" y="0" on="1"/>
      </contour>
    </TTGlyph>
    <TTGlyph name="Aacute" xMin="13" yMin="0" xMax="1407" yMax="1922">
      <component glyphName="A" x="0" y="0" flags="0x1204"/>
      <component glyphName="acute" x="352" y="430" flags="0x1004"/>
    </TTGlyph>
    <TTGlyph name="Acircumflex" xMin="13" yMin="0" xMax="1407" yMax="1924">
      <component glyphName="A" x="0" y="0" flags="0x1204"/>
      <component glyphName="circumflex" x="404" y="430" flags="0x1004"/>
    </TTGlyph>
    <TTGlyph name="Adieresis" xMin="13" yMin="0" xMax="1407" yMax="1839">
      <component glyphName="A" x="0" y="0" flags="0x1204"/>
      <component glyphName="dieresis" x="376" y="430" flags="0x1004"/>
    </TTGlyph>
    <TTGlyph name="Agrave" xMin="13" yMin="0" xMax="1407" yMax="1922">
      <component glyphName="A" x="0" y="0" flags="0x1204"/>
      <component glyphName="grave" x="515" y="430" flags="0x1004"/>
    </TTGlyph>
    <TTGlyph name="Aring" xMin="13" yMin="0" xMax="1407" yMax="1960">
      <component glyphName="A" x="0" y="0" flags="0x1204"/>
      <component glyphName="ring" x="446" y="430" flags="0x1004"/>
    </TTGlyph>
    <TTGlyph name="Atilde" xMin="13" yMin="0" xMax="1407" yMax="1865">
      <component glyphName="A" x="0" y="0" flags="0x1204"/>
      <component glyphName="tilde" x="410" y="430" flags="0x1004"/>
    </TTGlyph>
    <TTGlyph name="B" xMin="202" yMin="0" xMax="1245" yMax="1456">
      <contour>
        <pt x="202" y="0" on="1"/>
        <pt x="317" y="1456" on="1"/>
        <pt x="607" y="1456" on="1"/>
        <pt x="688" y="1456" on="0"/>
        <pt x="837" y="1452" on="0"/>
        <pt x="906" y="1444" on="1"/>
        <pt x="981" y="1435" on="0"/>
        <pt x="1106" y="1379" on="0"/>
        <pt x="1193" y="1292" on="0"/>
        <pt x="1236" y="1175" on="0"/>
        <pt x="1231" y="1105" on="1"/>
        <pt x="1226" y="1045" on="0"/>
        <pt x="1179" y="937" on="0"/>
        <pt x="1102" y="850" on="0"/>
        <pt x="999" y="786" on="0"/>
        <pt x="940" y="769" on="1"/>
        <pt x="942" y="769" on="0"/>
        <pt x="946" y="768" on="0"/>
        <pt x="948" y="768" on="1"/>
        <pt x="1019" y="753" on="0"/>
        <pt x="1134" y="692" on="0"/>
        <pt x="1213" y="599" on="0"/>
        <pt x="1251" y="478" on="0"/>
        <pt x="1245" y="403" on="1"/>
        <pt x="1238" y="323" on="0"/>
        <pt x="1166" y="177" on="0"/>
        <pt x="1035" y="66" on="0"/>
        <pt x="849" y="0" on="0"/>
        <pt x="729" y="0" on="1"/>
      </contour>
      <contour>
        <pt x="439" y="828" on="1"/>
        <pt x="635" y="828" on="1"/>
        <pt x="708" y="828" on="0"/>
        <pt x="851" y="851" on="0"/>
        <pt x="966" y="907" on="0"/>
        <pt x="1042" y="1003" on="0"/>
        <pt x="1048" y="1077" on="1"/>
        <pt x="1054" y="1150" on="0"/>
        <pt x="1002" y="1241" on="0"/>
        <pt x="904" y="1291" on="0"/>
        <pt x="766" y="1308" on="0"/>
        <pt x="685" y="1308" on="1"/>
        <pt x="477" y="1308" on="1"/>
      </contour>
      <contour>
        <pt x="428" y="680" on="1"/>
        <pt x="386" y="148" on="1"/>
        <pt x="669" y="148" on="1"/>
        <pt x="848" y="148" on="0"/>
        <pt x="1053" y="274" on="0"/>
        <pt x="1063" y="406" on="1"/>
        <pt x="1069" y="485" on="0"/>
        <pt x="1022" y="591" on="0"/>
        <pt x="916" y="654" on="0"/>
        <pt x="759" y="680" on="0"/>
        <pt x="654" y="680" on="1"/>
      </contour>
    </TTGlyph>
    <TTGlyph name="C" xMin="164" yMin="-23" xMax="1359" yMax="1483">
      <contour>
        <pt x="1286" y="1219" on="1"/>
        <pt x="1142" y="1334" on="0"/>
        <pt x="938" y="1334" on="1"/>
        <pt x="846" y="1334" on="0"/>
        <pt x="690" y="1285" on="0"/>
        <pt x="562" y="1198" on="0"/>
        <pt x="464" y="1080" on="0"/>
        <pt x="394" y="942" on="0"/>
        <pt x="353" y="789" on="0"/>
        <pt x="347" y="712" on="1"/>
        <pt x="338" y="594" on="0"/>
        <pt x="383" y="381" on="0"/>
        <pt x="498" y="220" on="0"/>
        <pt x="687" y="125" on="0"/>
        <pt x="821" y="125" on="1"/>
        <pt x="944" y="125" on="0"/>
        <pt x="1166" y="196" on="0"/>
        <pt x="1254" y="268" on="1"/>
        <pt x="1301" y="127" on="1"/>
        <pt x="1202" y="52" on="0"/>
        <pt x="942" y="-23" on="0"/>
        <pt x="783" y="-23" on="1"/>
        <pt x="618" y="-23" on="0"/>
        <pt x="375" y="93" on="0"/>
        <pt x="219" y="294" on="0"/>
        <pt x="152" y="561" on="0"/>
        <pt x="164" y="713" on="1"/>
        <pt x="172" y="816" on="0"/>
        <pt x="230" y="1010" on="0"/>
        <pt x="327" y="1181" on="0"/>
        <pt x="460" y="1324" on="0"/>
        <pt x="625" y="1426" on="0"/>
        <pt x="820" y="1483" on="0"/>
        <pt x="931" y="1483" on="1"/>
        <pt x="1067" y="1483" on="0"/>
        <pt x="1275" y="1410" on="0"/>
        <pt x="1359" y="1329" on="1"/>
      </contour>
    </TTGlyph>
    <TTGlyph name="Ccedilla" xMin="164" yMin="-396" xMax="1359" yMax="1483">
      <component glyphName="C" x="0" y="0" flags="0x1204"/>
      <component glyphName="cedilla" x="439" y="0" flags="0x1004"/>
    </TTGlyph>
    <TTGlyph name="D" xMin="193" yMin="0" xMax="1487" yMax="1456">
      <contour>
        <pt x="308" y="1456" on="1"/>
        <pt x="623" y="1456" on="1"/>
        <pt x="753" y="1456" on="0"/>
        <pt x="988" y="1426" on="0"/>
        <pt x="1188" y="1358" on="0"/>
        <pt x="1346" y="1247" on="0"/>
        <pt x="1451" y="1084" on="0"/>
        <pt x="1498" y="865" on="0"/>
        <pt x="1487" y="724" on="1"/>
        <pt x="1474" y="558" on="0"/>
        <pt x="1342" y="291" on="0"/>
        <pt x="1116" y="102" on="0"/>
        <pt x="803" y="0" on="0"/>
        <pt x="610" y="0" on="1"/>
        <pt x="193" y="0" on="1"/>
      </contour>
      <contour>
        <pt x="377" y="148" on="1"/>
        <pt x="638" y="148" on="1"/>
        <pt x="797" y="148" on="0"/>
        <pt x="1037" y="233" on="0"/>
        <pt x="1203" y="385" on="0"/>
        <pt x="1295" y="596" on="0"/>
        <pt x="1305" y="721" on="1"/>
        <pt x="1318" y="885" on="0"/>
        <pt x="1243" y="1110" on="0"/>
        <pt x="1073" y="1248" on="0"/>
        <pt x="809" y="1308" on="0"/>
        <pt x="632" y="1308" on="1"/>
        <pt x="468" y="1308" on="1"/>
      </contour>
    </TTGlyph>
    <TTGlyph name="E" xMin="205" yMin="0" xMax="1187" yMax="1456">
      <contour>
        <pt x="1102" y="0" on="1"/>
        <pt x="205" y="0" on="1"/>
        <pt x="320" y="1456" on="1"/>
        <pt x="1187" y="1456" on="1"/>
        <pt x="1175" y="1308" on="1"/>
        <pt x="480" y="1308" on="1"/>
        <pt x="442" y="820" on="1"/>
        <pt x="1099" y="820" on="1"/>
        <pt x="1087" y="672" on="1"/>
        <pt x="430" y="672" on="1"/>
        <pt x="389" y="148" on="1"/>
        <pt x="1114" y="148" on="1"/>
      </contour>
    </TTGlyph>
    <TTGlyph name="Eacute" xMin="205" yMin="0" xMax="1187" yMax="1922">
      <component glyphName="E" x="0" y="0" flags="0x1204"/>
      <component glyphName="acute" x="249" y="430" flags="0x1004"/>
    </TTGlyph>
    <TTGlyph name="Ecircumflex" xMin="205" yMin="0" xMax="1187" yMax="1924">
      <component glyphName="E" x="0" y="0" flags="0x1204"/>
      <component glyphName="circumflex" x="301" y="430" flags="0x1004"/>
    </TTGlyph>
    <TTGlyph name="Edieresis" xMin="205" yMin="0" xMax="1187" yMax="1839">
      <component glyphName="E" x="0" y="0" flags="0x1204"/>
      <component glyphName="dieresis" x="273" y="430" flags="0x1004"/>
    </TTGlyph>
    <TTGlyph name="Egrave" xMin="205" yMin="0" xMax="1187" yMax="1922">
      <component glyphName="E" x="0" y="0" flags="0x1204"/>
      <component glyphName="grave" x="411" y="430" flags="0x1004"/>
    </TTGlyph>
    <TTGlyph name="Eth" xMin="52" yMin="0" xMax="1487" yMax="1456">
      <contour>
        <pt x="245" y="658" on="1"/>
        <pt x="52" y="658" on="1"/>
        <pt x="62" y="795" on="1"/>
        <pt x="256" y="795" on="1"/>
        <pt x="308" y="1456" on="1"/>
        <pt x="623" y="1456" on="1"/>
        <pt x="753" y="1456" on="0"/>
        <pt x="988" y="1426" on="0"/>
        <pt x="1188" y="1358" on="0"/>
        <pt x="1346" y="1247" on="0"/>
        <pt x="1452" y="1084" on="0"/>
        <pt x="1498" y="865" on="0"/>
        <pt x="1487" y="724" on="1"/>
        <pt x="1474" y="558" on="0"/>
        <pt x="1342" y="291" on="0"/>
        <pt x="1116" y="102" on="0"/>
        <pt x="803" y="0" on="0"/>
        <pt x="610" y="0" on="1"/>
        <pt x="193" y="0" on="1"/>
      </contour>
      <contour>
        <pt x="417" y="658" on="1"/>
        <pt x="377" y="148" on="1"/>
        <pt x="638" y="148" on="1"/>
        <pt x="797" y="148" on="0"/>
        <pt x="1038" y="233" on="0"/>
        <pt x="1204" y="385" on="0"/>
        <pt x="1295" y="596" on="0"/>
        <pt x="1305" y="721" on="1"/>
        <pt x="1318" y="885" on="0"/>
        <pt x="1244" y="1110" on="0"/>
        <pt x="1073" y="1248" on="0"/>
        <pt x="809" y="1308" on="0"/>
        <pt x="632" y="1308" on="1"/>
        <pt x="468" y="1308" on="1"/>
        <pt x="428" y="795" on="1"/>
        <pt x="633" y="795" on="1"/>
        <pt x="623" y="658" on="1"/>
      </contour>
    </TTGlyph>
    <TTGlyph name="Euro" xMin="119" yMin="-21" xMax="1211" yMax="1448">
      <contour>
        <pt x="150" y="654" on="1"/>
        <pt x="252" y="654" on="1"/>
        <pt x="252" y="678" on="0"/>
        <pt x="256" y="739" on="0"/>
        <pt x="261" y="784" on="1"/>
        <pt x="137" y="784" on="1"/>
        <pt x="170" y="922" on="1"/>
        <pt x="291" y="922" on="1"/>
        <pt x="321" y="1037" on="0"/>
        <pt x="429" y="1230" on="0"/>
        <pt x="582" y="1370" on="0"/>
        <pt x="778" y="1448" on="0"/>
        <pt x="897" y="1448" on="1"/>
        <pt x="997" y="1448" on="0"/>
        <pt x="1153" y="1390" on="0"/>
        <pt x="1211" y="1330" on="1"/>
        <pt x="1160" y="1141" on="1"/>
        <pt x="1113" y="1222" on="0"/>
        <pt x="967" y="1303" on="0"/>
        <pt x="879" y="1303" on="1"/>
        <pt x="798" y="1303" on="0"/>
        <pt x="667" y="1243" on="0"/>
        <pt x="565" y="1139" on="0"/>
        <pt x="491" y="1000" on="0"/>
        <pt x="468" y="922" on="1"/>
        <pt x="1060" y="922" on="1"/>
        <pt x="1029" y="784" on="1"/>
        <pt x="439" y="784" on="1"/>
        <pt x="433" y="750" on="0"/>
        <pt x="431" y="685" on="0"/>
        <pt x="430" y="656" on="1"/>
        <pt x="430" y="654" on="1"/>
        <pt x="1005" y="654" on="1"/>
        <pt x="975" y="516" on="1"/>
        <pt x="433" y="516" on="1"/>
        <pt x="438" y="429" on="0"/>
        <pt x="481" y="286" on="0"/>
        <pt x="564" y="182" on="0"/>
        <pt x="689" y="125" on="0"/>
        <pt x="777" y="125" on="1"/>
        <pt x="852" y="125" on="0"/>
        <pt x="1016" y="187" on="0"/>
        <pt x="1104" y="253" on="1"/>
        <pt x="1089" y="75" on="1"/>
        <pt x="1010" y="24" on="0"/>
        <pt x="841" y="-21" on="0"/>
        <pt x="750" y="-21" on="1"/>
        <pt x="627" y="-21" on="0"/>
        <pt x="446" y="57" on="0"/>
        <pt x="324" y="198" on="0"/>
        <pt x="260" y="396" on="0"/>
        <pt x="254" y="516" on="1"/>
        <pt x="119" y="516" on="1"/>
      </contour>
    </TTGlyph>
    <TTGlyph name="F" xMin="197" yMin="0" xMax="1155" yMax="1456">
      <contour>
        <pt x="369" y="0" on="1"/>
        <pt x="197" y="0" on="1"/>
        <pt x="312" y="1456" on="1"/>
        <pt x="1155" y="1456" on="1"/>
        <pt x="1143" y="1308" on="1"/>
        <pt x="472" y="1308" on="1"/>
        <pt x="433" y="815" on="1"/>
        <pt x="1070" y="815" on="1"/>
        <pt x="1058" y="667" on="1"/>
        <pt x="421" y="667" on="1"/>
      </contour>
    </TTGlyph>
    <TTGlyph name="G" xMin="171" yMin="-23" xMax="1429" yMax="1483">
      <contour>
        <pt x="1352" y="1196" on="1"/>
        <pt x="1318" y="1232" on="0"/>
        <pt x="1231" y="1284" on="0"/>
        <pt x="1130" y="1318" on="0"/>
        <pt x="1019" y="1334" on="0"/>
        <pt x="961" y="1334" on="1"/>
        <pt x="822" y="1334" on="0"/>
        <pt x="602" y="1230" on="0"/>
        <pt x="448" y="1057" on="0"/>
        <pt x="359" y="834" on="0"/>
        <pt x="350" y="714" on="1"/>
        <pt x="340" y="583" on="0"/>
        <pt x="392" y="366" on="0"/>
        <pt x="522" y="211" on="0"/>
        <pt x="728" y="125" on="0"/>
        <pt x="872" y="125" on="1"/>
        <pt x="957" y="125" on="0"/>
        <pt x="1120" y="153" on="0"/>
        <pt x="1194" y="182" on="1"/>
        <pt x="1228" y="608" on="1"/>
        <pt x="867" y="608" on="1"/>
        <pt x="878" y="757" on="1"/>
        <pt x="1411" y="757" on="1"/>
        <pt x="1358" y="81" on="1"/>
        <pt x="1233" y="24" on="0"/>
        <pt x="976" y="-23" on="0"/>
        <pt x="847" y="-23" on="1"/>
        <pt x="667" y="-23" on="0"/>
        <pt x="401" y="81" on="0"/>
        <pt x="231" y="271" on="0"/>
        <pt x="158" y="538" on="0"/>
        <pt x="171" y="701" on="1"/>
        <pt x="179" y="808" on="0"/>
        <pt x="240" y="1007" on="0"/>
        <pt x="341" y="1181" on="0"/>
        <pt x="480" y="1324" on="0"/>
        <pt x="653" y="1427" on="0"/>
        <pt x="858" y="1483" on="0"/>
        <pt x="976" y="1483" on="1"/>
        <pt x="1048" y="1483" on="0"/>
        <pt x="1183" y="1461" on="0"/>
        <pt x="1299" y="1416" on="0"/>
        <pt x="1395" y="1347" on="0"/>
        <pt x="1429" y="1301" on="1"/>
      </contour>
    </TTGlyph>
    <TTGlyph name="H" xMin="202" yMin="0" xMax="1462" yMax="1456">
      <contour>
        <pt x="374" y="0" on="1"/>
        <pt x="202" y="0" on="1"/>
        <pt x="317" y="1456" on="1"/>
        <pt x="489" y="1456" on="1"/>
        <pt x="439" y="822" on="1"/>
        <pt x="1241" y="822" on="1"/>
        <pt x="1291" y="1456" on="1"/>
        <pt x="1462" y="1456" on="1"/>
        <pt x="1347" y="0" on="1"/>
        <pt x="1176" y="0" on="1"/>
        <pt x="1229" y="674" on="1"/>
        <pt x="427" y="674" on="1"/>
      </contour>
    </TTGlyph>
    <TTGlyph name="I" xMin="210" yMin="0" xMax="497" yMax="1456">
      <contour>
        <pt x="382" y="0" on="1"/>
        <pt x="210" y="0" on="1"/>
        <pt x="325" y="1456" on="1"/>
        <pt x="497" y="1456" on="1"/>
      </contour>
    </TTGlyph>
    <TTGlyph name="Iacute" xMin="204" yMin="0" xMax="667" yMax="1922">
      <component glyphName="I" x="0" y="0" flags="0x1204"/>
      <component glyphName="acute" x="-63" y="430" flags="0x1004"/>
    </TTGlyph>
    <TTGlyph name="Icircumflex" xMin="116" yMin="0" xMax="730" yMax="1924">
      <component glyphName="I" x="0" y="0" flags="0x1204"/>
      <component glyphName="circumflex" x="-11" y="430" flags="0x1004"/>
    </TTGlyph>
    <TTGlyph name="Idieresis" xMin="181" yMin="0" xMax="690" yMax="1839">
      <component glyphName="I" x="0" y="0" flags="0x1204"/>
      <component glyphName="dieresis" x="-39" y="430" flags="0x1004"/>
    </TTGlyph>
    <TTGlyph name="Igrave" xMin="210" yMin="0" xMax="652" yMax="1922">
      <component glyphName="I" x="0" y="0" flags="0x1204"/>
      <component glyphName="grave" x="98" y="430" flags="0x1004"/>
    </TTGlyph>
    <TTGlyph name="J" xMin="77" yMin="-23" xMax="869" yMax="1456">
      <contour>
        <pt x="137" y="197" on="1"/>
        <pt x="178" y="163" on="0"/>
        <pt x="275" y="125" on="0"/>
        <pt x="335" y="125" on="1"/>
        <pt x="401" y="125" on="0"/>
        <pt x="503" y="180" on="0"/>
        <pt x="574" y="278" on="0"/>
        <pt x="615" y="410" on="0"/>
        <pt x="621" y="488" on="1"/>
        <pt x="697" y="1456" on="1"/>
        <pt x="869" y="1456" on="1"/>
        <pt x="794" y="499" on="1"/>
        <pt x="784" y="372" on="0"/>
        <pt x="709" y="177" on="0"/>
        <pt x="586" y="45" on="0"/>
        <pt x="421" y="-23" on="0"/>
        <pt x="319" y="-23" on="1"/>
        <pt x="241" y="-23" on="0"/>
        <pt x="122" y="32" on="0"/>
        <pt x="77" y="81" on="1"/>
      </contour>
    </TTGlyph>
    <TTGlyph name="K" xMin="210" yMin="0" xMax="1357" yMax="1456">
      <contour>
        <pt x="382" y="0" on="1"/>
        <pt x="210" y="0" on="1"/>
        <pt x="325" y="1456" on="1"/>
        <pt x="497" y="1456" on="1"/>
        <pt x="445" y="796" on="1"/>
        <pt x="540" y="887" on="1"/>
        <pt x="1141" y="1456" on="1"/>
        <pt x="1357" y="1456" on="1"/>
        <pt x="614" y="778" on="1"/>
        <pt x="1296" y="0" on="1"/>
        <pt x="1060" y="0" on="1"/>
        <pt x="516" y="634" on="1"/>
        <pt x="439" y="725" on="1"/>
      </contour>
    </TTGlyph>
    <TTGlyph name="L" xMin="202" yMin="0" xMax="1083" yMax="1456">
      <contour>
        <pt x="1073" y="0" on="1"/>
        <pt x="202" y="0" on="1"/>
        <pt x="317" y="1456" on="1"/>
        <pt x="489" y="1456" on="1"/>
        <pt x="386" y="148" on="1"/>
        <pt x="1083" y="148" on="1"/>
      </contour>
    </TTGlyph>
    <TTGlyph name="Lslash" xMin="53" yMin="0" xMax="1154" yMax="1456">
      <component glyphName="L" x="0" y="0" flags="0x1204"/>
      <component glyphName="endash" x="21" y="0" flags="0x1004"/>
    </TTGlyph>
    <TTGlyph name="M" xMin="200" yMin="0" xMax="1911" yMax="1456">
      <contour>
        <pt x="370" y="0" on="1"/>
        <pt x="200" y="0" on="1"/>
        <pt x="315" y="1456" on="1"/>
        <pt x="553" y="1456" on="1"/>
        <pt x="946" y="416" on="1"/>
        <pt x="1014" y="212" on="1"/>
        <pt x="1016" y="212" on="1"/>
        <pt x="1117" y="419" on="1"/>
        <pt x="1677" y="1456" on="1"/>
        <pt x="1911" y="1456" on="1"/>
        <pt x="1796" y="0" on="1"/>
        <pt x="1628" y="0" on="1"/>
        <pt x="1702" y="934" on="1"/>
        <pt x="1726" y="1251" on="1"/>
        <pt x="1666" y="1130" on="1"/>
        <pt x="1060" y="0" on="1"/>
        <pt x="934" y="0" on="1"/>
        <pt x="517" y="1108" on="1"/>
        <pt x="470" y="1268" on="1"/>
        <pt x="443" y="931" on="1"/>
      </contour>
    </TTGlyph>
    <TTGlyph name="N" xMin="193" yMin="0" xMax="1510" yMax="1456">
      <contour>
        <pt x="193" y="0" on="1"/>
        <pt x="308" y="1456" on="1"/>
        <pt x="514" y="1456" on="1"/>
        <pt x="1173" y="342" on="1"/>
        <pt x="1241" y="215" on="1"/>
        <pt x="1259" y="448" on="1"/>
        <pt x="1339" y="1456" on="1"/>
        <pt x="1510" y="1456" on="1"/>
        <pt x="1395" y="0" on="1"/>
        <pt x="1187" y="0" on="1"/>
        <pt x="525" y="1113" on="1"/>
        <pt x="462" y="1237" on="1"/>
        <pt x="447" y="1047" on="1"/>
        <pt x="365" y="0" on="1"/>
      </contour>
    </TTGlyph>
    <TTGlyph name="Ntilde" xMin="193" yMin="0" xMax="1510" yMax="1865">
      <component glyphName="N" x="0" y="0" flags="0x1204"/>
      <component glyphName="tilde" x="495" y="430" flags="0x1004"/>
    </TTGlyph>
    <TTGlyph name="O" xMin="172" yMin="-23" xMax="1601" yMax="1483">
      <contour>
        <pt x="1601" y="726" on="1"/>
        <pt x="1588" y="561" on="0"/>
        <pt x="1470" y="286" on="0"/>
        <pt x="1270" y="87" on="0"/>
        <pt x="995" y="-23" on="0"/>
        <pt x="827" y="-23" on="1"/>
        <pt x="660" y="-23" on="0"/>
        <pt x="404" y="83" on="0"/>
        <pt x="234" y="279" on="0"/>
        <pt x="158" y="557" on="0"/>
        <pt x="172" y="729" on="1"/>
        <pt x="184" y="893" on="0"/>
        <pt x="304" y="1169" on="0"/>
        <pt x="506" y="1370" on="0"/>
        <pt x="783" y="1483" on="0"/>
        <pt x="954" y="1483" on="1"/>
        <pt x="1117" y="1483" on="0"/>
        <pt x="1370" y="1375" on="0"/>
        <pt x="1539" y="1177" on="0"/>
        <pt x="1615" y="898" on="0"/>
      </contour>
      <contour>
        <pt x="355" y="725" on="1"/>
        <pt x="345" y="599" on="0"/>
        <pt x="395" y="380" on="0"/>
        <pt x="515" y="218" on="0"/>
        <pt x="706" y="125" on="0"/>
        <pt x="837" y="125" on="1"/>
        <pt x="969" y="125" on="0"/>
        <pt x="1175" y="218" on="0"/>
        <pt x="1320" y="381" on="0"/>
        <pt x="1404" y="604" on="0"/>
        <pt x="1414" y="734" on="1"/>
        <pt x="1424" y="861" on="0"/>
        <pt x="1376" y="1081" on="0"/>
        <pt x="1257" y="1243" on="0"/>
        <pt x="1067" y="1335" on="0"/>
        <pt x="935" y="1335" on="1"/>
        <pt x="804" y="1335" on="0"/>
        <pt x="598" y="1235" on="0"/>
        <pt x="450" y="1067" on="0"/>
        <pt x="365" y="846" on="0"/>
      </contour>
    </TTGlyph>
    <TTGlyph name="OE" xMin="172" yMin="-23" xMax="2069" yMax="1483">
      <contour>
        <pt x="1984" y="0" on="1"/>
        <pt x="1151" y="0" on="1"/>
        <pt x="1159" y="105" on="1"/>
        <pt x="1085" y="43" on="0"/>
        <pt x="918" y="-23" on="0"/>
        <pt x="827" y="-23" on="1"/>
        <pt x="660" y="-23" on="0"/>
        <pt x="404" y="83" on="0"/>
        <pt x="234" y="279" on="0"/>
        <pt x="158" y="557" on="0"/>
        <pt x="172" y="729" on="1"/>
        <pt x="184" y="893" on="0"/>
        <pt x="304" y="1169" on="0"/>
        <pt x="506" y="1370" on="0"/>
        <pt x="783" y="1483" on="0"/>
        <pt x="954" y="1483" on="1"/>
        <pt x="1042" y="1483" on="0"/>
        <pt x="1195" y="1430" on="0"/>
        <pt x="1260" y="1381" on="1"/>
        <pt x="1266" y="1456" on="1"/>
        <pt x="2069" y="1456" on="1"/>
        <pt x="2057" y="1308" on="1"/>
        <pt x="1426" y="1308" on="1"/>
        <pt x="1388" y="820" on="1"/>
        <pt x="1981" y="820" on="1"/>
        <pt x="1969" y="672" on="1"/>
        <pt x="1376" y="672" on="1"/>
        <pt x="1335" y="148" on="1"/>
        <pt x="1996" y="148" on="1"/>
      </contour>
      <contour>
        <pt x="837" y="125" on="1"/>
        <pt x="937" y="125" on="0"/>
        <pt x="1104" y="199" on="0"/>
        <pt x="1172" y="265" on="1"/>
        <pt x="1247" y="1219" on="1"/>
        <pt x="1189" y="1274" on="0"/>
        <pt x="1035" y="1335" on="0"/>
        <pt x="935" y="1335" on="1"/>
        <pt x="804" y="1335" on="0"/>
        <pt x="598" y="1235" on="0"/>
        <pt x="450" y="1067" on="0"/>
        <pt x="365" y="846" on="0"/>
        <pt x="355" y="725" on="1"/>
        <pt x="345" y="599" on="0"/>
        <pt x="395" y="380" on="0"/>
        <pt x="515" y="218" on="0"/>
        <pt x="706" y="125" on="0"/>
      </contour>
    </TTGlyph>
    <TTGlyph name="Oacute" xMin="172" yMin="-23" xMax="1601" yMax="1922">
      <component glyphName="O" x="0" y="0" flags="0x1204"/>
      <component glyphName="acute" x="471" y="430" flags="0x1004"/>
    </TTGlyph>
    <TTGlyph name="Ocircumflex" xMin="172" yMin="-23" xMax="1601" yMax="1924">
      <component glyphName="O" x="0" y="0" flags="0x1204"/>
      <component glyphName="circumflex" x="523" y="430" flags="0x1004"/>
    </TTGlyph>
    <TTGlyph name="Odieresis" xMin="172" yMin="-23" xMax="1601" yMax="1839">
      <component glyphName="O" x="0" y="0" flags="0x1204"/>
      <component glyphName="dieresis" x="495" y="430" flags="0x1004"/>
    </TTGlyph>
    <TTGlyph name="Ograve" xMin="172" yMin="-23" xMax="1601" yMax="1922">
      <component glyphName="O" x="0" y="0" flags="0x1204"/>
      <component glyphName="grave" x="634" y="430" flags="0x1004"/>
    </TTGlyph>
    <TTGlyph name="Omega" xMin="104" yMin="0" xMax="1542" yMax="1449">
      <contour>
        <pt x="104" y="138" on="1"/>
        <pt x="446" y="137" on="1"/>
        <pt x="379" y="189" on="0"/>
        <pt x="272" y="324" on="0"/>
        <pt x="199" y="485" on="0"/>
        <pt x="167" y="672" on="0"/>
        <pt x="175" y="776" on="1"/>
        <pt x="187" y="930" on="0"/>
        <pt x="312" y="1178" on="0"/>
        <pt x="512" y="1354" on="0"/>
        <pt x="774" y="1449" on="0"/>
        <pt x="923" y="1449" on="1"/>
        <pt x="1078" y="1449" on="0"/>
        <pt x="1319" y="1345" on="0"/>
        <pt x="1479" y="1164" on="0"/>
        <pt x="1553" y="916" on="0"/>
        <pt x="1542" y="772" on="1"/>
        <pt x="1533" y="665" on="0"/>
        <pt x="1464" y="478" on="0"/>
        <pt x="1361" y="318" on="0"/>
        <pt x="1233" y="187" on="0"/>
        <pt x="1166" y="137" on="1"/>
        <pt x="1494" y="138" on="1"/>
        <pt x="1474" y="0" on="1"/>
        <pt x="953" y="0" on="1"/>
        <pt x="959" y="121" on="1"/>
        <pt x="1039" y="172" on="0"/>
        <pt x="1179" y="307" on="0"/>
        <pt x="1287" y="468" on="0"/>
        <pt x="1355" y="653" on="0"/>
        <pt x="1362" y="754" on="1"/>
        <pt x="1371" y="865" on="0"/>
        <pt x="1324" y="1066" on="0"/>
        <pt x="1211" y="1219" on="0"/>
        <pt x="1031" y="1309" on="0"/>
        <pt x="907" y="1309" on="1"/>
        <pt x="794" y="1309" on="0"/>
        <pt x="600" y="1229" on="0"/>
        <pt x="453" y="1084" on="0"/>
        <pt x="362" y="881" on="0"/>
        <pt x="353" y="759" on="1"/>
        <pt x="345" y="658" on="0"/>
        <pt x="381" y="471" on="0"/>
        <pt x="459" y="308" on="0"/>
        <pt x="578" y="172" on="0"/>
        <pt x="652" y="121" on="1"/>
        <pt x="645" y="0" on="1"/>
        <pt x="104" y="0" on="1"/>
      </contour>
    </TTGlyph>
    <TTGlyph name="Oslash" xMin="172" yMin="-117" xMax="1601" yMax="1549">
      <component glyphName="O" x="0" y="0" flags="0x1204"/>
      <component glyphName="slash" x="497" y="98" flags="0x1004"/>
    </TTGlyph>
    <TTGlyph name="Otilde" xMin="172" yMin="-23" xMax="1601" yMax="1865">
      <component glyphName="O" x="0" y="0" flags="0x1204"/>
      <component glyphName="tilde" x="529" y="430" flags="0x1004"/>
    </TTGlyph>
    <TTGlyph name="P" xMin="203" yMin="0" xMax="1280" yMax="1456">
      <contour>
        <pt x="375" y="0" on="1"/>
        <pt x="203" y="0" on="1"/>
        <pt x="318" y="1456" on="1"/>
        <pt x="659" y="1456" on="1"/>
        <pt x="744" y="1456" on="0"/>
        <pt x="905" y="1441" on="0"/>
        <pt x="1048" y="1404" on="0"/>
        <pt x="1167" y="1341" on="0"/>
        <pt x="1248" y="1244" on="0"/>
        <pt x="1287" y="1110" on="0"/>
        <pt x="1280" y="1020" on="1"/>
        <pt x="1271" y="906" on="0"/>
        <pt x="1159" y="742" on="0"/>
        <pt x="984" y="637" on="0"/>
        <pt x="762" y="587" on="0"/>
        <pt x="643" y="587" on="1"/>
        <pt x="421" y="587" on="1"/>
      </contour>
      <contour>
        <pt x="478" y="1308" on="1"/>
        <pt x="433" y="736" on="1"/>
        <pt x="694" y="736" on="1"/>
        <pt x="776" y="736" on="0"/>
        <pt x="919" y="769" on="0"/>
        <pt x="1025" y="838" on="0"/>
        <pt x="1090" y="944" on="0"/>
        <pt x="1096" y="1018" on="1"/>
        <pt x="1103" y="1105" on="0"/>
        <pt x="1049" y="1218" on="0"/>
        <pt x="941" y="1283" on="0"/>
        <pt x="786" y="1308" on="0"/>
        <pt x="691" y="1308" on="1"/>
      </contour>
    </TTGlyph>
    <TTGlyph name="Q" xMin="178" yMin="-192" xMax="1601" yMax="1483">
      <contour>
        <pt x="355" y="724" on="1"/>
        <pt x="345" y="599" on="0"/>
        <pt x="395" y="381" on="0"/>
        <pt x="515" y="219" on="0"/>
        <pt x="706" y="125" on="0"/>
        <pt x="837" y="125" on="1"/>
        <pt x="969" y="125" on="0"/>
        <pt x="1174" y="218" on="0"/>
        <pt x="1319" y="381" on="0"/>
        <pt x="1402" y="604" on="0"/>
        <pt x="1413" y="734" on="1"/>
        <pt x="1423" y="861" on="0"/>
        <pt x="1375" y="1080" on="0"/>
        <pt x="1257" y="1242" on="0"/>
        <pt x="1067" y="1334" on="0"/>
        <pt x="935" y="1334" on="1"/>
        <pt x="804" y="1334" on="0"/>
        <pt x="597" y="1234" on="0"/>
        <pt x="450" y="1066" on="0"/>
        <pt x="364" y="845" on="0"/>
      </contour>
      <contour>
        <pt x="1587" y="-182" on="1"/>
        <pt x="1544" y="-187" on="0"/>
        <pt x="1456" y="-192" on="0"/>
        <pt x="1418" y="-192" on="1"/>
        <pt x="1278" y="-192" on="0"/>
        <pt x="1090" y="-164" on="0"/>
        <pt x="960" y="-116" on="0"/>
        <pt x="870" y="-53" on="0"/>
        <pt x="827" y="-18" on="1"/>
        <pt x="666" y="-18" on="0"/>
        <pt x="413" y="90" on="0"/>
        <pt x="243" y="290" on="0"/>
        <pt x="164" y="573" on="0"/>
        <pt x="178" y="747" on="1"/>
        <pt x="190" y="909" on="0"/>
        <pt x="312" y="1180" on="0"/>
        <pt x="514" y="1375" on="0"/>
        <pt x="789" y="1483" on="0"/>
        <pt x="954" y="1483" on="1"/>
        <pt x="1117" y="1483" on="0"/>
        <pt x="1370" y="1375" on="0"/>
        <pt x="1538" y="1178" on="0"/>
        <pt x="1614" y="904" on="0"/>
        <pt x="1601" y="738" on="1"/>
        <pt x="1591" y="606" on="0"/>
        <pt x="1506" y="362" on="0"/>
        <pt x="1360" y="165" on="0"/>
        <pt x="1155" y="28" on="0"/>
        <pt x="1024" y="2" on="1"/>
        <pt x="1063" y="-14" on="0"/>
        <pt x="1169" y="-33" on="0"/>
        <pt x="1281" y="-42" on="0"/>
        <pt x="1387" y="-44" on="0"/>
        <pt x="1425" y="-44" on="1"/>
        <pt x="1462" y="-44" on="0"/>
        <pt x="1553" y="-35" on="0"/>
        <pt x="1596" y="-28" on="1"/>
      </contour>
    </TTGlyph>
    <TTGlyph name="R" xMin="205" yMin="0" xMax="1287" yMax="1456">
      <contour>
        <pt x="428" y="652" on="1"/>
        <pt x="377" y="0" on="1"/>
        <pt x="205" y="0" on="1"/>
        <pt x="320" y="1456" on="1"/>
        <pt x="676" y="1456" on="1"/>
        <pt x="735" y="1456" on="0"/>
        <pt x="875" y="1452" on="0"/>
        <pt x="1016" y="1430" on="0"/>
        <pt x="1144" y="1383" on="0"/>
        <pt x="1240" y="1299" on="0"/>
        <pt x="1291" y="1168" on="0"/>
        <pt x="1284" y="1074" on="1"/>
        <pt x="1278" y="1005" on="0"/>
        <pt x="1225" y="889" on="0"/>
        <pt x="1136" y="797" on="0"/>
        <pt x="1016" y="733" on="0"/>
        <pt x="944" y="715" on="1"/>
        <pt x="945" y="715" on="1"/>
        <pt x="1005" y="695" on="0"/>
        <pt x="1078" y="617" on="0"/>
        <pt x="1132" y="494" on="0"/>
        <pt x="1181" y="325" on="0"/>
        <pt x="1217" y="214" on="1"/>
        <pt x="1287" y="0" on="1"/>
        <pt x="1099" y="0" on="1"/>
        <pt x="979" y="419" on="1"/>
        <pt x="959" y="487" on="0"/>
        <pt x="917" y="577" on="0"/>
        <pt x="855" y="630" on="0"/>
        <pt x="765" y="652" on="0"/>
        <pt x="698" y="652" on="1"/>
      </contour>
      <contour>
        <pt x="440" y="799" on="1"/>
        <pt x="706" y="799" on="1"/>
        <pt x="773" y="799" on="0"/>
        <pt x="909" y="823" on="0"/>
        <pt x="1020" y="881" on="0"/>
        <pt x="1094" y="981" on="0"/>
        <pt x="1100" y="1058" on="1"/>
        <pt x="1106" y="1133" on="0"/>
        <pt x="1059" y="1230" on="0"/>
        <pt x="965" y="1286" on="0"/>
        <pt x="835" y="1308" on="0"/>
        <pt x="757" y="1308" on="1"/>
        <pt x="480" y="1308" on="1"/>
      </contour>
    </TTGlyph>
    <TTGlyph name="S" xMin="150" yMin="-23" xMax="1186" yMax="1483">
      <contour>
        <pt x="237" y="271" on="1"/>
        <pt x="267" y="231" on="0"/>
        <pt x="351" y="176" on="0"/>
        <pt x="447" y="141" on="0"/>
        <pt x="551" y="125" on="0"/>
        <pt x="601" y="125" on="1"/>
        <pt x="680" y="125" on="0"/>
        <pt x="815" y="156" on="0"/>
        <pt x="914" y="217" on="0"/>
        <pt x="974" y="306" on="0"/>
        <pt x="979" y="365" on="1"/>
        <pt x="984" y="431" on="0"/>
        <pt x="922" y="524" on="0"/>
        <pt x="814" y="596" on="0"/>
        <pt x="673" y="653" on="0"/>
        <pt x="526" y="713" on="0"/>
        <pt x="386" y="782" on="0"/>
        <pt x="280" y="877" on="0"/>
        <pt x="221" y="1006" on="0"/>
        <pt x="228" y="1095" on="1"/>
        <pt x="235" y="1191" on="0"/>
        <pt x="336" y="1336" on="0"/>
        <pt x="492" y="1433" on="0"/>
        <pt x="684" y="1483" on="0"/>
        <pt x="783" y="1483" on="1"/>
        <pt x="840" y="1483" on="0"/>
        <pt x="959" y="1469" on="0"/>
        <pt x="1067" y="1433" on="0"/>
        <pt x="1157" y="1374" on="0"/>
        <pt x="1186" y="1329" on="1"/>
        <pt x="1094" y="1217" on="1"/>
        <pt x="1067" y="1250" on="0"/>
        <pt x="993" y="1295" on="0"/>
        <pt x="908" y="1322" on="0"/>
        <pt x="817" y="1334" on="0"/>
        <pt x="772" y="1334" on="1"/>
        <pt x="711" y="1334" on="0"/>
        <pt x="587" y="1309" on="0"/>
        <pt x="485" y="1254" on="0"/>
        <pt x="416" y="1167" on="0"/>
        <pt x="411" y="1105" on="1"/>
        <pt x="406" y="1041" on="0"/>
        <pt x="469" y="948" on="0"/>
        <pt x="577" y="876" on="0"/>
        <pt x="718" y="816" on="0"/>
        <pt x="865" y="754" on="0"/>
        <pt x="1004" y="682" on="0"/>
        <pt x="1110" y="584" on="0"/>
        <pt x="1170" y="453" on="0"/>
        <pt x="1163" y="364" on="1"/>
        <pt x="1157" y="293" on="0"/>
        <pt x="1102" y="180" on="0"/>
        <pt x="1016" y="94" on="0"/>
        <pt x="903" y="33" on="0"/>
        <pt x="775" y="-5" on="0"/>
        <pt x="638" y="-23" on="0"/>
        <pt x="571" y="-23" on="1"/>
        <pt x="498" y="-23" on="0"/>
        <pt x="368" y="3" on="0"/>
        <pt x="259" y="51" on="0"/>
        <pt x="176" y="119" on="0"/>
        <pt x="150" y="161" on="1"/>
      </contour>
    </TTGlyph>
    <TTGlyph name="Scaron" xMin="150" yMin="-23" xMax="1186" yMax="1923">
      <component glyphName="S" x="0" y="0" flags="0x1204"/>
      <component glyphName="caron" x="309" y="430" flags="0x1004"/>
    </TTGlyph>
    <TTGlyph name="T" xMin="135" yMin="0" xMax="1260" yMax="1456">
      <contour>
        <pt x="501" y="0" on="1"/>
        <pt x="604" y="1308" on="1"/>
        <pt x="135" y="1308" on="1"/>
        <pt x="147" y="1456" on="1"/>
        <pt x="1260" y="1456" on="1"/>
        <pt x="1248" y="1308" on="1"/>
        <pt x="776" y="1308" on="1"/>
        <pt x="673" y="0" on="1"/>
      </contour>
    </TTGlyph>
    <TTGlyph name="Thorn" xMin="203" yMin="0" xMax="1269" yMax="1456">
      <contour>
        <pt x="375" y="0" on="1"/>
        <pt x="203" y="0" on="1"/>
        <pt x="318" y="1456" on="1"/>
        <pt x="490" y="1456" on="1"/>
        <pt x="478" y="1312" on="1"/>
        <pt x="647" y="1312" on="1"/>
        <pt x="732" y="1312" on="0"/>
        <pt x="894" y="1297" on="0"/>
        <pt x="1037" y="1260" on="0"/>
        <pt x="1155" y="1197" on="0"/>
        <pt x="1237" y="1100" on="0"/>
        <pt x="1276" y="966" on="0"/>
        <pt x="1269" y="876" on="1"/>
        <pt x="1260" y="762" on="0"/>
        <pt x="1148" y="598" on="0"/>
        <pt x="973" y="493" on="0"/>
        <pt x="751" y="443" on="0"/>
        <pt x="632" y="443" on="1"/>
        <pt x="410" y="443" on="1"/>
      </contour>
      <contour>
        <pt x="467" y="1164" on="1"/>
        <pt x="422" y="592" on="1"/>
        <pt x="683" y="592" on="1"/>
        <pt x="765" y="592" on="0"/>
        <pt x="907" y="625" on="0"/>
        <pt x="1014" y="694" on="0"/>
        <pt x="1079" y="800" on="0"/>
        <pt x="1085" y="874" on="1"/>
        <pt x="1092" y="961" on="0"/>
        <pt x="1038" y="1074" on="0"/>
        <pt x="930" y="1139" on="0"/>
        <pt x="775" y="1164" on="0"/>
        <pt x="680" y="1164" on="1"/>
      </contour>
    </TTGlyph>
    <TTGlyph name="U" xMin="234" yMin="-23" xMax="1452" yMax="1456">
      <contour>
        <pt x="306" y="1456" on="1"/>
        <pt x="478" y="1456" on="1"/>
        <pt x="406" y="546" on="1"/>
        <pt x="390" y="342" on="0"/>
        <pt x="575" y="125" on="0"/>
        <pt x="773" y="125" on="1"/>
        <pt x="864" y="125" on="0"/>
        <pt x="1018" y="182" on="0"/>
        <pt x="1131" y="289" on="0"/>
        <pt x="1200" y="443" on="0"/>
        <pt x="1208" y="539" on="1"/>
        <pt x="1280" y="1456" on="1"/>
        <pt x="1452" y="1456" on="1"/>
        <pt x="1380" y="551" on="1"/>
        <pt x="1368" y="416" on="0"/>
        <pt x="1278" y="202" on="0"/>
        <pt x="1122" y="55" on="0"/>
        <pt x="898" y="-23" on="0"/>
        <pt x="754" y="-23" on="1"/>
        <pt x="598" y="-23" on="0"/>
        <pt x="389" y="59" on="0"/>
        <pt x="267" y="208" on="0"/>
        <pt x="224" y="416" on="0"/>
        <pt x="234" y="541" on="1"/>
      </contour>
    </TTGlyph>
    <TTGlyph name="Uacute" xMin="234" yMin="-23" xMax="1452" yMax="1922">
      <component glyphName="U" x="0" y="0" flags="0x1204"/>
      <component glyphName="acute" x="406" y="430" flags="0x1004"/>
    </TTGlyph>
    <TTGlyph name="Ucircumflex" xMin="234" yMin="-23" xMax="1452" yMax="1924">
      <component glyphName="U" x="0" y="0" flags="0x1204"/>
      <component glyphName="circumflex" x="458" y="430" flags="0x1004"/>
    </TTGlyph>
    <TTGlyph name="Udieresis" xMin="234" yMin="-23" xMax="1452" yMax="1839">
      <component glyphName="U" x="0" y="0" flags="0x1204"/>
      <component glyphName="dieresis" x="430" y="430" flags="0x1004"/>
    </TTGlyph>
    <TTGlyph name="Ugrave" xMin="234" yMin="-23" xMax="1452" yMax="1922">
      <component glyphName="U" x="0" y="0" flags="0x1204"/>
      <component glyphName="grave" x="568" y="430" flags="0x1004"/>
    </TTGlyph>
    <TTGlyph name="V" xMin="124" yMin="0" xMax="1439" yMax="1456">
      <contour>
        <pt x="316" y="1456" on="1"/>
        <pt x="649" y="307" on="1"/>
        <pt x="683" y="166" on="1"/>
        <pt x="743" y="308" on="1"/>
        <pt x="1260" y="1456" on="1"/>
        <pt x="1439" y="1456" on="1"/>
        <pt x="759" y="0" on="1"/>
        <pt x="570" y="0" on="1"/>
        <pt x="124" y="1456" on="1"/>
      </contour>
    </TTGlyph>
    <TTGlyph name="W" xMin="136" yMin="0" xMax="2195" yMax="1456">
      <contour>
        <pt x="1196" y="1026" on="1"/>
        <pt x="1151" y="1247" on="1"/>
        <pt x="1064" y="1026" on="1"/>
        <pt x="657" y="0" on="1"/>
        <pt x="444" y="0" on="1"/>
        <pt x="136" y="1456" on="1"/>
        <pt x="322" y="1456" on="1"/>
        <pt x="545" y="349" on="1"/>
        <pt x="570" y="189" on="1"/>
        <pt x="626" y="334" on="1"/>
        <pt x="1082" y="1456" on="1"/>
        <pt x="1263" y="1456" on="1"/>
        <pt x="1535" y="345" on="1"/>
        <pt x="1568" y="190" on="1"/>
        <pt x="1616" y="332" on="1"/>
        <pt x="2015" y="1456" on="1"/>
        <pt x="2195" y="1456" on="1"/>
        <pt x="1657" y="0" on="1"/>
        <pt x="1445" y="0" on="1"/>
      </contour>
    </TTGlyph>
    <TTGlyph name="X" xMin="11" yMin="0" xMax="1390" yMax="1456">
      <contour>
        <pt x="626" y="537" on="1"/>
        <pt x="215" y="0" on="1"/>
        <pt x="11" y="0" on="1"/>
        <pt x="606" y="741" on="1"/>
        <pt x="162" y="1456" on="1"/>
        <pt x="378" y="1456" on="1"/>
        <pt x="667" y="959" on="1"/>
        <pt x="729" y="854" on="1"/>
        <pt x="809" y="959" on="1"/>
        <pt x="1194" y="1456" on="1"/>
        <pt x="1390" y="1456" on="1"/>
        <pt x="822" y="742" on="1"/>
        <pt x="1285" y="0" on="1"/>
        <pt x="1072" y="0" on="1"/>
        <pt x="752" y="538" on="1"/>
        <pt x="696" y="630" on="1"/>
      </contour>
    </TTGlyph>
    <TTGlyph name="Y" xMin="125" yMin="0" xMax="1373" yMax="1456">
      <contour>
        <pt x="543" y="0" on="1"/>
        <pt x="589" y="582" on="1"/>
        <pt x="125" y="1456" on="1"/>
        <pt x="316" y="1456" on="1"/>
        <pt x="690" y="727" on="1"/>
        <pt x="1182" y="1456" on="1"/>
        <pt x="1373" y="1456" on="1"/>
        <pt x="761" y="585" on="1"/>
        <pt x="715" y="0" on="1"/>
      </contour>
    </TTGlyph>
    <TTGlyph name="Yacute" xMin="125" yMin="0" xMax="1373" yMax="1922">
      <component glyphName="Y" x="0" y="0" flags="0x1204"/>
      <component glyphName="acute" x="273" y="430" flags="0x1004"/>
    </TTGlyph>
    <TTGlyph name="Ydieresis" xMin="125" yMin="0" xMax="1373" yMax="1839">
      <component glyphName="Y" x="0" y="0" flags="0x1204"/>
      <component glyphName="dieresis" x="318" y="430" flags="0x1004"/>
    </TTGlyph>
    <TTGlyph name="Z" xMin="58" yMin="0" xMax="1269" yMax="1456">
      <contour>
        <pt x="1146" y="0" on="1"/>
        <pt x="58" y="0" on="1"/>
        <pt x="65" y="92" on="1"/>
        <pt x="1025" y="1308" on="1"/>
        <pt x="193" y="1308" on="1"/>
        <pt x="205" y="1456" on="1"/>
        <pt x="1269" y="1456" on="1"/>
        <pt x="1262" y="1368" on="1"/>
        <pt x="298" y="148" on="1"/>
        <pt x="1158" y="148" on="1"/>
      </contour>
    </TTGlyph>
    <TTGlyph name="Zcaron" xMin="58" yMin="0" xMax="1269" yMax="1923">
      <component glyphName="Z" x="0" y="0" flags="0x1204"/>
      <component glyphName="caron" x="298" y="430" flags="0x1004"/>
    </TTGlyph>
    <TTGlyph name="a" xMin="130" yMin="-23" xMax="1193" yMax="1051">
      <contour>
        <pt x="665" y="1051" on="1"/>
        <pt x="728" y="1051" on="0"/>
        <pt x="830" y="1028" on="0"/>
        <pt x="914" y="986" on="0"/>
        <pt x="984" y="924" on="0"/>
        <pt x="1012" y="885" on="1"/>
        <pt x="1030" y="1026" on="1"/>
        <pt x="1193" y="1026" on="1"/>
        <pt x="1169" y="773" on="1"/>
        <pt x="1108" y="0" on="1"/>
        <pt x="943" y="0" on="1"/>
        <pt x="956" y="144" on="1"/>
        <pt x="930" y="112" on="0"/>
        <pt x="852" y="51" on="0"/>
        <pt x="756" y="5" on="0"/>
        <pt x="643" y="-23" on="0"/>
        <pt x="582" y="-23" on="1"/>
        <pt x="496" y="-23" on="0"/>
        <pt x="360" y="22" on="0"/>
        <pt x="256" y="101" on="0"/>
        <pt x="183" y="207" on="0"/>
        <pt x="141" y="329" on="0"/>
        <pt x="125" y="460" on="0"/>
        <pt x="130" y="524" on="1"/>
        <pt x="138" y="623" on="0"/>
        <pt x="214" y="813" on="0"/>
        <pt x="348" y="961" on="0"/>
        <pt x="541" y="1051" on="0"/>
      </contour>
      <contour>
        <pt x="609" y="109" on="1"/>
        <pt x="679" y="109" on="0"/>
        <pt x="807" y="166" on="0"/>
        <pt x="909" y="277" on="0"/>
        <pt x="977" y="442" on="0"/>
        <pt x="986" y="550" on="1"/>
        <pt x="992" y="631" on="0"/>
        <pt x="954" y="765" on="0"/>
        <pt x="872" y="863" on="0"/>
        <pt x="747" y="917" on="0"/>
        <pt x="667" y="917" on="1"/>
        <pt x="606" y="917" on="0"/>
        <pt x="505" y="884" on="0"/>
        <pt x="425" y="826" on="0"/>
        <pt x="363" y="748" on="0"/>
        <pt x="320" y="659" on="0"/>
        <pt x="295" y="563" on="0"/>
        <pt x="291" y="516" on="1"/>
        <pt x="288" y="470" on="0"/>
        <pt x="293" y="373" on="0"/>
        <pt x="316" y="283" on="0"/>
        <pt x="362" y="203" on="0"/>
        <pt x="434" y="144" on="0"/>
        <pt x="538" y="109" on="0"/>
      </contour>
    </TTGlyph>
    <TTGlyph name="aacute" xMin="130" yMin="-23" xMax="1193" yMax="1492">
      <component glyphName="a" x="0" y="0" flags="0x1204"/>
      <component glyphName="acute" x="228" y="0" flags="0x1004"/>
    </TTGlyph>
    <TTGlyph name="acircumflex" xMin="130" yMin="-23" xMax="1193" yMax="1494">
      <component glyphName="a" x="0" y="0" flags="0x1204"/>
      <component glyphName="circumflex" x="280" y="0" flags="0x1004"/>
    </TTGlyph>
    <TTGlyph name="acute" xMin="267" yMin="1172" xMax="730" yMax="1492">
      <contour>
        <pt x="518" y="1492" on="1"/>
        <pt x="730" y="1492" on="1"/>
        <pt x="397" y="1172" on="1"/>
        <pt x="267" y="1172" on="1"/>
      </contour>
    </TTGlyph>
    <TTGlyph name="adieresis" xMin="130" yMin="-23" xMax="1193" yMax="1409">
      <component glyphName="a" x="0" y="0" flags="0x1204"/>
      <component glyphName="dieresis" x="252" y="0" flags="0x1004"/>
    </TTGlyph>
    <TTGlyph name="ae" xMin="104" yMin="-28" xMax="1739" yMax="1053">
      <contour>
        <pt x="216" y="856" on="1"/>
        <pt x="248" y="908" on="0"/>
        <pt x="337" y="983" on="0"/>
        <pt x="444" y="1031" on="0"/>
        <pt x="566" y="1053" on="0"/>
        <pt x="633" y="1053" on="1"/>
        <pt x="688" y="1051" on="0"/>
        <pt x="790" y="1025" on="0"/>
        <pt x="872" y="977" on="0"/>
        <pt x="932" y="906" on="0"/>
        <pt x="945" y="860" on="1"/>
        <pt x="945" y="859" on="0"/>
        <pt x="946" y="857" on="0"/>
        <pt x="946" y="856" on="1"/>
        <pt x="978" y="905" on="0"/>
        <pt x="1060" y="978" on="0"/>
        <pt x="1155" y="1027" on="0"/>
        <pt x="1260" y="1052" on="0"/>
        <pt x="1314" y="1053" on="1"/>
        <pt x="1435" y="1053" on="0"/>
        <pt x="1605" y="976" on="0"/>
        <pt x="1708" y="837" on="0"/>
        <pt x="1748" y="642" on="0"/>
        <pt x="1739" y="524" on="1"/>
        <pt x="1735" y="479" on="1"/>
        <pt x="980" y="479" on="1"/>
        <pt x="980" y="476" on="0"/>
        <pt x="978" y="467" on="0"/>
        <pt x="978" y="463" on="1"/>
        <pt x="973" y="396" on="0"/>
        <pt x="991" y="270" on="0"/>
        <pt x="1052" y="172" on="0"/>
        <pt x="1163" y="113" on="0"/>
        <pt x="1251" y="113" on="1"/>
        <pt x="1354" y="113" on="0"/>
        <pt x="1537" y="207" on="0"/>
        <pt x="1600" y="292" on="1"/>
        <pt x="1681" y="206" on="1"/>
        <pt x="1605" y="91" on="0"/>
        <pt x="1377" y="-25" on="0"/>
        <pt x="1231" y="-25" on="1"/>
        <pt x="1171" y="-25" on="0"/>
        <pt x="1060" y="4" on="0"/>
        <pt x="967" y="61" on="0"/>
        <pt x="894" y="143" on="0"/>
        <pt x="870" y="197" on="1"/>
        <pt x="797" y="93" on="0"/>
        <pt x="573" y="-22" on="0"/>
        <pt x="439" y="-28" on="1"/>
        <pt x="360" y="-28" on="0"/>
        <pt x="232" y="15" on="0"/>
        <pt x="142" y="95" on="0"/>
        <pt x="98" y="210" on="0"/>
        <pt x="104" y="282" on="1"/>
        <pt x="109" y="351" on="0"/>
        <pt x="175" y="461" on="0"/>
        <pt x="282" y="541" on="0"/>
        <pt x="422" y="592" on="0"/>
        <pt x="503" y="602" on="1"/>
        <pt x="582" y="612" on="0"/>
        <pt x="742" y="611" on="0"/>
        <pt x="820" y="616" on="1"/>
        <pt x="820" y="628" on="1"/>
        <pt x="824" y="686" on="0"/>
        <pt x="809" y="790" on="0"/>
        <pt x="761" y="870" on="0"/>
        <pt x="677" y="917" on="0"/>
        <pt x="613" y="917" on="1"/>
        <pt x="518" y="917" on="0"/>
        <pt x="355" y="848" on="0"/>
        <pt x="299" y="763" on="1"/>
      </contour>
      <contour>
        <pt x="665" y="476" on="1"/>
        <pt x="591" y="474" on="0"/>
        <pt x="454" y="462" on="0"/>
        <pt x="347" y="423" on="0"/>
        <pt x="278" y="351" on="0"/>
        <pt x="273" y="290" on="1"/>
        <pt x="269" y="241" on="0"/>
        <pt x="301" y="172" on="0"/>
        <pt x="360" y="129" on="0"/>
        <pt x="439" y="109" on="0"/>
        <pt x="483" y="109" on="1"/>
        <pt x="570" y="109" on="0"/>
        <pt x="691" y="170" on="0"/>
        <pt x="767" y="272" on="0"/>
        <pt x="805" y="406" on="0"/>
        <pt x="811" y="479" on="1"/>
      </contour>
      <contour>
        <pt x="1573" y="616" on="1"/>
        <pt x="1573" y="626" on="1"/>
        <pt x="1572" y="690" on="0"/>
        <pt x="1544" y="798" on="0"/>
        <pt x="1484" y="874" on="0"/>
        <pt x="1390" y="917" on="0"/>
        <pt x="1323" y="917" on="1"/>
        <pt x="1254" y="917" on="0"/>
        <pt x="1141" y="868" on="0"/>
        <pt x="1056" y="785" on="0"/>
        <pt x="1002" y="676" on="0"/>
        <pt x="992" y="616" on="1"/>
      </contour>
    </TTGlyph>
    <TTGlyph name="agrave" xMin="130" yMin="-23" xMax="1193" yMax="1492">
      <component glyphName="a" x="0" y="0" flags="0x1204"/>
      <component glyphName="grave" x="390" y="0" flags="0x1004"/>
    </TTGlyph>
    <TTGlyph name="ampersand" xMin="147" yMin="-27" xMax="1625" yMax="1473">
      <contour>
        <pt x="147" y="402" on="1"/>
        <pt x="154" y="486" on="0"/>
        <pt x="229" y="618" on="0"/>
        <pt x="344" y="726" on="0"/>
        <pt x="486" y="814" on="0"/>
        <pt x="561" y="852" on="1"/>
        <pt x="548" y="867" on="1"/>
        <pt x="517" y="900" on="0"/>
        <pt x="458" y="968" on="0"/>
        <pt x="412" y="1043" on="0"/>
        <pt x="388" y="1130" on="0"/>
        <pt x="392" y="1182" on="1"/>
        <pt x="398" y="1254" on="0"/>
        <pt x="464" y="1363" on="0"/>
        <pt x="568" y="1436" on="0"/>
        <pt x="702" y="1473" on="0"/>
        <pt x="777" y="1473" on="1"/>
        <pt x="847" y="1473" on="0"/>
        <pt x="980" y="1439" on="0"/>
        <pt x="1079" y="1368" on="0"/>
        <pt x="1136" y="1261" on="0"/>
        <pt x="1130" y="1188" on="1"/>
        <pt x="1125" y="1128" on="0"/>
        <pt x="1066" y="1023" on="0"/>
        <pt x="974" y="932" on="0"/>
        <pt x="857" y="854" on="0"/>
        <pt x="794" y="822" on="1"/>
        <pt x="1172" y="409" on="1"/>
        <pt x="1210" y="461" on="0"/>
        <pt x="1276" y="589" on="0"/>
        <pt x="1327" y="726" on="0"/>
        <pt x="1360" y="868" on="0"/>
        <pt x="1365" y="935" on="1"/>
        <pt x="1368" y="973" on="0"/>
        <pt x="1365" y="1017" on="0"/>
        <pt x="1365" y="1032" on="1"/>
        <pt x="1538" y="1032" on="1"/>
        <pt x="1537" y="938" on="0"/>
        <pt x="1501" y="740" on="0"/>
        <pt x="1434" y="548" on="0"/>
        <pt x="1339" y="370" on="0"/>
        <pt x="1279" y="295" on="1"/>
        <pt x="1320" y="249" on="0"/>
        <pt x="1392" y="182" on="0"/>
        <pt x="1470" y="133" on="0"/>
        <pt x="1563" y="99" on="0"/>
        <pt x="1625" y="86" on="1"/>
        <pt x="1485" y="-12" on="1"/>
        <pt x="1439" y="-5" on="0"/>
        <pt x="1364" y="26" on="0"/>
        <pt x="1294" y="75" on="0"/>
        <pt x="1224" y="142" on="0"/>
        <pt x="1181" y="186" on="1"/>
        <pt x="1133" y="142" on="0"/>
        <pt x="1020" y="64" on="0"/>
        <pt x="891" y="6" on="0"/>
        <pt x="743" y="-27" on="0"/>
        <pt x="659" y="-27" on="1"/>
        <pt x="542" y="-27" on="0"/>
        <pt x="348" y="31" on="0"/>
        <pt x="209" y="141" on="0"/>
        <pt x="139" y="300" on="0"/>
      </contour>
      <contour>
        <pt x="1081" y="291" on="1"/>
        <pt x="1079" y="292" on="0"/>
        <pt x="1042" y="332" on="0"/>
        <pt x="981" y="398" on="0"/>
        <pt x="904" y="480" on="0"/>
        <pt x="865" y="523" on="1"/>
        <pt x="653" y="750" on="1"/>
        <pt x="594" y="721" on="0"/>
        <pt x="481" y="655" on="0"/>
        <pt x="390" y="573" on="0"/>
        <pt x="332" y="470" on="0"/>
        <pt x="327" y="406" on="1"/>
        <pt x="322" y="343" on="0"/>
        <pt x="368" y="237" on="0"/>
        <pt x="458" y="160" on="0"/>
        <pt x="588" y="116" on="0"/>
        <pt x="668" y="116" on="1"/>
        <pt x="736" y="116" on="0"/>
        <pt x="852" y="143" on="0"/>
        <pt x="952" y="190" on="0"/>
        <pt x="1040" y="254" on="0"/>
      </contour>
      <contour>
        <pt x="698" y="918" on="1"/>
        <pt x="745" y="942" on="0"/>
        <pt x="836" y="998" on="0"/>
        <pt x="908" y="1062" on="0"/>
        <pt x="955" y="1135" on="0"/>
        <pt x="958" y="1178" on="1"/>
        <pt x="961" y="1221" on="0"/>
        <pt x="931" y="1283" on="0"/>
        <pt x="878" y="1322" on="0"/>
        <pt x="810" y="1340" on="0"/>
        <pt x="775" y="1340" on="1"/>
        <pt x="734" y="1340" on="0"/>
        <pt x="661" y="1320" on="0"/>
        <pt x="604" y="1279" on="0"/>
        <pt x="568" y="1218" on="0"/>
        <pt x="565" y="1178" on="1"/>
        <pt x="562" y="1140" on="0"/>
        <pt x="579" y="1072" on="0"/>
        <pt x="615" y="1009" on="0"/>
        <pt x="666" y="949" on="0"/>
      </contour>
    </TTGlyph>
    <TTGlyph name="approxequal" xMin="177" yMin="261" xMax="1255" yMax="918">
      <contour>
        <pt x="1228" y="518" on="1"/>
        <pt x="1211" y="461" on="0"/>
        <pt x="1156" y="366" on="0"/>
        <pt x="1079" y="299" on="0"/>
        <pt x="980" y="262" on="0"/>
        <pt x="919" y="262" on="1"/>
        <pt x="859" y="262" on="0"/>
        <pt x="738" y="311" on="0"/>
        <pt x="660" y="359" on="1"/>
        <pt x="611" y="388" on="0"/>
        <pt x="525" y="426" on="0"/>
        <pt x="483" y="426" on="1"/>
        <pt x="410" y="426" on="0"/>
        <pt x="317" y="336" on="0"/>
        <pt x="289" y="261" on="1"/>
        <pt x="177" y="289" on="1"/>
        <pt x="215" y="409" on="0"/>
        <pt x="380" y="546" on="0"/>
        <pt x="495" y="546" on="1"/>
        <pt x="540" y="546" on="0"/>
        <pt x="623" y="521" on="0"/>
        <pt x="702" y="485" on="0"/>
        <pt x="775" y="441" on="0"/>
        <pt x="842" y="405" on="0"/>
        <pt x="905" y="380" on="0"/>
        <pt x="934" y="380" on="1"/>
        <pt x="997" y="380" on="0"/>
        <pt x="1085" y="467" on="0"/>
        <pt x="1120" y="546" on="1"/>
      </contour>
      <contour>
        <pt x="1255" y="890" on="1"/>
        <pt x="1239" y="832" on="0"/>
        <pt x="1183" y="738" on="0"/>
        <pt x="1106" y="671" on="0"/>
        <pt x="1007" y="634" on="0"/>
        <pt x="946" y="634" on="1"/>
        <pt x="914" y="634" on="0"/>
        <pt x="854" y="646" on="0"/>
        <pt x="792" y="671" on="0"/>
        <pt x="724" y="707" on="0"/>
        <pt x="685" y="731" on="1"/>
        <pt x="636" y="760" on="0"/>
        <pt x="551" y="799" on="0"/>
        <pt x="509" y="799" on="1"/>
        <pt x="437" y="799" on="0"/>
        <pt x="345" y="709" on="0"/>
        <pt x="317" y="634" on="1"/>
        <pt x="204" y="661" on="1"/>
        <pt x="241" y="780" on="0"/>
        <pt x="406" y="917" on="0"/>
        <pt x="522" y="917" on="1"/>
        <pt x="586" y="917" on="0"/>
        <pt x="700" y="870" on="0"/>
        <pt x="766" y="830" on="1"/>
        <pt x="829" y="791" on="0"/>
        <pt x="922" y="752" on="0"/>
        <pt x="961" y="752" on="1"/>
        <pt x="1024" y="752" on="0"/>
        <pt x="1113" y="837" on="0"/>
        <pt x="1148" y="918" on="1"/>
      </contour>
    </TTGlyph>
    <TTGlyph name="aring" xMin="130" yMin="-23" xMax="1193" yMax="1530">
      <component glyphName="a" x="0" y="0" flags="0x1204"/>
      <component glyphName="ring" x="322" y="0" flags="0x1004"/>
    </TTGlyph>
    <TTGlyph name="asciicircum" xMin="227" yMin="550" xMax="1298" yMax="1432">
      <contour>
        <pt x="227" y="550" on="1"/>
        <pt x="777" y="1432" on="1"/>
        <pt x="878" y="1432" on="1"/>
        <pt x="1298" y="550" on="1"/>
        <pt x="1143" y="550" on="1"/>
        <pt x="849" y="1175" on="1"/>
        <pt x="813" y="1260" on="1"/>
        <pt x="767" y="1176" on="1"/>
        <pt x="383" y="550" on="1"/>
      </contour>
    </TTGlyph>
    <TTGlyph name="asciitilde" xMin="224" yMin="385" xMax="1310" yMax="723">
      <contour>
        <pt x="547" y="705" on="1"/>
        <pt x="585" y="705" on="0"/>
        <pt x="668" y="681" on="0"/>
        <pt x="753" y="646" on="0"/>
        <pt x="836" y="604" on="0"/>
        <pt x="912" y="569" on="0"/>
        <pt x="976" y="545" on="0"/>
        <pt x="1000" y="545" on="1"/>
        <pt x="1033" y="545" on="0"/>
        <pt x="1092" y="575" on="0"/>
        <pt x="1141" y="625" on="0"/>
        <pt x="1178" y="689" on="0"/>
        <pt x="1188" y="723" on="1"/>
        <pt x="1310" y="684" on="1"/>
        <pt x="1291" y="624" on="0"/>
        <pt x="1232" y="524" on="0"/>
        <pt x="1150" y="451" on="0"/>
        <pt x="1048" y="410" on="0"/>
        <pt x="989" y="410" on="1"/>
        <pt x="959" y="410" on="0"/>
        <pt x="886" y="434" on="0"/>
        <pt x="807" y="470" on="0"/>
        <pt x="725" y="511" on="0"/>
        <pt x="645" y="547" on="0"/>
        <pt x="570" y="571" on="0"/>
        <pt x="539" y="571" on="1"/>
        <pt x="500" y="571" on="0"/>
        <pt x="436" y="539" on="0"/>
        <pt x="384" y="487" on="0"/>
        <pt x="345" y="420" on="0"/>
        <pt x="335" y="385" on="1"/>
        <pt x="224" y="440" on="1"/>
        <pt x="239" y="492" on="0"/>
        <pt x="297" y="587" on="0"/>
        <pt x="378" y="661" on="0"/>
        <pt x="484" y="705" on="0"/>
      </contour>
    </TTGlyph>
    <TTGlyph name="asterisk" xMin="264" yMin="737" xMax="970" yMax="1451">
      <contour>
        <pt x="671" y="1153" on="1"/>
        <pt x="916" y="1274" on="1"/>
        <pt x="970" y="1149" on="1"/>
        <pt x="700" y="1061" on="1"/>
        <pt x="881" y="810" on="1"/>
        <pt x="750" y="737" on="1"/>
        <pt x="613" y="1003" on="1"/>
        <pt x="439" y="745" on="1"/>
        <pt x="321" y="820" on="1"/>
        <pt x="531" y="1058" on="1"/>
        <pt x="264" y="1136" on="1"/>
        <pt x="296" y="1271" on="1"/>
        <pt x="570" y="1148" on="1"/>
        <pt x="566" y="1223" on="0"/>
        <pt x="557" y="1376" on="0"/>
        <pt x="553" y="1451" on="1"/>
        <pt x="702" y="1451" on="1"/>
      </contour>
    </TTGlyph>
    <TTGlyph name="at" xMin="183" yMin="-109" xMax="1822" yMax="1476">
      <contour>
        <pt x="1312" y="1107" on="1"/>
        <pt x="1458" y="1107" on="1"/>
        <pt x="1381" y="857" on="1"/>
        <pt x="1328" y="684" on="0"/>
        <pt x="1262" y="478" on="0"/>
        <pt x="1260" y="434" on="1"/>
        <pt x="1257" y="397" on="0"/>
        <pt x="1290" y="350" on="0"/>
        <pt x="1336" y="350" on="1"/>
        <pt x="1395" y="350" on="0"/>
        <pt x="1509" y="424" on="0"/>
        <pt x="1601" y="547" on="0"/>
        <pt x="1663" y="709" on="0"/>
        <pt x="1670" y="796" on="1"/>
        <pt x="1679" y="919" on="0"/>
        <pt x="1600" y="1125" on="0"/>
        <pt x="1443" y="1274" on="0"/>
        <pt x="1214" y="1357" on="0"/>
        <pt x="1073" y="1357" on="1"/>
        <pt x="925" y="1357" on="0"/>
        <pt x="665" y="1250" on="0"/>
        <pt x="468" y="1065" on="0"/>
        <pt x="345" y="817" on="0"/>
        <pt x="334" y="677" on="1"/>
        <pt x="323" y="535" on="0"/>
        <pt x="403" y="292" on="0"/>
        <pt x="571" y="113" on="0"/>
        <pt x="817" y="12" on="0"/>
        <pt x="973" y="12" on="1"/>
        <pt x="1120" y="12" on="0"/>
        <pt x="1392" y="104" on="0"/>
        <pt x="1501" y="192" on="1"/>
        <pt x="1575" y="122" on="1"/>
        <pt x="1521" y="68" on="0"/>
        <pt x="1382" y="-17" on="0"/>
        <pt x="1223" y="-77" on="0"/>
        <pt x="1048" y="-109" on="0"/>
        <pt x="958" y="-109" on="1"/>
        <pt x="776" y="-109" on="0"/>
        <pt x="479" y="11" on="0"/>
        <pt x="272" y="222" on="0"/>
        <pt x="170" y="510" on="0"/>
        <pt x="183" y="679" on="1"/>
        <pt x="192" y="791" on="0"/>
        <pt x="267" y="997" on="0"/>
        <pt x="390" y="1174" on="0"/>
        <pt x="555" y="1318" on="0"/>
        <pt x="750" y="1420" on="0"/>
        <pt x="969" y="1476" on="0"/>
        <pt x="1087" y="1476" on="1"/>
        <pt x="1197" y="1476" on="0"/>
        <pt x="1396" y="1430" on="0"/>
        <pt x="1565" y="1344" on="0"/>
        <pt x="1699" y="1222" on="0"/>
        <pt x="1788" y="1070" on="0"/>
        <pt x="1830" y="891" on="0"/>
        <pt x="1822" y="791" on="1"/>
        <pt x="1813" y="672" on="0"/>
        <pt x="1715" y="466" on="0"/>
        <pt x="1569" y="313" on="0"/>
        <pt x="1393" y="225" on="0"/>
        <pt x="1306" y="225" on="1"/>
        <pt x="1218" y="225" on="0"/>
        <pt x="1109" y="299" on="0"/>
        <pt x="1101" y="384" on="1"/>
        <pt x="1044" y="320" on="0"/>
        <pt x="906" y="257" on="0"/>
        <pt x="834" y="257" on="1"/>
        <pt x="774" y="257" on="0"/>
        <pt x="664" y="302" on="0"/>
        <pt x="583" y="391" on="0"/>
        <pt x="539" y="523" on="0"/>
        <pt x="546" y="610" on="1"/>
        <pt x="551" y="678" on="0"/>
        <pt x="599" y="810" on="0"/>
        <pt x="674" y="927" on="0"/>
        <pt x="772" y="1026" on="0"/>
        <pt x="884" y="1098" on="0"/>
        <pt x="1005" y="1138" on="0"/>
        <pt x="1067" y="1138" on="1"/>
        <pt x="1145" y="1138" on="0"/>
        <pt x="1262" y="1076" on="0"/>
        <pt x="1287" y="1022" on="1"/>
      </contour>
      <contour>
        <pt x="701" y="582" on="1"/>
        <pt x="697" y="538" on="0"/>
        <pt x="715" y="466" on="0"/>
        <pt x="755" y="414" on="0"/>
        <pt x="819" y="385" on="0"/>
        <pt x="861" y="385" on="1"/>
        <pt x="927" y="385" on="0"/>
        <pt x="1047" y="460" on="0"/>
        <pt x="1140" y="583" on="0"/>
        <pt x="1199" y="739" on="0"/>
        <pt x="1205" y="821" on="1"/>
        <pt x="1209" y="863" on="0"/>
        <pt x="1197" y="932" on="0"/>
        <pt x="1162" y="981" on="0"/>
        <pt x="1103" y="1007" on="0"/>
        <pt x="1059" y="1007" on="1"/>
        <pt x="988" y="1007" on="0"/>
        <pt x="862" y="928" on="0"/>
        <pt x="766" y="804" on="0"/>
        <pt x="706" y="654" on="0"/>
      </contour>
    </TTGlyph>
    <TTGlyph name="atilde" xMin="130" yMin="-23" xMax="1193" yMax="1435">
      <component glyphName="a" x="0" y="0" flags="0x1204"/>
      <component glyphName="tilde" x="286" y="0" flags="0x1004"/>
    </TTGlyph>
    <TTGlyph name="b" xMin="150" yMin="-23" xMax="1177" yMax="1492">
      <contour>
        <pt x="318" y="0" on="1"/>
        <pt x="150" y="0" on="1"/>
        <pt x="156" y="68" on="0"/>
        <pt x="163" y="123" on="1"/>
        <pt x="166" y="147" on="0"/>
        <pt x="170" y="194" on="0"/>
        <pt x="174" y="234" on="0"/>
        <pt x="178" y="264" on="0"/>
        <pt x="178" y="270" on="1"/>
        <pt x="274" y="1492" on="1"/>
        <pt x="439" y="1492" on="1"/>
        <pt x="391" y="881" on="1"/>
        <pt x="461" y="968" on="0"/>
        <pt x="659" y="1051" on="0"/>
        <pt x="771" y="1051" on="1"/>
        <pt x="890" y="1051" on="0"/>
        <pt x="1053" y="965" on="0"/>
        <pt x="1150" y="821" on="0"/>
        <pt x="1186" y="630" on="0"/>
        <pt x="1177" y="525" on="1"/>
        <pt x="1169" y="413" on="0"/>
        <pt x="1094" y="214" on="0"/>
        <pt x="965" y="64" on="0"/>
        <pt x="782" y="-23" on="0"/>
        <pt x="666" y="-23" on="1"/>
        <pt x="557" y="-23" on="0"/>
        <pt x="390" y="58" on="0"/>
        <pt x="333" y="137" on="1"/>
      </contour>
      <contour>
        <pt x="1012" y="550" on="1"/>
        <pt x="1018" y="626" on="0"/>
        <pt x="985" y="760" on="0"/>
        <pt x="910" y="859" on="0"/>
        <pt x="796" y="917" on="0"/>
        <pt x="722" y="917" on="1"/>
        <pt x="641" y="917" on="0"/>
        <pt x="513" y="852" on="0"/>
        <pt x="421" y="741" on="0"/>
        <pt x="369" y="595" on="0"/>
        <pt x="363" y="515" on="1"/>
        <pt x="356" y="428" on="0"/>
        <pt x="378" y="288" on="0"/>
        <pt x="447" y="189" on="0"/>
        <pt x="567" y="135" on="0"/>
        <pt x="658" y="135" on="1"/>
        <pt x="748" y="135" on="0"/>
        <pt x="877" y="206" on="0"/>
        <pt x="961" y="322" on="0"/>
        <pt x="1006" y="471" on="0"/>
      </contour>
    </TTGlyph>
    <TTGlyph name="backslash" xMin="44" yMin="-119" xMax="773" yMax="1451">
      <contour>
        <pt x="607" y="-119" on="1"/>
        <pt x="44" y="1451" on="1"/>
        <pt x="212" y="1451" on="1"/>
        <pt x="773" y="-119" on="1"/>
      </contour>
    </TTGlyph>
    <TTGlyph name="bar" xMin="129" yMin="-491" xMax="446" yMax="1545">
      <contour>
        <pt x="129" y="-491" on="1"/>
        <pt x="289" y="1545" on="1"/>
        <pt x="446" y="1545" on="1"/>
        <pt x="286" y="-491" on="1"/>
      </contour>
    </TTGlyph>
    <TTGlyph name="braceleft" xMin="128" yMin="-259" xMax="680" yMax="1451">
      <contour>
        <pt x="546" y="-259" on="1"/>
        <pt x="476" y="-256" on="0"/>
        <pt x="360" y="-225" on="0"/>
        <pt x="278" y="-161" on="0"/>
        <pt x="238" y="-61" on="0"/>
        <pt x="244" y="11" on="1"/>
        <pt x="266" y="274" on="1"/>
        <pt x="269" y="320" on="0"/>
        <pt x="270" y="409" on="0"/>
        <pt x="246" y="480" on="0"/>
        <pt x="186" y="528" on="0"/>
        <pt x="128" y="534" on="1"/>
        <pt x="137" y="656" on="1"/>
        <pt x="181" y="660" on="0"/>
        <pt x="246" y="697" on="0"/>
        <pt x="289" y="757" on="0"/>
        <pt x="313" y="840" on="0"/>
        <pt x="317" y="890" on="1"/>
        <pt x="320" y="953" on="0"/>
        <pt x="330" y="1080" on="0"/>
        <pt x="333" y="1143" on="1"/>
        <pt x="339" y="1216" on="0"/>
        <pt x="382" y="1330" on="0"/>
        <pt x="464" y="1409" on="0"/>
        <pt x="591" y="1451" on="0"/>
        <pt x="680" y="1451" on="1"/>
        <pt x="670" y="1325" on="1"/>
        <pt x="631" y="1324" on="0"/>
        <pt x="571" y="1307" on="0"/>
        <pt x="529" y="1268" on="0"/>
        <pt x="504" y="1205" on="0"/>
        <pt x="500" y="1157" on="1"/>
        <pt x="476" y="868" on="1"/>
        <pt x="472" y="809" on="0"/>
        <pt x="436" y="718" on="0"/>
        <pt x="390" y="651" on="0"/>
        <pt x="338" y="607" on="0"/>
        <pt x="315" y="595" on="1"/>
        <pt x="356" y="575" on="0"/>
        <pt x="404" y="512" on="0"/>
        <pt x="428" y="437" on="0"/>
        <pt x="433" y="359" on="0"/>
        <pt x="431" y="325" on="1"/>
        <pt x="427" y="276" on="0"/>
        <pt x="415" y="158" on="0"/>
        <pt x="411" y="107" on="1"/>
        <pt x="406" y="37" on="0"/>
        <pt x="415" y="-56" on="0"/>
        <pt x="447" y="-111" on="0"/>
        <pt x="509" y="-133" on="0"/>
        <pt x="556" y="-133" on="1"/>
      </contour>
    </TTGlyph>
    <TTGlyph name="braceright" xMin="46" yMin="-259" xMax="599" yMax="1451">
      <contour>
        <pt x="56" y="-133" on="1"/>
        <pt x="103" y="-133" on="0"/>
        <pt x="168" y="-111" on="0"/>
        <pt x="209" y="-56" on="0"/>
        <pt x="232" y="37" on="0"/>
        <pt x="238" y="107" on="1"/>
        <pt x="242" y="158" on="0"/>
        <pt x="249" y="276" on="0"/>
        <pt x="253" y="325" on="1"/>
        <pt x="256" y="359" on="0"/>
        <pt x="273" y="437" on="0"/>
        <pt x="309" y="512" on="0"/>
        <pt x="367" y="575" on="0"/>
        <pt x="411" y="595" on="1"/>
        <pt x="390" y="607" on="0"/>
        <pt x="345" y="651" on="0"/>
        <pt x="309" y="718" on="0"/>
        <pt x="288" y="809" on="0"/>
        <pt x="293" y="868" on="1"/>
        <pt x="314" y="1157" on="1"/>
        <pt x="318" y="1205" on="0"/>
        <pt x="303" y="1268" on="0"/>
        <pt x="267" y="1307" on="0"/>
        <pt x="210" y="1324" on="0"/>
        <pt x="171" y="1325" on="1"/>
        <pt x="181" y="1451" on="1"/>
        <pt x="270" y="1451" on="0"/>
        <pt x="389" y="1409" on="0"/>
        <pt x="460" y="1330" on="0"/>
        <pt x="485" y="1216" on="0"/>
        <pt x="479" y="1143" on="1"/>
        <pt x="472" y="1080" on="0"/>
        <pt x="462" y="953" on="0"/>
        <pt x="455" y="890" on="1"/>
        <pt x="451" y="840" on="0"/>
        <pt x="463" y="757" on="0"/>
        <pt x="496" y="697" on="0"/>
        <pt x="555" y="660" on="0"/>
        <pt x="599" y="656" on="1"/>
        <pt x="588" y="534" on="1"/>
        <pt x="530" y="528" on="0"/>
        <pt x="462" y="480" on="0"/>
        <pt x="427" y="409" on="0"/>
        <pt x="414" y="320" on="0"/>
        <pt x="410" y="274" on="1"/>
        <pt x="390" y="11" on="1"/>
        <pt x="385" y="-61" on="0"/>
        <pt x="329" y="-161" on="0"/>
        <pt x="237" y="-225" on="0"/>
        <pt x="116" y="-256" on="0"/>
        <pt x="46" y="-259" on="1"/>
      </contour>
    </TTGlyph>
    <TTGlyph name="bracketleft" xMin="171" yMin="-259" xMax="662" yMax="1451">
      <contour>
        <pt x="528" y="-259" on="1"/>
        <pt x="171" y="-259" on="1"/>
        <pt x="306" y="1451" on="1"/>
        <pt x="662" y="1451" on="1"/>
        <pt x="652" y="1329" on="1"/>
        <pt x="459" y="1329" on="1"/>
        <pt x="344" y="-137" on="1"/>
        <pt x="538" y="-137" on="1"/>
      </contour>
    </TTGlyph>
    <TTGlyph name="bracketright" xMin="67" yMin="-259" xMax="557" yMax="1451">
      <contour>
        <pt x="193" y="1451" on="1"/>
        <pt x="557" y="1451" on="1"/>
        <pt x="422" y="-259" on="1"/>
        <pt x="67" y="-259" on="1"/>
        <pt x="77" y="-137" on="1"/>
        <pt x="268" y="-137" on="1"/>
        <pt x="383" y="1329" on="1"/>
        <pt x="193" y="1329" on="1"/>
      </contour>
    </TTGlyph>
    <TTGlyph name="breve" xMin="146" yMin="1218" xMax="710" yMax="1454">
      <contour>
        <pt x="710" y="1454" on="1"/>
        <pt x="700" y="1395" on="0"/>
        <pt x="649" y="1306" on="0"/>
        <pt x="572" y="1247" on="0"/>
        <pt x="470" y="1218" on="0"/>
        <pt x="411" y="1218" on="1"/>
        <pt x="286" y="1218" on="0"/>
        <pt x="146" y="1333" on="0"/>
        <pt x="146" y="1454" on="1"/>
        <pt x="233" y="1454" on="1"/>
        <pt x="236" y="1418" on="0"/>
        <pt x="268" y="1369" on="0"/>
        <pt x="318" y="1338" on="0"/>
        <pt x="380" y="1325" on="0"/>
        <pt x="413" y="1325" on="1"/>
        <pt x="446" y="1325" on="0"/>
        <pt x="512" y="1340" on="0"/>
        <pt x="569" y="1371" on="0"/>
        <pt x="613" y="1420" on="0"/>
        <pt x="624" y="1454" on="1"/>
      </contour>
    </TTGlyph>
    <TTGlyph name="brokenbar" xMin="129" yMin="-491" xMax="446" yMax="1545">
      <contour>
        <pt x="129" y="-491" on="1"/>
        <pt x="199" y="393" on="1"/>
        <pt x="356" y="393" on="1"/>
        <pt x="286" y="-491" on="1"/>
      </contour>
      <contour>
        <pt x="221" y="677" on="1"/>
        <pt x="289" y="1545" on="1"/>
        <pt x="446" y="1545" on="1"/>
        <pt x="378" y="677" on="1"/>
      </contour>
    </TTGlyph>
    <TTGlyph name="bullet" xMin="212" yMin="385" xMax="889" yMax="1010">
      <contour>
        <pt x="889" y="701" on="1"/>
        <pt x="883" y="636" on="0"/>
        <pt x="819" y="522" on="0"/>
        <pt x="720" y="435" on="0"/>
        <pt x="593" y="385" on="0"/>
        <pt x="524" y="385" on="1"/>
        <pt x="454" y="385" on="0"/>
        <pt x="334" y="434" on="0"/>
        <pt x="250" y="519" on="0"/>
        <pt x="207" y="631" on="0"/>
        <pt x="212" y="694" on="1"/>
        <pt x="217" y="758" on="0"/>
        <pt x="281" y="873" on="0"/>
        <pt x="382" y="960" on="0"/>
        <pt x="510" y="1010" on="0"/>
        <pt x="578" y="1010" on="1"/>
        <pt x="647" y="1010" on="0"/>
        <pt x="765" y="961" on="0"/>
        <pt x="849" y="877" on="0"/>
        <pt x="893" y="764" on="0"/>
      </contour>
    </TTGlyph>
    <TTGlyph name="c" xMin="131" yMin="-23" xMax="1027" yMax="1051">
      <contour>
        <pt x="944" y="801" on="1"/>
        <pt x="901" y="861" on="0"/>
        <pt x="767" y="917" on="0"/>
        <pt x="689" y="917" on="1"/>
        <pt x="606" y="917" on="0"/>
        <pt x="471" y="853" on="0"/>
        <pt x="371" y="742" on="0"/>
        <pt x="312" y="593" on="0"/>
        <pt x="305" y="508" on="1"/>
        <pt x="298" y="424" on="0"/>
        <pt x="329" y="278" on="0"/>
        <pt x="406" y="170" on="0"/>
        <pt x="533" y="109" on="0"/>
        <pt x="623" y="109" on="1"/>
        <pt x="792" y="109" on="0"/>
        <pt x="936" y="225" on="1"/>
        <pt x="971" y="87" on="1"/>
        <pt x="893" y="29" on="0"/>
        <pt x="709" y="-23" on="0"/>
        <pt x="600" y="-23" on="1"/>
        <pt x="473" y="-23" on="0"/>
        <pt x="289" y="60" on="0"/>
        <pt x="172" y="203" on="0"/>
        <pt x="123" y="395" on="0"/>
        <pt x="131" y="503" on="1"/>
        <pt x="140" y="615" on="0"/>
        <pt x="224" y="815" on="0"/>
        <pt x="366" y="964" on="0"/>
        <pt x="563" y="1051" on="0"/>
        <pt x="685" y="1051" on="1"/>
        <pt x="806" y="1051" on="0"/>
        <pt x="982" y="975" on="0"/>
        <pt x="1027" y="908" on="1"/>
      </contour>
    </TTGlyph>
    <TTGlyph name="caron" xMin="147" yMin="1170" xMax="780" yMax="1493">
      <contour>
        <pt x="780" y="1493" on="1"/>
        <pt x="517" y="1170" on="1"/>
        <pt x="361" y="1170" on="1"/>
        <pt x="147" y="1493" on="1"/>
        <pt x="294" y="1493" on="1"/>
        <pt x="441" y="1278" on="1"/>
        <pt x="626" y="1493" on="1"/>
      </contour>
    </TTGlyph>
    <TTGlyph name="ccedilla" xMin="131" yMin="-396" xMax="1027" yMax="1051">
      <component glyphName="c" x="0" y="0" flags="0x1204"/>
      <component glyphName="cedilla" x="384" y="0" flags="0x1004"/>
    </TTGlyph>
    <TTGlyph name="cedilla" xMin="23" yMin="-396" xMax="450" yMax="17">
      <contour>
        <pt x="38" y="-289" on="1"/>
        <pt x="81" y="-300" on="0"/>
        <pt x="156" y="-313" on="0"/>
        <pt x="187" y="-313" on="1"/>
        <pt x="250" y="-313" on="0"/>
        <pt x="304" y="-273" on="0"/>
        <pt x="306" y="-241" on="1"/>
        <pt x="310" y="-200" on="0"/>
        <pt x="251" y="-168" on="0"/>
        <pt x="203" y="-168" on="1"/>
        <pt x="200" y="-168" on="0"/>
        <pt x="178" y="-170" on="0"/>
        <pt x="166" y="-171" on="1"/>
        <pt x="134" y="-173" on="1"/>
        <pt x="182" y="17" on="1"/>
        <pt x="279" y="17" on="1"/>
        <pt x="252" y="-90" on="1"/>
        <pt x="294" y="-91" on="0"/>
        <pt x="369" y="-108" on="0"/>
        <pt x="423" y="-144" on="0"/>
        <pt x="453" y="-199" on="0"/>
        <pt x="450" y="-239" on="1"/>
        <pt x="446" y="-279" on="0"/>
        <pt x="405" y="-338" on="0"/>
        <pt x="337" y="-377" on="0"/>
        <pt x="247" y="-396" on="0"/>
        <pt x="196" y="-396" on="1"/>
        <pt x="157" y="-396" on="0"/>
        <pt x="68" y="-383" on="0"/>
        <pt x="23" y="-374" on="1"/>
      </contour>
    </TTGlyph>
    <TTGlyph name="cent" xMin="210" yMin="-255" xMax="1106" yMax="1261">
      <contour>
        <pt x="1022" y="801" on="1"/>
        <pt x="990" y="846" on="0"/>
        <pt x="895" y="900" on="0"/>
        <pt x="839" y="911" on="1"/>
        <pt x="726" y="109" on="1"/>
        <pt x="880" y="116" on="0"/>
        <pt x="1014" y="225" on="1"/>
        <pt x="1049" y="87" on="1"/>
        <pt x="976" y="33" on="0"/>
        <pt x="808" y="-19" on="0"/>
        <pt x="707" y="-22" on="1"/>
        <pt x="675" y="-255" on="1"/>
        <pt x="546" y="-255" on="1"/>
        <pt x="579" y="-15" on="1"/>
        <pt x="478" y="0" on="0"/>
        <pt x="331" y="93" on="0"/>
        <pt x="240" y="231" on="0"/>
        <pt x="202" y="406" on="0"/>
        <pt x="210" y="503" on="1"/>
        <pt x="218" y="611" on="0"/>
        <pt x="296" y="805" on="0"/>
        <pt x="429" y="952" on="0"/>
        <pt x="614" y="1044" on="0"/>
        <pt x="729" y="1050" on="1"/>
        <pt x="758" y="1261" on="1"/>
        <pt x="888" y="1261" on="1"/>
        <pt x="857" y="1044" on="1"/>
        <pt x="943" y="1031" on="0"/>
        <pt x="1069" y="961" on="0"/>
        <pt x="1106" y="908" on="1"/>
      </contour>
      <contour>
        <pt x="383" y="508" on="1"/>
        <pt x="377" y="437" on="0"/>
        <pt x="397" y="310" on="0"/>
        <pt x="449" y="209" on="0"/>
        <pt x="537" y="138" on="0"/>
        <pt x="599" y="122" on="1"/>
        <pt x="709" y="912" on="1"/>
        <pt x="639" y="901" on="0"/>
        <pt x="523" y="830" on="0"/>
        <pt x="440" y="722" on="0"/>
        <pt x="389" y="585" on="0"/>
      </contour>
    </TTGlyph>
    <TTGlyph name="circumflex" xMin="127" yMin="1170" xMax="741" yMax="1494">
      <contour>
        <pt x="127" y="1170" on="1"/>
        <pt x="380" y="1494" on="1"/>
        <pt x="537" y="1494" on="1"/>
        <pt x="741" y="1170" on="1"/>
        <pt x="609" y="1170" on="1"/>
        <pt x="448" y="1386" on="1"/>
        <pt x="253" y="1170" on="1"/>
      </contour>
    </TTGlyph>
    <TTGlyph name="colon" xMin="158" yMin="-11" xMax="459" yMax="1051">
      <contour>
        <pt x="442" y="841" on="1"/>
        <pt x="225" y="841" on="1"/>
        <pt x="242" y="1051" on="1"/>
        <pt x="459" y="1051" on="1"/>
      </contour>
      <contour>
        <pt x="375" y="-11" on="1"/>
        <pt x="158" y="-11" on="1"/>
        <pt x="175" y="199" on="1"/>
        <pt x="392" y="199" on="1"/>
      </contour>
    </TTGlyph>
    <TTGlyph name="comma" xMin="58" yMin="-256" xMax="388" yMax="207">
      <contour>
        <pt x="201" y="207" on="1"/>
        <pt x="388" y="207" on="1"/>
        <pt x="189" y="-256" on="1"/>
        <pt x="58" y="-256" on="1"/>
      </contour>
    </TTGlyph>
    <TTGlyph name="copyright" xMin="160" yMin="-32" xMax="1774" yMax="1483">
      <contour>
        <pt x="1276" y="339" on="1"/>
        <pt x="1140" y="249" on="0"/>
        <pt x="960" y="249" on="1"/>
        <pt x="855" y="249" on="0"/>
        <pt x="684" y="324" on="0"/>
        <pt x="567" y="454" on="0"/>
        <pt x="510" y="629" on="0"/>
        <pt x="517" y="729" on="1"/>
        <pt x="526" y="833" on="0"/>
        <pt x="609" y="1009" on="0"/>
        <pt x="748" y="1136" on="0"/>
        <pt x="935" y="1208" on="0"/>
        <pt x="1046" y="1208" on="1"/>
        <pt x="1218" y="1208" on="0"/>
        <pt x="1332" y="1105" on="1"/>
        <pt x="1292" y="985" on="1"/>
        <pt x="1189" y="1080" on="0"/>
        <pt x="1029" y="1080" on="1"/>
        <pt x="952" y="1080" on="0"/>
        <pt x="826" y="1026" on="0"/>
        <pt x="732" y="932" on="0"/>
        <pt x="676" y="805" on="0"/>
        <pt x="671" y="733" on="1"/>
        <pt x="665" y="659" on="0"/>
        <pt x="701" y="531" on="0"/>
        <pt x="783" y="435" on="0"/>
        <pt x="913" y="380" on="0"/>
        <pt x="1002" y="380" on="1"/>
        <pt x="1068" y="380" on="0"/>
        <pt x="1192" y="418" on="0"/>
        <pt x="1246" y="460" on="1"/>
      </contour>
      <contour>
        <pt x="287" y="727" on="1"/>
        <pt x="280" y="636" on="0"/>
        <pt x="314" y="471" on="0"/>
        <pt x="391" y="328" on="0"/>
        <pt x="505" y="212" on="0"/>
        <pt x="650" y="130" on="0"/>
        <pt x="823" y="85" on="0"/>
        <pt x="920" y="85" on="1"/>
        <pt x="1064" y="85" on="0"/>
        <pt x="1319" y="184" on="0"/>
        <pt x="1514" y="356" on="0"/>
        <pt x="1636" y="589" on="0"/>
        <pt x="1647" y="724" on="1"/>
        <pt x="1654" y="815" on="0"/>
        <pt x="1620" y="980" on="0"/>
        <pt x="1543" y="1123" on="0"/>
        <pt x="1430" y="1239" on="0"/>
        <pt x="1285" y="1321" on="0"/>
        <pt x="1113" y="1366" on="0"/>
        <pt x="1017" y="1366" on="1"/>
        <pt x="874" y="1366" on="0"/>
        <pt x="618" y="1268" on="0"/>
        <pt x="421" y="1096" on="0"/>
        <pt x="298" y="862" on="0"/>
      </contour>
      <contour>
        <pt x="912" y="-32" on="1"/>
        <pt x="800" y="-32" on="0"/>
        <pt x="596" y="23" on="0"/>
        <pt x="424" y="122" on="0"/>
        <pt x="287" y="261" on="0"/>
        <pt x="195" y="429" on="0"/>
        <pt x="152" y="622" on="0"/>
        <pt x="160" y="726" on="1"/>
        <pt x="168" y="830" on="0"/>
        <pt x="241" y="1022" on="0"/>
        <pt x="361" y="1190" on="0"/>
        <pt x="520" y="1329" on="0"/>
        <pt x="706" y="1428" on="0"/>
        <pt x="915" y="1483" on="0"/>
        <pt x="1025" y="1483" on="1"/>
        <pt x="1137" y="1483" on="0"/>
        <pt x="1339" y="1428" on="0"/>
        <pt x="1511" y="1328" on="0"/>
        <pt x="1648" y="1189" on="0"/>
        <pt x="1739" y="1020" on="0"/>
        <pt x="1782" y="828" on="0"/>
        <pt x="1774" y="725" on="1"/>
        <pt x="1766" y="621" on="0"/>
        <pt x="1693" y="429" on="0"/>
        <pt x="1575" y="261" on="0"/>
        <pt x="1417" y="122" on="0"/>
        <pt x="1231" y="23" on="0"/>
        <pt x="1022" y="-32" on="0"/>
      </contour>
    </TTGlyph>
    <TTGlyph name="currency" xMin="240" yMin="40" xMax="990" yMax="1301">
      <contour>
        <pt x="649" y="1051" on="1"/>
        <pt x="712" y="1051" on="0"/>
        <pt x="772" y="1034" on="1"/>
        <pt x="895" y="1301" on="1"/>
        <pt x="936" y="1285" on="1"/>
        <pt x="812" y="1018" on="1"/>
        <pt x="913" y="970" on="0"/>
        <pt x="1000" y="784" on="0"/>
        <pt x="990" y="663" on="1"/>
        <pt x="986" y="613" on="0"/>
        <pt x="958" y="517" on="0"/>
        <pt x="911" y="432" on="0"/>
        <pt x="846" y="361" on="0"/>
        <pt x="806" y="336" on="1"/>
        <pt x="935" y="56" on="1"/>
        <pt x="899" y="40" on="1"/>
        <pt x="772" y="316" on="1"/>
        <pt x="728" y="296" on="0"/>
        <pt x="636" y="274" on="0"/>
        <pt x="582" y="274" on="1"/>
        <pt x="518" y="274" on="0"/>
        <pt x="473" y="287" on="1"/>
        <pt x="357" y="40" on="1"/>
        <pt x="321" y="56" on="1"/>
        <pt x="434" y="301" on="1"/>
        <pt x="381" y="322" on="0"/>
        <pt x="304" y="393" on="0"/>
        <pt x="255" y="486" on="0"/>
        <pt x="235" y="597" on="0"/>
        <pt x="240" y="659" on="1"/>
        <pt x="244" y="715" on="0"/>
        <pt x="277" y="820" on="0"/>
        <pt x="330" y="910" on="0"/>
        <pt x="404" y="982" on="0"/>
        <pt x="451" y="1006" on="1"/>
        <pt x="322" y="1285" on="1"/>
        <pt x="363" y="1301" on="1"/>
        <pt x="492" y="1023" on="1"/>
        <pt x="559" y="1051" on="0"/>
      </contour>
      <contour>
        <pt x="896" y="660" on="1"/>
        <pt x="901" y="724" on="0"/>
        <pt x="876" y="840" on="0"/>
        <pt x="814" y="928" on="0"/>
        <pt x="711" y="979" on="0"/>
        <pt x="638" y="979" on="1"/>
        <pt x="569" y="979" on="0"/>
        <pt x="460" y="926" on="0"/>
        <pt x="383" y="838" on="0"/>
        <pt x="338" y="723" on="0"/>
        <pt x="333" y="660" on="1"/>
        <pt x="328" y="597" on="0"/>
        <pt x="355" y="483" on="0"/>
        <pt x="419" y="396" on="0"/>
        <pt x="521" y="345" on="0"/>
        <pt x="592" y="345" on="1"/>
        <pt x="662" y="345" on="0"/>
        <pt x="770" y="397" on="0"/>
        <pt x="847" y="484" on="0"/>
        <pt x="891" y="598" on="0"/>
      </contour>
    </TTGlyph>
    <TTGlyph name="d" xMin="133" yMin="-23" xMax="1193" yMax="1492">
      <contour>
        <pt x="915" y="0" on="1"/>
        <pt x="922" y="147" on="1"/>
        <pt x="850" y="55" on="0"/>
        <pt x="673" y="-23" on="0"/>
        <pt x="555" y="-23" on="1"/>
        <pt x="436" y="-23" on="0"/>
        <pt x="267" y="60" on="0"/>
        <pt x="165" y="204" on="0"/>
        <pt x="124" y="397" on="0"/>
        <pt x="133" y="506" on="1"/>
        <pt x="141" y="614" on="0"/>
        <pt x="216" y="811" on="0"/>
        <pt x="346" y="962" on="0"/>
        <pt x="530" y="1051" on="0"/>
        <pt x="647" y="1051" on="1"/>
        <pt x="758" y="1051" on="0"/>
        <pt x="929" y="967" on="0"/>
        <pt x="981" y="888" on="1"/>
        <pt x="1028" y="1492" on="1"/>
        <pt x="1193" y="1492" on="1"/>
        <pt x="1096" y="256" on="1"/>
        <pt x="1092" y="196" on="0"/>
        <pt x="1084" y="58" on="0"/>
        <pt x="1082" y="0" on="1"/>
      </contour>
      <contour>
        <pt x="591" y="109" on="1"/>
        <pt x="672" y="109" on="0"/>
        <pt x="800" y="172" on="0"/>
        <pt x="892" y="287" on="0"/>
        <pt x="947" y="449" on="0"/>
        <pt x="955" y="548" on="1"/>
        <pt x="961" y="631" on="0"/>
        <pt x="927" y="767" on="0"/>
        <pt x="851" y="864" on="0"/>
        <pt x="737" y="917" on="0"/>
        <pt x="664" y="917" on="1"/>
        <pt x="579" y="917" on="0"/>
        <pt x="451" y="851" on="0"/>
        <pt x="362" y="739" on="0"/>
        <pt x="312" y="590" on="0"/>
        <pt x="306" y="507" on="1"/>
        <pt x="300" y="429" on="0"/>
        <pt x="321" y="285" on="0"/>
        <pt x="388" y="175" on="0"/>
        <pt x="503" y="109" on="0"/>
      </contour>
    </TTGlyph>
    <TTGlyph name="dagger" xMin="181" yMin="113" xMax="1003" yMax="1451">
      <contour>
        <pt x="507" y="934" on="1"/>
        <pt x="181" y="934" on="1"/>
        <pt x="191" y="1066" on="1"/>
        <pt x="517" y="1066" on="1"/>
        <pt x="548" y="1451" on="1"/>
        <pt x="690" y="1451" on="1"/>
        <pt x="659" y="1066" on="1"/>
        <pt x="1003" y="1066" on="1"/>
        <pt x="993" y="934" on="1"/>
        <pt x="635" y="934" on="1"/>
        <pt x="570" y="113" on="1"/>
        <pt x="442" y="113" on="1"/>
      </contour>
    </TTGlyph>
    <TTGlyph name="daggerdbl" xMin="132" yMin="113" xMax="1004" yMax="1451">
      <contour>
        <pt x="519" y="983" on="1"/>
        <pt x="181" y="983" on="1"/>
        <pt x="192" y="1115" on="1"/>
        <pt x="536" y="1115" on="1"/>
        <pt x="536" y="1451" on="1"/>
        <pt x="707" y="1451" on="1"/>
        <pt x="660" y="1115" on="1"/>
        <pt x="1004" y="1115" on="1"/>
        <pt x="993" y="983" on="1"/>
        <pt x="642" y="983" on="1"/>
        <pt x="609" y="562" on="1"/>
        <pt x="953" y="562" on="1"/>
        <pt x="943" y="435" on="1"/>
        <pt x="599" y="435" on="1"/>
        <pt x="600" y="113" on="1"/>
        <pt x="429" y="113" on="1"/>
        <pt x="476" y="435" on="1"/>
        <pt x="132" y="435" on="1"/>
        <pt x="142" y="562" on="1"/>
        <pt x="486" y="562" on="1"/>
      </contour>
    </TTGlyph>
    <TTGlyph name="degree" xMin="186" yMin="855" xMax="824" yMax="1444">
      <contour>
        <pt x="519" y="1328" on="1"/>
        <pt x="480" y="1328" on="0"/>
        <pt x="407" y="1301" on="0"/>
        <pt x="350" y="1254" on="0"/>
        <pt x="314" y="1189" on="0"/>
        <pt x="311" y="1151" on="1"/>
        <pt x="308" y="1113" on="0"/>
        <pt x="333" y="1047" on="0"/>
        <pt x="382" y="999" on="0"/>
        <pt x="450" y="971" on="0"/>
        <pt x="491" y="971" on="1"/>
        <pt x="531" y="971" on="0"/>
        <pt x="604" y="999" on="0"/>
        <pt x="661" y="1047" on="0"/>
        <pt x="696" y="1113" on="0"/>
        <pt x="699" y="1151" on="1"/>
        <pt x="702" y="1189" on="0"/>
        <pt x="676" y="1254" on="0"/>
        <pt x="627" y="1301" on="0"/>
        <pt x="558" y="1328" on="0"/>
      </contour>
      <contour>
        <pt x="482" y="855" on="1"/>
        <pt x="417" y="855" on="0"/>
        <pt x="305" y="902" on="0"/>
        <pt x="224" y="982" on="0"/>
        <pt x="181" y="1089" on="0"/>
        <pt x="186" y="1150" on="1"/>
        <pt x="191" y="1211" on="0"/>
        <pt x="250" y="1318" on="0"/>
        <pt x="343" y="1398" on="0"/>
        <pt x="463" y="1444" on="0"/>
        <pt x="528" y="1444" on="1"/>
        <pt x="593" y="1444" on="0"/>
        <pt x="705" y="1398" on="0"/>
        <pt x="786" y="1318" on="0"/>
        <pt x="829" y="1211" on="0"/>
        <pt x="824" y="1150" on="1"/>
        <pt x="819" y="1089" on="0"/>
        <pt x="760" y="982" on="0"/>
        <pt x="665" y="902" on="0"/>
        <pt x="546" y="855" on="0"/>
      </contour>
    </TTGlyph>
    <TTGlyph name="dieresis" xMin="220" yMin="1246" xMax="729" yMax="1409">
      <contour>
        <pt x="383" y="1246" on="1"/>
        <pt x="220" y="1246" on="1"/>
        <pt x="233" y="1409" on="1"/>
        <pt x="397" y="1409" on="1"/>
      </contour>
      <contour>
        <pt x="716" y="1246" on="1"/>
        <pt x="552" y="1246" on="1"/>
        <pt x="565" y="1409" on="1"/>
        <pt x="729" y="1409" on="1"/>
      </contour>
    </TTGlyph>
    <TTGlyph name="divide" xMin="238" yMin="21" xMax="1294" yMax="1083">
      <contour>
        <pt x="238" y="485" on="1"/>
        <pt x="247" y="624" on="1"/>
        <pt x="1294" y="624" on="1"/>
        <pt x="1284" y="485" on="1"/>
      </contour>
      <contour>
        <pt x="905" y="873" on="1"/>
        <pt x="688" y="873" on="1"/>
        <pt x="704" y="1083" on="1"/>
        <pt x="921" y="1083" on="1"/>
      </contour>
      <contour>
        <pt x="837" y="21" on="1"/>
        <pt x="620" y="21" on="1"/>
        <pt x="637" y="231" on="1"/>
        <pt x="854" y="231" on="1"/>
      </contour>
    </TTGlyph>
    <TTGlyph name="dollar" xMin="209" yMin="-172" xMax="1108" yMax="1575">
      <contour>
        <pt x="636" y="1293" on="1"/>
        <pt x="588" y="1287" on="0"/>
        <pt x="509" y="1247" on="0"/>
        <pt x="449" y="1186" on="0"/>
        <pt x="413" y="1105" on="0"/>
        <pt x="409" y="1059" on="1"/>
        <pt x="405" y="1008" on="0"/>
        <pt x="430" y="933" on="0"/>
        <pt x="481" y="877" on="0"/>
        <pt x="553" y="835" on="0"/>
        <pt x="596" y="818" on="1"/>
      </contour>
      <contour>
        <pt x="269" y="223" on="1"/>
        <pt x="329" y="180" on="0"/>
        <pt x="470" y="130" on="0"/>
        <pt x="541" y="127" on="1"/>
        <pt x="585" y="648" on="1"/>
        <pt x="507" y="684" on="0"/>
        <pt x="368" y="755" on="0"/>
        <pt x="267" y="844" on="0"/>
        <pt x="213" y="963" on="0"/>
        <pt x="219" y="1047" on="1"/>
        <pt x="226" y="1126" on="0"/>
        <pt x="303" y="1263" on="0"/>
        <pt x="422" y="1367" on="0"/>
        <pt x="570" y="1431" on="0"/>
        <pt x="647" y="1437" on="1"/>
        <pt x="654" y="1575" on="1"/>
        <pt x="778" y="1575" on="1"/>
        <pt x="770" y="1439" on="1"/>
        <pt x="870" y="1437" on="0"/>
        <pt x="1042" y="1380" on="0"/>
        <pt x="1101" y="1326" on="1"/>
        <pt x="1042" y="1198" on="1"/>
        <pt x="989" y="1249" on="0"/>
        <pt x="845" y="1296" on="0"/>
        <pt x="760" y="1299" on="1"/>
        <pt x="717" y="770" on="1"/>
        <pt x="818" y="729" on="0"/>
        <pt x="970" y="651" on="0"/>
        <pt x="1070" y="558" on="0"/>
        <pt x="1115" y="441" on="0"/>
        <pt x="1108" y="361" on="1"/>
        <pt x="1102" y="278" on="0"/>
        <pt x="1023" y="146" on="0"/>
        <pt x="900" y="52" on="0"/>
        <pt x="742" y="-4" on="0"/>
        <pt x="655" y="-11" on="1"/>
        <pt x="645" y="-172" on="1"/>
        <pt x="522" y="-172" on="1"/>
        <pt x="531" y="-16" on="1"/>
        <pt x="440" y="-14" on="0"/>
        <pt x="280" y="35" on="0"/>
        <pt x="209" y="89" on="1"/>
      </contour>
      <contour>
        <pt x="664" y="131" on="1"/>
        <pt x="715" y="138" on="0"/>
        <pt x="808" y="174" on="0"/>
        <pt x="879" y="231" on="0"/>
        <pt x="925" y="309" on="0"/>
        <pt x="929" y="358" on="1"/>
        <pt x="933" y="405" on="0"/>
        <pt x="903" y="477" on="0"/>
        <pt x="842" y="535" on="0"/>
        <pt x="757" y="583" on="0"/>
        <pt x="706" y="605" on="1"/>
      </contour>
    </TTGlyph>
    <TTGlyph name="dotaccent" xMin="284" yMin="1246" xMax="452" yMax="1409">
      <contour>
        <pt x="284" y="1246" on="1"/>
        <pt x="295" y="1409" on="1"/>
        <pt x="452" y="1409" on="1"/>
        <pt x="442" y="1246" on="1"/>
      </contour>
    </TTGlyph>
    <TTGlyph name="dotlessi" xMin="168" yMin="0" xMax="413" yMax="1026">
      <contour>
        <pt x="333" y="0" on="1"/>
        <pt x="168" y="0" on="1"/>
        <pt x="248" y="1026" on="1"/>
        <pt x="413" y="1026" on="1"/>
      </contour>
    </TTGlyph>
    <TTGlyph name="e" xMin="155" yMin="-23" xMax="1122" yMax="1051">
      <contour>
        <pt x="954" y="609" on="1"/>
        <pt x="954" y="623" on="1"/>
        <pt x="954" y="688" on="0"/>
        <pt x="922" y="796" on="0"/>
        <pt x="856" y="874" on="0"/>
        <pt x="756" y="917" on="0"/>
        <pt x="691" y="917" on="1"/>
        <pt x="621" y="917" on="0"/>
        <pt x="505" y="868" on="0"/>
        <pt x="418" y="784" on="0"/>
        <pt x="359" y="672" on="0"/>
        <pt x="345" y="609" on="1"/>
      </contour>
      <contour>
        <pt x="1048" y="115" on="1"/>
        <pt x="959" y="43" on="0"/>
        <pt x="752" y="-23" on="0"/>
        <pt x="624" y="-23" on="1"/>
        <pt x="503" y="-23" on="0"/>
        <pt x="319" y="56" on="0"/>
        <pt x="200" y="197" on="0"/>
        <pt x="146" y="393" on="0"/>
        <pt x="155" y="510" on="1"/>
        <pt x="164" y="621" on="0"/>
        <pt x="247" y="817" on="0"/>
        <pt x="389" y="965" on="0"/>
        <pt x="583" y="1051" on="0"/>
        <pt x="703" y="1051" on="1"/>
        <pt x="821" y="1051" on="0"/>
        <pt x="989" y="974" on="0"/>
        <pt x="1090" y="839" on="0"/>
        <pt x="1130" y="653" on="0"/>
        <pt x="1122" y="544" on="1"/>
        <pt x="1121" y="533" on="0"/>
        <pt x="1118" y="504" on="0"/>
        <pt x="1116" y="492" on="1"/>
        <pt x="329" y="492" on="1"/>
        <pt x="328" y="447" on="1"/>
        <pt x="328" y="372" on="0"/>
        <pt x="368" y="248" on="0"/>
        <pt x="447" y="158" on="0"/>
        <pt x="566" y="109" on="0"/>
        <pt x="645" y="109" on="1"/>
        <pt x="751" y="109" on="0"/>
        <pt x="932" y="183" on="0"/>
        <pt x="1008" y="252" on="1"/>
      </contour>
    </TTGlyph>
    <TTGlyph name="eacute" xMin="155" yMin="-23" xMax="1122" yMax="1492">
      <component glyphName="e" x="0" y="0" flags="0x1204"/>
      <component glyphName="acute" x="192" y="0" flags="0x1004"/>
    </TTGlyph>
    <TTGlyph name="ecircumflex" xMin="155" yMin="-23" xMax="1122" yMax="1494">
      <component glyphName="e" x="0" y="0" flags="0x1204"/>
      <component glyphName="circumflex" x="244" y="0" flags="0x1004"/>
    </TTGlyph>
    <TTGlyph name="edieresis" xMin="155" yMin="-23" xMax="1122" yMax="1409">
      <component glyphName="e" x="0" y="0" flags="0x1204"/>
      <component glyphName="dieresis" x="216" y="0" flags="0x1004"/>
    </TTGlyph>
    <TTGlyph name="egrave" xMin="155" yMin="-23" xMax="1122" yMax="1492">
      <component glyphName="e" x="0" y="0" flags="0x1204"/>
      <component glyphName="grave" x="355" y="0" flags="0x1004"/>
    </TTGlyph>
    <TTGlyph name="eight" xMin="121" yMin="-23" xMax="1131" yMax="1453">
      <contour>
        <pt x="701" y="1453" on="1"/>
        <pt x="797" y="1453" on="0"/>
        <pt x="960" y="1404" on="0"/>
        <pt x="1077" y="1311" on="0"/>
        <pt x="1138" y="1176" on="0"/>
        <pt x="1131" y="1091" on="1"/>
        <pt x="1121" y="964" on="0"/>
        <pt x="960" y="789" on="0"/>
        <pt x="823" y="747" on="1"/>
        <pt x="974" y="701" on="0"/>
        <pt x="1120" y="504" on="0"/>
        <pt x="1109" y="367" on="1"/>
        <pt x="1102" y="273" on="0"/>
        <pt x="1010" y="127" on="0"/>
        <pt x="865" y="28" on="0"/>
        <pt x="682" y="-23" on="0"/>
        <pt x="585" y="-23" on="1"/>
        <pt x="487" y="-23" on="0"/>
        <pt x="313" y="28" on="0"/>
        <pt x="184" y="127" on="0"/>
        <pt x="114" y="273" on="0"/>
        <pt x="121" y="367" on="1"/>
        <pt x="132" y="504" on="0"/>
        <pt x="310" y="701" on="0"/>
        <pt x="467" y="747" on="1"/>
        <pt x="338" y="789" on="0"/>
        <pt x="203" y="964" on="0"/>
        <pt x="213" y="1091" on="1"/>
        <pt x="220" y="1176" on="0"/>
        <pt x="303" y="1311" on="0"/>
        <pt x="434" y="1404" on="0"/>
        <pt x="605" y="1453" on="0"/>
      </contour>
      <contour>
        <pt x="596" y="119" on="1"/>
        <pt x="665" y="119" on="0"/>
        <pt x="785" y="153" on="0"/>
        <pt x="874" y="219" on="0"/>
        <pt x="928" y="316" on="0"/>
        <pt x="933" y="380" on="1"/>
        <pt x="938" y="440" on="0"/>
        <pt x="899" y="537" on="0"/>
        <pt x="821" y="610" on="0"/>
        <pt x="707" y="659" on="0"/>
        <pt x="639" y="673" on="1"/>
        <pt x="569" y="659" on="0"/>
        <pt x="449" y="610" on="0"/>
        <pt x="359" y="537" on="0"/>
        <pt x="304" y="440" on="0"/>
        <pt x="299" y="380" on="1"/>
        <pt x="294" y="316" on="0"/>
        <pt x="334" y="219" on="0"/>
        <pt x="413" y="153" on="0"/>
        <pt x="527" y="119" on="0"/>
      </contour>
      <contour>
        <pt x="690" y="1317" on="1"/>
        <pt x="632" y="1317" on="0"/>
        <pt x="526" y="1287" on="0"/>
        <pt x="442" y="1228" on="0"/>
        <pt x="389" y="1142" on="0"/>
        <pt x="385" y="1086" on="1"/>
        <pt x="376" y="977" on="0"/>
        <pt x="515" y="846" on="0"/>
        <pt x="651" y="820" on="1"/>
        <pt x="791" y="846" on="0"/>
        <pt x="950" y="977" on="0"/>
        <pt x="959" y="1086" on="1"/>
        <pt x="963" y="1142" on="0"/>
        <pt x="924" y="1228" on="0"/>
        <pt x="850" y="1287" on="0"/>
        <pt x="748" y="1317" on="0"/>
      </contour>
    </TTGlyph>
    <TTGlyph name="ellipsis" xMin="158" yMin="-11" xMax="1472" yMax="199">
      <contour>
        <pt x="375" y="-11" on="1"/>
        <pt x="158" y="-11" on="1"/>
        <pt x="175" y="199" on="1"/>
        <pt x="392" y="199" on="1"/>
      </contour>
      <contour>
        <pt x="915" y="-11" on="1"/>
        <pt x="698" y="-11" on="1"/>
        <pt x="715" y="199" on="1"/>
        <pt x="932" y="199" on="1"/>
      </contour>
      <contour>
        <pt x="1455" y="-11" on="1"/>
        <pt x="1238" y="-11" on="1"/>
        <pt x="1255" y="199" on="1"/>
        <pt x="1472" y="199" on="1"/>
      </contour>
    </TTGlyph>
    <TTGlyph name="emdash" xMin="35" yMin="489" xMax="2209" yMax="626">
      <contour>
        <pt x="2198" y="489" on="1"/>
        <pt x="35" y="489" on="1"/>
        <pt x="46" y="626" on="1"/>
        <pt x="2209" y="626" on="1"/>
      </contour>
    </TTGlyph>
    <TTGlyph name="endash" xMin="32" yMin="489" xMax="1133" yMax="626">
      <contour>
        <pt x="1122" y="489" on="1"/>
        <pt x="32" y="489" on="1"/>
        <pt x="43" y="626" on="1"/>
        <pt x="1133" y="626" on="1"/>
      </contour>
    </TTGlyph>
    <TTGlyph name="equal" xMin="220" yMin="283" xMax="1311" yMax="827">
      <contour>
        <pt x="1280" y="420" on="1"/>
        <pt x="1269" y="283" on="1"/>
        <pt x="220" y="283" on="1"/>
        <pt x="231" y="420" on="1"/>
      </contour>
      <contour>
        <pt x="1311" y="827" on="1"/>
        <pt x="1300" y="689" on="1"/>
        <pt x="251" y="689" on="1"/>
        <pt x="262" y="827" on="1"/>
      </contour>
    </TTGlyph>
    <TTGlyph name="eth" xMin="123" yMin="-23" xMax="1281" yMax="1490">
      <contour>
        <pt x="770" y="1490" on="1"/>
        <pt x="879" y="1446" on="0"/>
        <pt x="1036" y="1280" on="0"/>
        <pt x="1084" y="1163" on="1"/>
        <pt x="1281" y="1163" on="1"/>
        <pt x="1270" y="1026" on="1"/>
        <pt x="1125" y="1026" on="1"/>
        <pt x="1142" y="946" on="0"/>
        <pt x="1153" y="769" on="0"/>
        <pt x="1146" y="672" on="1"/>
        <pt x="1132" y="504" on="0"/>
        <pt x="1044" y="245" on="0"/>
        <pt x="899" y="68" on="0"/>
        <pt x="701" y="-23" on="0"/>
        <pt x="579" y="-23" on="1"/>
        <pt x="466" y="-23" on="0"/>
        <pt x="289" y="49" on="0"/>
        <pt x="170" y="175" on="0"/>
        <pt x="115" y="347" on="0"/>
        <pt x="123" y="446" on="1"/>
        <pt x="131" y="545" on="0"/>
        <pt x="208" y="711" on="0"/>
        <pt x="336" y="830" on="0"/>
        <pt x="510" y="897" on="0"/>
        <pt x="615" y="897" on="1"/>
        <pt x="740" y="897" on="0"/>
        <pt x="925" y="813" on="0"/>
        <pt x="975" y="723" on="1"/>
        <pt x="975" y="725" on="1"/>
        <pt x="988" y="897" on="0"/>
        <pt x="962" y="1026" on="1"/>
        <pt x="700" y="1026" on="1"/>
        <pt x="711" y="1163" on="1"/>
        <pt x="917" y="1163" on="1"/>
        <pt x="880" y="1241" on="0"/>
        <pt x="766" y="1359" on="0"/>
        <pt x="684" y="1406" on="1"/>
      </contour>
      <contour>
        <pt x="631" y="757" on="1"/>
        <pt x="552" y="757" on="0"/>
        <pt x="432" y="709" on="0"/>
        <pt x="350" y="624" on="0"/>
        <pt x="304" y="508" on="0"/>
        <pt x="298" y="441" on="1"/>
        <pt x="293" y="372" on="0"/>
        <pt x="328" y="254" on="0"/>
        <pt x="402" y="167" on="0"/>
        <pt x="512" y="118" on="0"/>
        <pt x="582" y="118" on="1"/>
        <pt x="669" y="118" on="0"/>
        <pt x="799" y="185" on="0"/>
        <pt x="888" y="294" on="0"/>
        <pt x="936" y="431" on="0"/>
        <pt x="941" y="501" on="1"/>
        <pt x="942" y="509" on="0"/>
        <pt x="943" y="529" on="0"/>
        <pt x="945" y="536" on="1"/>
        <pt x="932" y="585" on="0"/>
        <pt x="875" y="666" on="0"/>
        <pt x="794" y="725" on="0"/>
        <pt x="691" y="757" on="0"/>
      </contour>
    </TTGlyph>
    <TTGlyph name="exclam" xMin="258" yMin="-23" xMax="580" yMax="1451">
      <contour>
        <pt x="274" y="183" on="1"/>
        <pt x="488" y="183" on="1"/>
        <pt x="472" y="-23" on="1"/>
        <pt x="258" y="-23" on="1"/>
      </contour>
      <contour>
        <pt x="455" y="373" on="1"/>
        <pt x="340" y="373" on="1"/>
        <pt x="385" y="1451" on="1"/>
        <pt x="580" y="1451" on="1"/>
      </contour>
    </TTGlyph>
    <TTGlyph name="exclamdown" xMin="241" yMin="-384" xMax="560" yMax="1090">
      <contour>
        <pt x="346" y="1090" on="1"/>
        <pt x="560" y="1090" on="1"/>
        <pt x="544" y="884" on="1"/>
        <pt x="330" y="884" on="1"/>
      </contour>
      <contour>
        <pt x="436" y="-384" on="1"/>
        <pt x="241" y="-384" on="1"/>
        <pt x="366" y="694" on="1"/>
        <pt x="481" y="694" on="1"/>
      </contour>
    </TTGlyph>
    <TTGlyph name="f" xMin="118" yMin="0" xMax="798" yMax="1514">
      <contour>
        <pt x="411" y="0" on="1"/>
        <pt x="246" y="0" on="1"/>
        <pt x="318" y="919" on="1"/>
        <pt x="118" y="919" on="1"/>
        <pt x="125" y="1026" on="1"/>
        <pt x="326" y="1026" on="1"/>
        <pt x="337" y="1138" on="1"/>
        <pt x="345" y="1219" on="0"/>
        <pt x="385" y="1357" on="0"/>
        <pt x="461" y="1457" on="0"/>
        <pt x="579" y="1514" on="0"/>
        <pt x="664" y="1514" on="1"/>
        <pt x="685" y="1514" on="0"/>
        <pt x="719" y="1511" on="0"/>
        <pt x="749" y="1505" on="0"/>
        <pt x="780" y="1497" on="0"/>
        <pt x="798" y="1493" on="1"/>
        <pt x="790" y="1364" on="1"/>
        <pt x="771" y="1372" on="0"/>
        <pt x="710" y="1379" on="0"/>
        <pt x="681" y="1379" on="1"/>
        <pt x="630" y="1379" on="0"/>
        <pt x="565" y="1351" on="0"/>
        <pt x="527" y="1296" on="0"/>
        <pt x="507" y="1215" on="0"/>
        <pt x="503" y="1162" on="1"/>
        <pt x="491" y="1026" on="1"/>
        <pt x="738" y="1026" on="1"/>
        <pt x="731" y="919" on="1"/>
        <pt x="483" y="919" on="1"/>
      </contour>
    </TTGlyph>
    <TTGlyph name="fi" xMin="118" yMin="0" xMax="1145" yMax="1514">
      <component glyphName="f" x="0" y="0" flags="0x1004"/>
      <component glyphName="i" x="702" y="0" flags="0x1004"/>
    </TTGlyph>
    <TTGlyph name="five" xMin="161" yMin="-23" xMax="1107" yMax="1425">
      <contour>
        <pt x="251" y="289" on="1"/>
        <pt x="304" y="202" on="0"/>
        <pt x="462" y="119" on="0"/>
        <pt x="556" y="119" on="1"/>
        <pt x="639" y="119" on="0"/>
        <pt x="772" y="172" on="0"/>
        <pt x="867" y="263" on="0"/>
        <pt x="922" y="384" on="0"/>
        <pt x="927" y="452" on="1"/>
        <pt x="932" y="516" on="0"/>
        <pt x="902" y="627" on="0"/>
        <pt x="833" y="710" on="0"/>
        <pt x="725" y="758" on="0"/>
        <pt x="653" y="758" on="1"/>
        <pt x="583" y="758" on="0"/>
        <pt x="467" y="706" on="0"/>
        <pt x="431" y="658" on="1"/>
        <pt x="255" y="652" on="1"/>
        <pt x="316" y="1425" on="1"/>
        <pt x="1107" y="1425" on="1"/>
        <pt x="1095" y="1280" on="1"/>
        <pt x="467" y="1280" on="1"/>
        <pt x="418" y="839" on="1"/>
        <pt x="478" y="872" on="0"/>
        <pt x="602" y="905" on="0"/>
        <pt x="671" y="905" on="1"/>
        <pt x="780" y="905" on="0"/>
        <pt x="948" y="836" on="0"/>
        <pt x="1060" y="714" on="0"/>
        <pt x="1111" y="547" on="0"/>
        <pt x="1104" y="449" on="1"/>
        <pt x="1096" y="349" on="0"/>
        <pt x="1010" y="177" on="0"/>
        <pt x="866" y="50" on="0"/>
        <pt x="668" y="-23" on="0"/>
        <pt x="547" y="-23" on="1"/>
        <pt x="487" y="-23" on="0"/>
        <pt x="372" y="0" on="0"/>
        <pt x="272" y="48" on="0"/>
        <pt x="190" y="122" on="0"/>
        <pt x="161" y="173" on="1"/>
      </contour>
    </TTGlyph>
    <TTGlyph name="fl" xMin="118" yMin="0" xMax="1152" yMax="1514">
      <component glyphName="f" x="0" y="0" flags="0x1004"/>
      <component glyphName="l" x="702" y="0" flags="0x1004"/>
    </TTGlyph>
    <TTGlyph name="florin" xMin="48" yMin="-332" xMax="1119" yMax="1436">
      <contour>
        <pt x="395" y="803" on="1"/>
        <pt x="416" y="943" on="1"/>
        <pt x="585" y="943" on="1"/>
        <pt x="595" y="999" on="0"/>
        <pt x="621" y="1116" on="0"/>
        <pt x="658" y="1225" on="0"/>
        <pt x="713" y="1322" on="0"/>
        <pt x="793" y="1394" on="0"/>
        <pt x="903" y="1436" on="0"/>
        <pt x="978" y="1436" on="1"/>
        <pt x="1011" y="1436" on="0"/>
        <pt x="1083" y="1426" on="0"/>
        <pt x="1119" y="1417" on="1"/>
        <pt x="1100" y="1272" on="1"/>
        <pt x="1071" y="1284" on="0"/>
        <pt x="1016" y="1294" on="0"/>
        <pt x="993" y="1294" on="1"/>
        <pt x="949" y="1294" on="0"/>
        <pt x="888" y="1273" on="0"/>
        <pt x="845" y="1234" on="0"/>
        <pt x="817" y="1176" on="0"/>
        <pt x="808" y="1139" on="1"/>
        <pt x="756" y="943" on="1"/>
        <pt x="956" y="943" on="1"/>
        <pt x="935" y="803" on="1"/>
        <pt x="722" y="803" on="1"/>
        <pt x="541" y="120" on="1"/>
        <pt x="517" y="31" on="0"/>
        <pt x="458" y="-133" on="0"/>
        <pt x="370" y="-258" on="0"/>
        <pt x="243" y="-332" on="0"/>
        <pt x="151" y="-332" on="1"/>
        <pt x="107" y="-332" on="0"/>
        <pt x="48" y="-316" on="1"/>
        <pt x="71" y="-178" on="1"/>
        <pt x="114" y="-194" on="0"/>
        <pt x="148" y="-194" on="1"/>
        <pt x="185" y="-194" on="0"/>
        <pt x="242" y="-162" on="0"/>
        <pt x="286" y="-107" on="0"/>
        <pt x="321" y="-34" on="0"/>
        <pt x="334" y="7" on="1"/>
        <pt x="366" y="103" on="0"/>
        <pt x="421" y="302" on="0"/>
        <pt x="472" y="503" on="0"/>
        <pt x="523" y="705" on="0"/>
        <pt x="550" y="803" on="1"/>
      </contour>
    </TTGlyph>
    <TTGlyph name="four" xMin="53" yMin="0" xMax="1150" yMax="1420">
      <contour>
        <pt x="726" y="0" on="1"/>
        <pt x="754" y="351" on="1"/>
        <pt x="53" y="351" on="1"/>
        <pt x="63" y="475" on="1"/>
        <pt x="802" y="1420" on="1"/>
        <pt x="1010" y="1420" on="1"/>
        <pt x="936" y="483" on="1"/>
        <pt x="1150" y="483" on="1"/>
        <pt x="1140" y="351" on="1"/>
        <pt x="926" y="351" on="1"/>
        <pt x="898" y="0" on="1"/>
      </contour>
      <contour>
        <pt x="764" y="483" on="1"/>
        <pt x="828" y="1292" on="1"/>
        <pt x="729" y="1146" on="1"/>
        <pt x="234" y="483" on="1"/>
      </contour>
    </TTGlyph>
    <TTGlyph name="foursuperior" xMin="41" yMin="615" xMax="660" yMax="1412">
      <contour>
        <pt x="404" y="615" on="1"/>
        <pt x="419" y="803" on="1"/>
        <pt x="41" y="803" on="1"/>
        <pt x="48" y="894" on="1"/>
        <pt x="455" y="1412" on="1"/>
        <pt x="589" y="1412" on="1"/>
        <pt x="549" y="910" on="1"/>
        <pt x="658" y="910" on="1"/>
        <pt x="660" y="803" on="1"/>
        <pt x="539" y="803" on="1"/>
        <pt x="524" y="615" on="1"/>
      </contour>
      <contour>
        <pt x="425" y="910" on="1"/>
        <pt x="440" y="1090" on="1"/>
        <pt x="455" y="1246" on="1"/>
        <pt x="188" y="910" on="1"/>
      </contour>
    </TTGlyph>
    <TTGlyph name="fraction" xMin="-337" yMin="0" xMax="830" yMax="1436">
      <contour>
        <pt x="830" y="1436" on="1"/>
        <pt x="-186" y="0" on="1"/>
        <pt x="-337" y="0" on="1"/>
        <pt x="681" y="1436" on="1"/>
      </contour>
    </TTGlyph>
    <TTGlyph name="g" xMin="131" yMin="-422" xMax="1164" yMax="1051">
      <contour>
        <pt x="186" y="-187" on="1"/>
        <pt x="261" y="-236" on="0"/>
        <pt x="432" y="-282" on="0"/>
        <pt x="516" y="-282" on="1"/>
        <pt x="604" y="-282" on="0"/>
        <pt x="746" y="-243" on="0"/>
        <pt x="848" y="-162" on="0"/>
        <pt x="909" y="-37" on="0"/>
        <pt x="916" y="49" on="1"/>
        <pt x="926" y="176" on="1"/>
        <pt x="859" y="88" on="0"/>
        <pt x="669" y="0" on="0"/>
        <pt x="560" y="0" on="1"/>
        <pt x="449" y="0" on="0"/>
        <pt x="281" y="74" on="0"/>
        <pt x="171" y="208" on="0"/>
        <pt x="122" y="396" on="0"/>
        <pt x="131" y="511" on="1"/>
        <pt x="140" y="620" on="0"/>
        <pt x="215" y="817" on="0"/>
        <pt x="347" y="964" on="0"/>
        <pt x="535" y="1051" on="0"/>
        <pt x="655" y="1051" on="1"/>
        <pt x="772" y="1051" on="0"/>
        <pt x="928" y="966" on="0"/>
        <pt x="981" y="885" on="1"/>
        <pt x="983" y="902" on="0"/>
        <pt x="989" y="951" on="0"/>
        <pt x="991" y="973" on="1"/>
        <pt x="994" y="999" on="0"/>
        <pt x="999" y="1026" on="1"/>
        <pt x="1164" y="1026" on="1"/>
        <pt x="1158" y="978" on="0"/>
        <pt x="1153" y="931" on="1"/>
        <pt x="1148" y="891" on="0"/>
        <pt x="1140" y="805" on="0"/>
        <pt x="1138" y="773" on="1"/>
        <pt x="1088" y="147" on="1"/>
        <pt x="1083" y="79" on="0"/>
        <pt x="1056" y="-58" on="0"/>
        <pt x="1004" y="-184" on="0"/>
        <pt x="922" y="-294" on="0"/>
        <pt x="798" y="-375" on="0"/>
        <pt x="629" y="-422" on="0"/>
        <pt x="517" y="-422" on="1"/>
        <pt x="417" y="-422" on="0"/>
        <pt x="235" y="-382" on="0"/>
        <pt x="155" y="-340" on="1"/>
      </contour>
      <contour>
        <pt x="955" y="550" on="1"/>
        <pt x="961" y="626" on="0"/>
        <pt x="928" y="760" on="0"/>
        <pt x="852" y="859" on="0"/>
        <pt x="739" y="917" on="0"/>
        <pt x="665" y="917" on="1"/>
        <pt x="584" y="917" on="0"/>
        <pt x="456" y="852" on="0"/>
        <pt x="364" y="741" on="0"/>
        <pt x="312" y="595" on="0"/>
        <pt x="305" y="515" on="1"/>
        <pt x="299" y="428" on="0"/>
        <pt x="321" y="288" on="0"/>
        <pt x="390" y="189" on="0"/>
        <pt x="509" y="135" on="0"/>
        <pt x="600" y="135" on="1"/>
        <pt x="690" y="135" on="0"/>
        <pt x="820" y="206" on="0"/>
        <pt x="904" y="322" on="0"/>
        <pt x="949" y="471" on="0"/>
      </contour>
    </TTGlyph>
    <TTGlyph name="germandbls" xMin="176" yMin="-23" xMax="1200" yMax="1511">
      <contour>
        <pt x="555" y="243" on="1"/>
        <pt x="609" y="174" on="0"/>
        <pt x="737" y="109" on="0"/>
        <pt x="797" y="109" on="1"/>
        <pt x="837" y="109" on="0"/>
        <pt x="911" y="137" on="0"/>
        <pt x="969" y="191" on="0"/>
        <pt x="1007" y="271" on="0"/>
        <pt x="1011" y="322" on="1"/>
        <pt x="1017" y="398" on="0"/>
        <pt x="958" y="518" on="0"/>
        <pt x="856" y="617" on="0"/>
        <pt x="726" y="699" on="0"/>
        <pt x="663" y="737" on="1"/>
        <pt x="631" y="756" on="1"/>
        <pt x="658" y="892" on="1"/>
        <pt x="706" y="913" on="0"/>
        <pt x="796" y="973" on="0"/>
        <pt x="867" y="1050" on="0"/>
        <pt x="913" y="1140" on="0"/>
        <pt x="917" y="1191" on="1"/>
        <pt x="920" y="1236" on="0"/>
        <pt x="894" y="1306" on="0"/>
        <pt x="841" y="1356" on="0"/>
        <pt x="761" y="1382" on="0"/>
        <pt x="712" y="1382" on="1"/>
        <pt x="642" y="1382" on="0"/>
        <pt x="536" y="1327" on="0"/>
        <pt x="465" y="1234" on="0"/>
        <pt x="424" y="1108" on="0"/>
        <pt x="419" y="1038" on="1"/>
        <pt x="414" y="973" on="0"/>
        <pt x="401" y="805" on="0"/>
        <pt x="387" y="617" on="0"/>
        <pt x="373" y="420" on="0"/>
        <pt x="358" y="232" on="0"/>
        <pt x="346" y="64" on="0"/>
        <pt x="341" y="0" on="1"/>
        <pt x="176" y="0" on="1"/>
        <pt x="258" y="1071" on="1"/>
        <pt x="265" y="1171" on="0"/>
        <pt x="336" y="1333" on="0"/>
        <pt x="456" y="1448" on="0"/>
        <pt x="621" y="1511" on="0"/>
        <pt x="723" y="1511" on="1"/>
        <pt x="819" y="1511" on="0"/>
        <pt x="966" y="1461" on="0"/>
        <pt x="1064" y="1374" on="0"/>
        <pt x="1110" y="1258" on="0"/>
        <pt x="1105" y="1192" on="1"/>
        <pt x="1100" y="1125" on="0"/>
        <pt x="1026" y="1006" on="0"/>
        <pt x="927" y="909" on="0"/>
        <pt x="821" y="835" on="0"/>
        <pt x="783" y="813" on="1"/>
        <pt x="776" y="809" on="0"/>
        <pt x="775" y="806" on="1"/>
        <pt x="775" y="803" on="0"/>
        <pt x="782" y="800" on="1"/>
        <pt x="859" y="769" on="0"/>
        <pt x="1013" y="692" on="0"/>
        <pt x="1136" y="584" on="0"/>
        <pt x="1208" y="440" on="0"/>
        <pt x="1200" y="341" on="1"/>
        <pt x="1193" y="258" on="0"/>
        <pt x="1119" y="124" on="0"/>
        <pt x="1004" y="29" on="0"/>
        <pt x="863" y="-23" on="0"/>
        <pt x="790" y="-23" on="1"/>
        <pt x="704" y="-23" on="0"/>
        <pt x="541" y="54" on="0"/>
        <pt x="482" y="138" on="1"/>
      </contour>
    </TTGlyph>
    <TTGlyph name="grave" xMin="118" yMin="1172" xMax="554" yMax="1492">
      <contour>
        <pt x="118" y="1492" on="1"/>
        <pt x="332" y="1492" on="1"/>
        <pt x="554" y="1172" on="1"/>
        <pt x="425" y="1172" on="1"/>
      </contour>
    </TTGlyph>
    <TTGlyph name="greater" xMin="220" yMin="58" xMax="1272" yMax="1078">
      <contour>
        <pt x="1048" y="555" on="1"/>
        <pt x="293" y="926" on="1"/>
        <pt x="305" y="1078" on="1"/>
        <pt x="1272" y="594" on="1"/>
        <pt x="1265" y="505" on="1"/>
        <pt x="220" y="58" on="1"/>
        <pt x="232" y="212" on="1"/>
      </contour>
    </TTGlyph>
    <TTGlyph name="greaterequal" xMin="162" yMin="9" xMax="1211" yMax="1221">
      <contour>
        <pt x="1172" y="9" on="1"/>
        <pt x="162" y="9" on="1"/>
        <pt x="172" y="131" on="1"/>
        <pt x="1182" y="131" on="1"/>
      </contour>
      <contour>
        <pt x="292" y="1221" on="1"/>
        <pt x="1211" y="748" on="1"/>
        <pt x="1205" y="668" on="1"/>
        <pt x="209" y="218" on="1"/>
        <pt x="221" y="359" on="1"/>
        <pt x="1030" y="707" on="1"/>
        <pt x="281" y="1081" on="1"/>
      </contour>
    </TTGlyph>
    <TTGlyph name="guillemotleft" xMin="289" yMin="171" xMax="1121" yMax="914">
      <contour>
        <pt x="593" y="914" on="1"/>
        <pt x="753" y="914" on="1"/>
        <pt x="459" y="541" on="1"/>
        <pt x="686" y="171" on="1"/>
        <pt x="529" y="171" on="1"/>
        <pt x="289" y="541" on="1"/>
      </contour>
      <contour>
        <pt x="962" y="914" on="1"/>
        <pt x="1121" y="914" on="1"/>
        <pt x="829" y="541" on="1"/>
        <pt x="1056" y="171" on="1"/>
        <pt x="899" y="171" on="1"/>
        <pt x="659" y="541" on="1"/>
      </contour>
    </TTGlyph>
    <TTGlyph name="guillemotright" xMin="178" yMin="171" xMax="1038" yMax="914">
      <contour>
        <pt x="733" y="171" on="1"/>
        <pt x="576" y="171" on="1"/>
        <pt x="866" y="542" on="1"/>
        <pt x="641" y="914" on="1"/>
        <pt x="797" y="914" on="1"/>
        <pt x="1038" y="542" on="1"/>
      </contour>
      <contour>
        <pt x="338" y="171" on="1"/>
        <pt x="178" y="171" on="1"/>
        <pt x="472" y="542" on="1"/>
        <pt x="243" y="914" on="1"/>
        <pt x="401" y="914" on="1"/>
        <pt x="642" y="542" on="1"/>
      </contour>
    </TTGlyph>
    <TTGlyph name="guilsinglleft" xMin="148" yMin="171" xMax="610" yMax="914">
      <contour>
        <pt x="451" y="914" on="1"/>
        <pt x="610" y="914" on="1"/>
        <pt x="318" y="541" on="1"/>
        <pt x="544" y="171" on="1"/>
        <pt x="388" y="171" on="1"/>
        <pt x="148" y="541" on="1"/>
      </contour>
    </TTGlyph>
    <TTGlyph name="guilsinglright" xMin="116" yMin="171" xMax="579" yMax="914">
      <contour>
        <pt x="273" y="171" on="1"/>
        <pt x="116" y="171" on="1"/>
        <pt x="407" y="542" on="1"/>
        <pt x="182" y="914" on="1"/>
        <pt x="337" y="914" on="1"/>
        <pt x="579" y="542" on="1"/>
      </contour>
    </TTGlyph>
    <TTGlyph name="h" xMin="169" yMin="0" xMax="1104" yMax="1492">
      <contour>
        <pt x="451" y="1492" on="1"/>
        <pt x="404" y="890" on="1"/>
        <pt x="474" y="975" on="0"/>
        <pt x="648" y="1051" on="0"/>
        <pt x="762" y="1051" on="1"/>
        <pt x="874" y="1051" on="0"/>
        <pt x="1013" y="978" on="0"/>
        <pt x="1089" y="860" on="0"/>
        <pt x="1110" y="712" on="0"/>
        <pt x="1104" y="636" on="1"/>
        <pt x="1054" y="0" on="1"/>
        <pt x="889" y="0" on="1"/>
        <pt x="938" y="626" on="1"/>
        <pt x="943" y="690" on="0"/>
        <pt x="927" y="797" on="0"/>
        <pt x="874" y="874" on="0"/>
        <pt x="778" y="917" on="0"/>
        <pt x="705" y="917" on="1"/>
        <pt x="634" y="917" on="0"/>
        <pt x="519" y="864" on="0"/>
        <pt x="436" y="773" on="0"/>
        <pt x="385" y="652" on="0"/>
        <pt x="380" y="585" on="1"/>
        <pt x="334" y="0" on="1"/>
        <pt x="169" y="0" on="1"/>
        <pt x="286" y="1492" on="1"/>
      </contour>
    </TTGlyph>
    <TTGlyph name="hungarumlaut" xMin="254" yMin="1174" xMax="942" yMax="1487">
      <contour>
        <pt x="521" y="1174" on="1"/>
        <pt x="766" y="1487" on="1"/>
        <pt x="942" y="1487" on="1"/>
        <pt x="641" y="1174" on="1"/>
      </contour>
      <contour>
        <pt x="254" y="1174" on="1"/>
        <pt x="496" y="1487" on="1"/>
        <pt x="672" y="1487" on="1"/>
        <pt x="372" y="1174" on="1"/>
      </contour>
    </TTGlyph>
    <TTGlyph name="hyphen" xMin="118" yMin="489" xMax="699" yMax="626">
      <contour>
        <pt x="118" y="489" on="1"/>
        <pt x="128" y="626" on="1"/>
        <pt x="699" y="626" on="1"/>
        <pt x="689" y="489" on="1"/>
      </contour>
    </TTGlyph>
    <TTGlyph name="i" xMin="167" yMin="0" xMax="443" yMax="1462">
      <contour>
        <pt x="443" y="1462" on="1"/>
        <pt x="431" y="1307" on="1"/>
        <pt x="278" y="1307" on="1"/>
        <pt x="290" y="1462" on="1"/>
      </contour>
      <contour>
        <pt x="248" y="1026" on="1"/>
        <pt x="413" y="1026" on="1"/>
        <pt x="332" y="0" on="1"/>
        <pt x="167" y="0" on="1"/>
      </contour>
    </TTGlyph>
    <TTGlyph name="iacute" xMin="126" yMin="0" xMax="589" yMax="1492">
      <component glyphName="dotlessi" x="0" y="0" flags="0x1204"/>
      <component glyphName="acute" x="-141" y="0" flags="0x1004"/>
    </TTGlyph>
    <TTGlyph name="icircumflex" xMin="38" yMin="0" xMax="652" yMax="1494">
      <component glyphName="dotlessi" x="0" y="0" flags="0x1204"/>
      <component glyphName="circumflex" x="-89" y="0" flags="0x1004"/>
    </TTGlyph>
    <TTGlyph name="idieresis" xMin="103" yMin="0" xMax="612" yMax="1409">
      <component glyphName="dotlessi" x="0" y="0" flags="0x1204"/>
      <component glyphName="dieresis" x="-117" y="0" flags="0x1004"/>
    </TTGlyph>
    <TTGlyph name="igrave" xMin="138" yMin="0" xMax="574" yMax="1492">
      <component glyphName="dotlessi" x="0" y="0" flags="0x1204"/>
      <component glyphName="grave" x="20" y="0" flags="0x1004"/>
    </TTGlyph>
    <TTGlyph name="infinity" xMin="144" yMin="236" xMax="1668" yMax="944">
      <contour>
        <pt x="1530" y="618" on="1"/>
        <pt x="1534" y="661" on="0"/>
        <pt x="1507" y="737" on="0"/>
        <pt x="1452" y="795" on="0"/>
        <pt x="1372" y="829" on="0"/>
        <pt x="1323" y="829" on="1"/>
        <pt x="1273" y="829" on="0"/>
        <pt x="1179" y="789" on="0"/>
        <pt x="1091" y="723" on="0"/>
        <pt x="1010" y="638" on="0"/>
        <pt x="975" y="592" on="1"/>
        <pt x="1016" y="534" on="0"/>
        <pt x="1090" y="445" on="0"/>
        <pt x="1164" y="385" on="0"/>
        <pt x="1245" y="355" on="0"/>
        <pt x="1291" y="355" on="1"/>
        <pt x="1347" y="355" on="0"/>
        <pt x="1433" y="396" on="0"/>
        <pt x="1492" y="466" on="0"/>
        <pt x="1526" y="562" on="0"/>
      </contour>
      <contour>
        <pt x="272" y="592" on="1"/>
        <pt x="269" y="547" on="0"/>
        <pt x="296" y="461" on="0"/>
        <pt x="353" y="395" on="0"/>
        <pt x="437" y="355" on="0"/>
        <pt x="491" y="355" on="1"/>
        <pt x="539" y="355" on="0"/>
        <pt x="631" y="392" on="0"/>
        <pt x="718" y="455" on="0"/>
        <pt x="798" y="541" on="0"/>
        <pt x="837" y="589" on="1"/>
        <pt x="806" y="640" on="0"/>
        <pt x="738" y="727" on="0"/>
        <pt x="660" y="792" on="0"/>
        <pt x="570" y="829" on="0"/>
        <pt x="518" y="829" on="1"/>
        <pt x="464" y="829" on="0"/>
        <pt x="377" y="791" on="0"/>
        <pt x="314" y="726" on="0"/>
        <pt x="276" y="640" on="0"/>
      </contour>
      <contour>
        <pt x="1668" y="595" on="1"/>
        <pt x="1661" y="515" on="0"/>
        <pt x="1592" y="383" on="0"/>
        <pt x="1485" y="288" on="0"/>
        <pt x="1350" y="236" on="0"/>
        <pt x="1278" y="236" on="1"/>
        <pt x="1167" y="236" on="0"/>
        <pt x="987" y="362" on="0"/>
        <pt x="898" y="488" on="1"/>
        <pt x="851" y="433" on="0"/>
        <pt x="754" y="340" on="0"/>
        <pt x="649" y="273" on="0"/>
        <pt x="538" y="236" on="0"/>
        <pt x="478" y="236" on="1"/>
        <pt x="397" y="236" on="0"/>
        <pt x="268" y="296" on="0"/>
        <pt x="180" y="399" on="0"/>
        <pt x="138" y="536" on="0"/>
        <pt x="144" y="612" on="1"/>
        <pt x="149" y="681" on="0"/>
        <pt x="218" y="802" on="0"/>
        <pt x="324" y="892" on="0"/>
        <pt x="458" y="944" on="0"/>
        <pt x="529" y="944" on="1"/>
        <pt x="590" y="944" on="0"/>
        <pt x="697" y="908" on="0"/>
        <pt x="792" y="842" on="0"/>
        <pt x="877" y="749" on="0"/>
        <pt x="916" y="692" on="1"/>
        <pt x="963" y="747" on="0"/>
        <pt x="1058" y="840" on="0"/>
        <pt x="1160" y="907" on="0"/>
        <pt x="1273" y="944" on="0"/>
        <pt x="1336" y="944" on="1"/>
        <pt x="1418" y="944" on="0"/>
        <pt x="1547" y="892" on="0"/>
        <pt x="1633" y="799" on="0"/>
        <pt x="1674" y="671" on="0"/>
      </contour>
    </TTGlyph>
    <TTGlyph name="integral" xMin="94" yMin="-399" xMax="954" yMax="1631">
      <contour>
        <pt x="492" y="1255" on="1"/>
        <pt x="498" y="1336" on="0"/>
        <pt x="539" y="1474" on="0"/>
        <pt x="616" y="1574" on="0"/>
        <pt x="735" y="1631" on="0"/>
        <pt x="820" y="1631" on="1"/>
        <pt x="841" y="1631" on="0"/>
        <pt x="875" y="1628" on="0"/>
        <pt x="905" y="1622" on="0"/>
        <pt x="937" y="1614" on="0"/>
        <pt x="954" y="1610" on="1"/>
        <pt x="946" y="1481" on="1"/>
        <pt x="927" y="1489" on="0"/>
        <pt x="866" y="1496" on="0"/>
        <pt x="837" y="1496" on="1"/>
        <pt x="786" y="1496" on="0"/>
        <pt x="720" y="1468" on="0"/>
        <pt x="681" y="1413" on="0"/>
        <pt x="662" y="1332" on="0"/>
        <pt x="657" y="1279" on="1"/>
        <pt x="555" y="-23" on="1"/>
        <pt x="549" y="-104" on="0"/>
        <pt x="509" y="-242" on="0"/>
        <pt x="432" y="-342" on="0"/>
        <pt x="313" y="-399" on="0"/>
        <pt x="228" y="-399" on="1"/>
        <pt x="207" y="-399" on="0"/>
        <pt x="174" y="-396" on="0"/>
        <pt x="143" y="-390" on="0"/>
        <pt x="112" y="-383" on="0"/>
        <pt x="94" y="-378" on="1"/>
        <pt x="102" y="-249" on="1"/>
        <pt x="122" y="-257" on="0"/>
        <pt x="182" y="-264" on="0"/>
        <pt x="211" y="-264" on="1"/>
        <pt x="262" y="-264" on="0"/>
        <pt x="327" y="-236" on="0"/>
        <pt x="367" y="-181" on="0"/>
        <pt x="385" y="-100" on="0"/>
        <pt x="389" y="-47" on="1"/>
      </contour>
    </TTGlyph>
    <TTGlyph name="j" xMin="-134" yMin="-429" xMax="442" yMax="1462">
      <contour>
        <pt x="442" y="1462" on="1"/>
        <pt x="430" y="1307" on="1"/>
        <pt x="277" y="1307" on="1"/>
        <pt x="289" y="1462" on="1"/>
      </contour>
      <contour>
        <pt x="-124" y="-273" on="1"/>
        <pt x="-97" y="-278" on="0"/>
        <pt x="-57" y="-283" on="0"/>
        <pt x="-41" y="-283" on="1"/>
        <pt x="56" y="-283" on="0"/>
        <pt x="164" y="-132" on="0"/>
        <pt x="177" y="31" on="1"/>
        <pt x="255" y="1026" on="1"/>
        <pt x="420" y="1026" on="1"/>
        <pt x="348" y="106" on="1"/>
        <pt x="345" y="50" on="0"/>
        <pt x="328" y="-73" on="0"/>
        <pt x="297" y="-192" on="0"/>
        <pt x="246" y="-300" on="0"/>
        <pt x="169" y="-381" on="0"/>
        <pt x="60" y="-429" on="0"/>
        <pt x="-13" y="-429" on="1"/>
        <pt x="-71" y="-429" on="0"/>
        <pt x="-134" y="-416" on="1"/>
      </contour>
    </TTGlyph>
    <TTGlyph name="k" xMin="178" yMin="0" xMax="1115" yMax="1492">
      <contour>
        <pt x="460" y="1492" on="1"/>
        <pt x="389" y="587" on="1"/>
        <pt x="890" y="1026" on="1"/>
        <pt x="1115" y="1026" on="1"/>
        <pt x="547" y="542" on="1"/>
        <pt x="677" y="407" on="0"/>
        <pt x="942" y="135" on="0"/>
        <pt x="1072" y="0" on="1"/>
        <pt x="853" y="0" on="1"/>
        <pt x="382" y="501" on="1"/>
        <pt x="343" y="0" on="1"/>
        <pt x="178" y="0" on="1"/>
        <pt x="295" y="1492" on="1"/>
      </contour>
    </TTGlyph>
    <TTGlyph name="l" xMin="168" yMin="0" xMax="450" yMax="1492">
      <contour>
        <pt x="450" y="1492" on="1"/>
        <pt x="333" y="0" on="1"/>
        <pt x="168" y="0" on="1"/>
        <pt x="285" y="1492" on="1"/>
      </contour>
    </TTGlyph>
    <TTGlyph name="less" xMin="258" yMin="48" xMax="1310" yMax="1067">
      <contour>
        <pt x="481" y="552" on="1"/>
        <pt x="1238" y="200" on="1"/>
        <pt x="1227" y="48" on="1"/>
        <pt x="258" y="508" on="1"/>
        <pt x="266" y="595" on="1"/>
        <pt x="1310" y="1067" on="1"/>
        <pt x="1299" y="914" on="1"/>
      </contour>
    </TTGlyph>
    <TTGlyph name="lessequal" xMin="162" yMin="9" xMax="1242" yMax="1219">
      <contour>
        <pt x="1176" y="9" on="1"/>
        <pt x="162" y="9" on="1"/>
        <pt x="172" y="131" on="1"/>
        <pt x="1186" y="131" on="1"/>
      </contour>
      <contour>
        <pt x="1163" y="216" on="1"/>
        <pt x="250" y="666" on="1"/>
        <pt x="256" y="747" on="1"/>
        <pt x="1242" y="1219" on="1"/>
        <pt x="1231" y="1079" on="1"/>
        <pt x="426" y="709" on="1"/>
        <pt x="428" y="710" on="1"/>
        <pt x="1174" y="357" on="1"/>
      </contour>
    </TTGlyph>
    <TTGlyph name="logicalnot" xMin="252" yMin="238" xMax="1311" yMax="798">
      <contour>
        <pt x="1117" y="238" on="1"/>
        <pt x="1150" y="659" on="1"/>
        <pt x="252" y="659" on="1"/>
        <pt x="263" y="798" on="1"/>
        <pt x="1311" y="798" on="1"/>
        <pt x="1267" y="238" on="1"/>
      </contour>
    </TTGlyph>
    <TTGlyph name="lozenge" xMin="168" yMin="-45" xMax="1186" yMax="1470">
      <contour>
        <pt x="697" y="214" on="1"/>
        <pt x="1035" y="711" on="1"/>
        <pt x="782" y="1213" on="1"/>
        <pt x="729" y="1324" on="1"/>
        <pt x="655" y="1207" on="1"/>
        <pt x="317" y="713" on="1"/>
        <pt x="569" y="211" on="1"/>
        <pt x="623" y="98" on="1"/>
      </contour>
      <contour>
        <pt x="1186" y="712" on="1"/>
        <pt x="665" y="-45" on="1"/>
        <pt x="559" y="-45" on="1"/>
        <pt x="168" y="711" on="1"/>
        <pt x="686" y="1470" on="1"/>
        <pt x="793" y="1470" on="1"/>
      </contour>
    </TTGlyph>
    <TTGlyph name="lslash" xMin="-254" yMin="0" xMax="847" yMax="1492">
      <component glyphName="l" x="0" y="0" flags="0x1204"/>
      <component glyphName="endash" x="-286" y="0" flags="0x1004"/>
    </TTGlyph>
    <TTGlyph name="m" xMin="169" yMin="0" xMax="1783" yMax="1051">
      <contour>
        <pt x="411" y="1026" on="1"/>
        <pt x="404" y="888" on="1"/>
        <pt x="470" y="972" on="0"/>
        <pt x="642" y="1051" on="0"/>
        <pt x="748" y="1051" on="1"/>
        <pt x="806" y="1051" on="0"/>
        <pt x="906" y="1022" on="0"/>
        <pt x="987" y="970" on="0"/>
        <pt x="1045" y="895" on="0"/>
        <pt x="1061" y="849" on="1"/>
        <pt x="1127" y="954" on="0"/>
        <pt x="1317" y="1051" on="0"/>
        <pt x="1449" y="1051" on="1"/>
        <pt x="1558" y="1051" on="0"/>
        <pt x="1694" y="980" on="0"/>
        <pt x="1768" y="864" on="0"/>
        <pt x="1789" y="715" on="0"/>
        <pt x="1783" y="636" on="1"/>
        <pt x="1733" y="0" on="1"/>
        <pt x="1568" y="0" on="1"/>
        <pt x="1612" y="558" on="1"/>
        <pt x="1617" y="622" on="0"/>
        <pt x="1612" y="750" on="0"/>
        <pt x="1569" y="853" on="0"/>
        <pt x="1474" y="917" on="0"/>
        <pt x="1389" y="917" on="1"/>
        <pt x="1322" y="917" on="0"/>
        <pt x="1213" y="862" on="0"/>
        <pt x="1133" y="770" on="0"/>
        <pt x="1085" y="651" on="0"/>
        <pt x="1080" y="587" on="1"/>
        <pt x="1034" y="0" on="1"/>
        <pt x="869" y="0" on="1"/>
        <pt x="919" y="635" on="1"/>
        <pt x="924" y="693" on="0"/>
        <pt x="904" y="796" on="0"/>
        <pt x="849" y="872" on="0"/>
        <pt x="756" y="917" on="0"/>
        <pt x="688" y="917" on="1"/>
        <pt x="620" y="917" on="0"/>
        <pt x="511" y="864" on="0"/>
        <pt x="432" y="774" on="0"/>
        <pt x="385" y="654" on="0"/>
        <pt x="380" y="587" on="1"/>
        <pt x="334" y="0" on="1"/>
        <pt x="169" y="0" on="1"/>
        <pt x="229" y="761" on="1"/>
        <pt x="234" y="827" on="0"/>
        <pt x="242" y="963" on="0"/>
        <pt x="244" y="1026" on="1"/>
      </contour>
    </TTGlyph>
    <TTGlyph name="minus" xMin="237" yMin="496" xMax="1297" yMax="633">
      <contour>
        <pt x="1297" y="633" on="1"/>
        <pt x="1286" y="496" on="1"/>
        <pt x="237" y="496" on="1"/>
        <pt x="248" y="633" on="1"/>
      </contour>
    </TTGlyph>
    <TTGlyph name="mu" xMin="141" yMin="-202" xMax="1124" yMax="1026">
      <contour>
        <pt x="238" y="1026" on="1"/>
        <pt x="403" y="1026" on="1"/>
        <pt x="353" y="399" on="1"/>
        <pt x="342" y="256" on="0"/>
        <pt x="453" y="109" on="0"/>
        <pt x="586" y="109" on="1"/>
        <pt x="658" y="109" on="0"/>
        <pt x="774" y="161" on="0"/>
        <pt x="858" y="251" on="0"/>
        <pt x="907" y="370" on="0"/>
        <pt x="912" y="436" on="1"/>
        <pt x="959" y="1026" on="1"/>
        <pt x="1124" y="1026" on="1"/>
        <pt x="1062" y="246" on="1"/>
        <pt x="1057" y="180" on="0"/>
        <pt x="1051" y="63" on="0"/>
        <pt x="1051" y="0" on="1"/>
        <pt x="881" y="0" on="1"/>
        <pt x="889" y="135" on="1"/>
        <pt x="760" y="-23" on="0"/>
        <pt x="538" y="-23" on="1"/>
        <pt x="469" y="-23" on="0"/>
        <pt x="364" y="6" on="0"/>
        <pt x="324" y="31" on="1"/>
        <pt x="306" y="-202" on="1"/>
        <pt x="141" y="-202" on="1"/>
      </contour>
    </TTGlyph>
    <TTGlyph name="multiply" xMin="342" yMin="154" xMax="1189" yMax="954">
      <contour>
        <pt x="868" y="554" on="1"/>
        <pt x="1142" y="258" on="1"/>
        <pt x="1030" y="154" on="1"/>
        <pt x="757" y="450" on="1"/>
        <pt x="437" y="154" on="1"/>
        <pt x="342" y="257" on="1"/>
        <pt x="661" y="554" on="1"/>
        <pt x="389" y="851" on="1"/>
        <pt x="500" y="954" on="1"/>
        <pt x="773" y="657" on="1"/>
        <pt x="1093" y="954" on="1"/>
        <pt x="1189" y="850" on="1"/>
      </contour>
    </TTGlyph>
    <TTGlyph name="n" xMin="168" yMin="0" xMax="1096" yMax="1051">
      <contour>
        <pt x="333" y="0" on="1"/>
        <pt x="168" y="0" on="1"/>
        <pt x="229" y="779" on="1"/>
        <pt x="233" y="825" on="0"/>
        <pt x="238" y="914" on="0"/>
        <pt x="240" y="949" on="1"/>
        <pt x="241" y="989" on="0"/>
        <pt x="243" y="1026" on="1"/>
        <pt x="410" y="1026" on="1"/>
        <pt x="403" y="884" on="1"/>
        <pt x="469" y="969" on="0"/>
        <pt x="645" y="1051" on="0"/>
        <pt x="760" y="1051" on="1"/>
        <pt x="872" y="1051" on="0"/>
        <pt x="1012" y="977" on="0"/>
        <pt x="1086" y="844" on="0"/>
        <pt x="1105" y="660" on="0"/>
        <pt x="1096" y="550" on="1"/>
        <pt x="1053" y="0" on="1"/>
        <pt x="888" y="0" on="1"/>
        <pt x="930" y="531" on="1"/>
        <pt x="937" y="618" on="0"/>
        <pt x="933" y="761" on="0"/>
        <pt x="892" y="862" on="0"/>
        <pt x="800" y="917" on="0"/>
        <pt x="719" y="917" on="1"/>
        <pt x="644" y="917" on="0"/>
        <pt x="524" y="859" on="0"/>
        <pt x="437" y="777" on="0"/>
        <pt x="387" y="686" on="0"/>
        <pt x="384" y="652" on="1"/>
      </contour>
    </TTGlyph>
    <TTGlyph name="nine" xMin="166" yMin="-23" xMax="1153" yMax="1453">
      <contour>
        <pt x="256" y="234" on="1"/>
        <pt x="304" y="177" on="0"/>
        <pt x="440" y="119" on="0"/>
        <pt x="527" y="119" on="1"/>
        <pt x="627" y="119" on="0"/>
        <pt x="784" y="215" on="0"/>
        <pt x="898" y="376" on="0"/>
        <pt x="965" y="588" on="0"/>
        <pt x="974" y="705" on="1"/>
        <pt x="974" y="707" on="1"/>
        <pt x="910" y="617" on="0"/>
        <pt x="712" y="533" on="0"/>
        <pt x="587" y="533" on="1"/>
        <pt x="482" y="533" on="0"/>
        <pt x="319" y="600" on="0"/>
        <pt x="209" y="719" on="0"/>
        <pt x="158" y="885" on="0"/>
        <pt x="166" y="984" on="1"/>
        <pt x="174" y="1083" on="0"/>
        <pt x="256" y="1255" on="0"/>
        <pt x="394" y="1381" on="0"/>
        <pt x="583" y="1453" on="0"/>
        <pt x="696" y="1453" on="1"/>
        <pt x="818" y="1453" on="0"/>
        <pt x="1002" y="1362" on="0"/>
        <pt x="1119" y="1185" on="0"/>
        <pt x="1166" y="926" on="0"/>
        <pt x="1153" y="758" on="1"/>
        <pt x="1139" y="585" on="0"/>
        <pt x="1041" y="298" on="0"/>
        <pt x="877" y="91" on="0"/>
        <pt x="652" y="-23" on="0"/>
        <pt x="513" y="-23" on="1"/>
        <pt x="404" y="-23" on="0"/>
        <pt x="240" y="52" on="0"/>
        <pt x="193" y="121" on="1"/>
      </contour>
      <contour>
        <pt x="625" y="673" on="1"/>
        <pt x="685" y="673" on="0"/>
        <pt x="793" y="705" on="0"/>
        <pt x="883" y="764" on="0"/>
        <pt x="953" y="845" on="0"/>
        <pt x="974" y="894" on="1"/>
        <pt x="973" y="901" on="0"/>
        <pt x="975" y="921" on="0"/>
        <pt x="975" y="929" on="1"/>
        <pt x="981" y="999" on="0"/>
        <pt x="955" y="1136" on="0"/>
        <pt x="883" y="1245" on="0"/>
        <pt x="764" y="1312" on="0"/>
        <pt x="677" y="1312" on="1"/>
        <pt x="607" y="1312" on="0"/>
        <pt x="489" y="1263" on="0"/>
        <pt x="401" y="1176" on="0"/>
        <pt x="348" y="1058" on="0"/>
        <pt x="342" y="989" on="1"/>
        <pt x="337" y="922" on="0"/>
        <pt x="365" y="806" on="0"/>
        <pt x="434" y="721" on="0"/>
        <pt x="546" y="673" on="0"/>
      </contour>
    </TTGlyph>
    <TTGlyph name="notequal" xMin="196" yMin="46" xMax="1240" yMax="1123">
      <contour>
        <pt x="1076" y="1105" on="1"/>
        <pt x="929" y="849" on="1"/>
        <pt x="1239" y="849" on="1"/>
        <pt x="1240" y="728" on="1"/>
        <pt x="862" y="728" on="1"/>
        <pt x="691" y="445" on="1"/>
        <pt x="1208" y="445" on="1"/>
        <pt x="1208" y="325" on="1"/>
        <pt x="623" y="325" on="1"/>
        <pt x="461" y="46" on="1"/>
        <pt x="340" y="64" on="1"/>
        <pt x="489" y="325" on="1"/>
        <pt x="196" y="325" on="1"/>
        <pt x="196" y="445" on="1"/>
        <pt x="559" y="445" on="1"/>
        <pt x="729" y="728" on="1"/>
        <pt x="228" y="728" on="1"/>
        <pt x="227" y="849" on="1"/>
        <pt x="795" y="849" on="1"/>
        <pt x="953" y="1123" on="1"/>
      </contour>
    </TTGlyph>
    <TTGlyph name="ntilde" xMin="168" yMin="0" xMax="1096" yMax="1435">
      <component glyphName="n" x="0" y="0" flags="0x1204"/>
      <component glyphName="tilde" x="272" y="0" flags="0x1004"/>
    </TTGlyph>
    <TTGlyph name="numbersign" xMin="80" yMin="60" xMax="1263" yMax="1420">
      <contour>
        <pt x="1263" y="1010" on="1"/>
        <pt x="1240" y="886" on="1"/>
        <pt x="990" y="886" on="1"/>
        <pt x="917" y="611" on="1"/>
        <pt x="1169" y="611" on="1"/>
        <pt x="1145" y="485" on="1"/>
        <pt x="885" y="485" on="1"/>
        <pt x="769" y="60" on="1"/>
        <pt x="624" y="60" on="1"/>
        <pt x="737" y="485" on="1"/>
        <pt x="476" y="485" on="1"/>
        <pt x="361" y="60" on="1"/>
        <pt x="215" y="60" on="1"/>
        <pt x="332" y="485" on="1"/>
        <pt x="80" y="485" on="1"/>
        <pt x="101" y="611" on="1"/>
        <pt x="366" y="611" on="1"/>
        <pt x="383" y="681" on="0"/>
        <pt x="419" y="816" on="0"/>
        <pt x="438" y="886" on="1"/>
        <pt x="177" y="886" on="1"/>
        <pt x="199" y="1010" on="1"/>
        <pt x="469" y="1010" on="1"/>
        <pt x="581" y="1420" on="1"/>
        <pt x="727" y="1420" on="1"/>
        <pt x="617" y="1010" on="1"/>
        <pt x="878" y="1010" on="1"/>
        <pt x="987" y="1420" on="1"/>
        <pt x="1133" y="1420" on="1"/>
        <pt x="1022" y="1010" on="1"/>
      </contour>
      <contour>
        <pt x="845" y="886" on="1"/>
        <pt x="584" y="886" on="1"/>
        <pt x="508" y="611" on="1"/>
        <pt x="772" y="611" on="1"/>
      </contour>
    </TTGlyph>
    <TTGlyph name="o" xMin="130" yMin="-23" xMax="1180" yMax="1051">
      <contour>
        <pt x="702" y="1051" on="1"/>
        <pt x="831" y="1051" on="0"/>
        <pt x="1020" y="967" on="0"/>
        <pt x="1138" y="821" on="0"/>
        <pt x="1189" y="625" on="0"/>
        <pt x="1180" y="513" on="1"/>
        <pt x="1171" y="405" on="0"/>
        <pt x="1087" y="210" on="0"/>
        <pt x="942" y="63" on="0"/>
        <pt x="740" y="-23" on="0"/>
        <pt x="614" y="-23" on="1"/>
        <pt x="486" y="-23" on="0"/>
        <pt x="296" y="61" on="0"/>
        <pt x="175" y="205" on="0"/>
        <pt x="121" y="400" on="0"/>
        <pt x="130" y="511" on="1"/>
        <pt x="138" y="622" on="0"/>
        <pt x="224" y="819" on="0"/>
        <pt x="371" y="966" on="0"/>
        <pt x="574" y="1051" on="0"/>
      </contour>
      <contour>
        <pt x="1006" y="511" on="1"/>
        <pt x="1012" y="593" on="0"/>
        <pt x="982" y="741" on="0"/>
        <pt x="905" y="852" on="0"/>
        <pt x="778" y="917" on="0"/>
        <pt x="688" y="917" on="1"/>
        <pt x="601" y="917" on="0"/>
        <pt x="463" y="850" on="0"/>
        <pt x="366" y="737" on="0"/>
        <pt x="309" y="589" on="0"/>
        <pt x="303" y="509" on="1"/>
        <pt x="296" y="429" on="0"/>
        <pt x="330" y="285" on="0"/>
        <pt x="410" y="174" on="0"/>
        <pt x="539" y="109" on="0"/>
        <pt x="628" y="109" on="1"/>
        <pt x="716" y="109" on="0"/>
        <pt x="851" y="175" on="0"/>
        <pt x="946" y="286" on="0"/>
        <pt x="999" y="431" on="0"/>
      </contour>
    </TTGlyph>
    <TTGlyph name="oacute" xMin="130" yMin="-23" xMax="1180" yMax="1492">
      <component glyphName="o" x="0" y="0" flags="0x1204"/>
      <component glyphName="acute" x="225" y="0" flags="0x1004"/>
    </TTGlyph>
    <TTGlyph name="ocircumflex" xMin="130" yMin="-23" xMax="1180" yMax="1494">
      <component glyphName="o" x="0" y="0" flags="0x1204"/>
      <component glyphName="circumflex" x="277" y="0" flags="0x1004"/>
    </TTGlyph>
    <TTGlyph name="odieresis" xMin="130" yMin="-23" xMax="1180" yMax="1409">
      <component glyphName="o" x="0" y="0" flags="0x1204"/>
      <component glyphName="dieresis" x="249" y="0" flags="0x1004"/>
    </TTGlyph>
    <TTGlyph name="oe" xMin="132" yMin="-28" xMax="1909" yMax="1053">
      <contour>
        <pt x="1150" y="470" on="1"/>
        <pt x="1144" y="393" on="0"/>
        <pt x="1171" y="261" on="0"/>
        <pt x="1241" y="164" on="0"/>
        <pt x="1351" y="109" on="0"/>
        <pt x="1429" y="109" on="1"/>
        <pt x="1532" y="109" on="0"/>
        <pt x="1711" y="208" on="0"/>
        <pt x="1771" y="292" on="1"/>
        <pt x="1852" y="206" on="1"/>
        <pt x="1775" y="85" on="0"/>
        <pt x="1543" y="-28" on="0"/>
        <pt x="1407" y="-28" on="1"/>
        <pt x="1271" y="-28" on="0"/>
        <pt x="1078" y="89" on="0"/>
        <pt x="1038" y="209" on="1"/>
        <pt x="1037" y="206" on="1"/>
        <pt x="1008" y="145" on="0"/>
        <pt x="919" y="56" on="0"/>
        <pt x="808" y="-1" on="0"/>
        <pt x="677" y="-28" on="0"/>
        <pt x="607" y="-28" on="1"/>
        <pt x="484" y="-28" on="0"/>
        <pt x="298" y="56" on="0"/>
        <pt x="178" y="202" on="0"/>
        <pt x="123" y="398" on="0"/>
        <pt x="132" y="509" on="1"/>
        <pt x="140" y="620" on="0"/>
        <pt x="226" y="818" on="0"/>
        <pt x="373" y="967" on="0"/>
        <pt x="577" y="1053" on="0"/>
        <pt x="703" y="1053" on="1"/>
        <pt x="851" y="1053" on="0"/>
        <pt x="1040" y="936" on="0"/>
        <pt x="1091" y="821" on="1"/>
        <pt x="1155" y="936" on="0"/>
        <pt x="1362" y="1053" on="0"/>
        <pt x="1500" y="1053" on="1"/>
        <pt x="1610" y="1053" on="0"/>
        <pt x="1773" y="977" on="0"/>
        <pt x="1876" y="839" on="0"/>
        <pt x="1918" y="644" on="0"/>
        <pt x="1909" y="525" on="1"/>
        <pt x="1905" y="472" on="1"/>
      </contour>
      <contour>
        <pt x="1743" y="609" on="1"/>
        <pt x="1749" y="675" on="0"/>
        <pt x="1724" y="788" on="0"/>
        <pt x="1662" y="871" on="0"/>
        <pt x="1564" y="917" on="0"/>
        <pt x="1495" y="917" on="1"/>
        <pt x="1426" y="917" on="0"/>
        <pt x="1311" y="866" on="0"/>
        <pt x="1224" y="781" on="0"/>
        <pt x="1169" y="669" on="0"/>
        <pt x="1161" y="609" on="1"/>
      </contour>
      <contour>
        <pt x="985" y="511" on="1"/>
        <pt x="992" y="597" on="0"/>
        <pt x="964" y="746" on="0"/>
        <pt x="892" y="855" on="0"/>
        <pt x="771" y="917" on="0"/>
        <pt x="684" y="917" on="1"/>
        <pt x="599" y="917" on="0"/>
        <pt x="465" y="850" on="0"/>
        <pt x="368" y="737" on="0"/>
        <pt x="311" y="589" on="0"/>
        <pt x="305" y="507" on="1"/>
        <pt x="298" y="426" on="0"/>
        <pt x="330" y="282" on="0"/>
        <pt x="409" y="173" on="0"/>
        <pt x="537" y="109" on="0"/>
        <pt x="628" y="109" on="1"/>
        <pt x="712" y="109" on="0"/>
        <pt x="840" y="175" on="0"/>
        <pt x="929" y="286" on="0"/>
        <pt x="979" y="431" on="0"/>
      </contour>
    </TTGlyph>
    <TTGlyph name="ogonek" xMin="30" yMin="-390" xMax="423" yMax="12">
      <contour>
        <pt x="267" y="-281" on="1"/>
        <pt x="290" y="-281" on="0"/>
        <pt x="328" y="-277" on="0"/>
        <pt x="365" y="-270" on="0"/>
        <pt x="402" y="-258" on="0"/>
        <pt x="423" y="-250" on="1"/>
        <pt x="414" y="-361" on="1"/>
        <pt x="399" y="-367" on="0"/>
        <pt x="356" y="-378" on="0"/>
        <pt x="308" y="-385" on="0"/>
        <pt x="257" y="-390" on="0"/>
        <pt x="235" y="-390" on="1"/>
        <pt x="189" y="-390" on="0"/>
        <pt x="112" y="-368" on="0"/>
        <pt x="56" y="-326" on="0"/>
        <pt x="27" y="-265" on="0"/>
        <pt x="30" y="-225" on="1"/>
        <pt x="33" y="-187" on="0"/>
        <pt x="76" y="-118" on="0"/>
        <pt x="140" y="-59" on="0"/>
        <pt x="221" y="-8" on="0"/>
        <pt x="264" y="12" on="1"/>
        <pt x="392" y="0" on="1"/>
        <pt x="346" y="-27" on="0"/>
        <pt x="268" y="-78" on="0"/>
        <pt x="210" y="-127" on="0"/>
        <pt x="175" y="-175" on="0"/>
        <pt x="173" y="-199" on="1"/>
        <pt x="172" y="-218" on="0"/>
        <pt x="187" y="-248" on="0"/>
        <pt x="214" y="-269" on="0"/>
        <pt x="249" y="-281" on="0"/>
      </contour>
    </TTGlyph>
    <TTGlyph name="ograve" xMin="130" yMin="-23" xMax="1180" yMax="1492">
      <component glyphName="o" x="0" y="0" flags="0x1204"/>
      <component glyphName="grave" x="387" y="0" flags="0x1004"/>
    </TTGlyph>
    <TTGlyph name="one" xMin="333" yMin="0" xMax="952" yMax="1438">
      <contour>
        <pt x="373" y="1269" on="1"/>
        <pt x="452" y="1296" on="0"/>
        <pt x="600" y="1369" on="0"/>
        <pt x="670" y="1411" on="1"/>
        <pt x="837" y="1438" on="1"/>
        <pt x="735" y="143" on="1"/>
        <pt x="952" y="143" on="1"/>
        <pt x="941" y="0" on="1"/>
        <pt x="333" y="0" on="1"/>
        <pt x="344" y="143" on="1"/>
        <pt x="563" y="143" on="1"/>
        <pt x="650" y="1245" on="1"/>
        <pt x="580" y="1207" on="0"/>
        <pt x="440" y="1143" on="0"/>
        <pt x="361" y="1113" on="1"/>
      </contour>
    </TTGlyph>
    <TTGlyph name="onehalf" xMin="318" yMin="-25" xMax="1657" yMax="1436">
      <component glyphName="onesuperior" x="0" y="0" flags="0x1004"/>
      <component glyphName="fraction" x="716" y="0" flags="0x1004"/>
      <component glyphName="twosuperior" x="731" y="-629" flags="0x1004"/>
    </TTGlyph>
    <TTGlyph name="onequarter" xMin="318" yMin="0" xMax="1701" yMax="1436">
      <component glyphName="onesuperior" x="0" y="0" flags="0x1004"/>
      <component glyphName="fraction" x="774" y="0" flags="0x1004"/>
      <component glyphName="foursuperior" x="1041" y="-578" flags="0x1004"/>
    </TTGlyph>
    <TTGlyph name="onesuperior" xMin="318" yMin="604" xMax="692" yMax="1427">
      <contour>
        <pt x="345" y="1333" on="1"/>
        <pt x="400" y="1350" on="0"/>
        <pt x="483" y="1391" on="0"/>
        <pt x="520" y="1412" on="1"/>
        <pt x="626" y="1427" on="1"/>
        <pt x="570" y="720" on="1"/>
        <pt x="692" y="720" on="1"/>
        <pt x="683" y="604" on="1"/>
        <pt x="318" y="604" on="1"/>
        <pt x="327" y="723" on="1"/>
        <pt x="449" y="723" on="1"/>
        <pt x="477" y="1069" on="1"/>
        <pt x="479" y="1102" on="0"/>
        <pt x="483" y="1167" on="0"/>
        <pt x="486" y="1200" on="1"/>
        <pt x="491" y="1271" on="1"/>
        <pt x="458" y="1254" on="0"/>
        <pt x="375" y="1218" on="0"/>
        <pt x="334" y="1203" on="1"/>
      </contour>
    </TTGlyph>
    <TTGlyph name="ordfeminine" xMin="143" yMin="768" xMax="767" yMax="1477">
      <contour>
        <pt x="377" y="768" on="1"/>
        <pt x="323" y="768" on="0"/>
        <pt x="234" y="797" on="0"/>
        <pt x="171" y="851" on="0"/>
        <pt x="139" y="928" on="0"/>
        <pt x="143" y="975" on="1"/>
        <pt x="146" y="1018" on="0"/>
        <pt x="188" y="1091" on="0"/>
        <pt x="257" y="1146" on="0"/>
        <pt x="349" y="1184" on="0"/>
        <pt x="403" y="1192" on="1"/>
        <pt x="460" y="1201" on="0"/>
        <pt x="577" y="1204" on="0"/>
        <pt x="631" y="1211" on="1"/>
        <pt x="632" y="1219" on="1"/>
        <pt x="635" y="1262" on="0"/>
        <pt x="625" y="1320" on="0"/>
        <pt x="593" y="1354" on="0"/>
        <pt x="538" y="1369" on="0"/>
        <pt x="496" y="1369" on="1"/>
        <pt x="466" y="1369" on="0"/>
        <pt x="405" y="1361" on="0"/>
        <pt x="349" y="1340" on="0"/>
        <pt x="300" y="1303" on="0"/>
        <pt x="278" y="1275" on="1"/>
        <pt x="217" y="1350" on="1"/>
        <pt x="263" y="1418" on="0"/>
        <pt x="416" y="1477" on="0"/>
        <pt x="510" y="1477" on="1"/>
        <pt x="639" y="1477" on="0"/>
        <pt x="776" y="1359" on="0"/>
        <pt x="767" y="1244" on="1"/>
        <pt x="766" y="1235" on="1"/>
        <pt x="739" y="914" on="1"/>
        <pt x="737" y="903" on="0"/>
        <pt x="736" y="862" on="0"/>
        <pt x="736" y="840" on="1"/>
        <pt x="736" y="786" on="1"/>
        <pt x="605" y="786" on="1"/>
        <pt x="605" y="860" on="1"/>
        <pt x="567" y="818" on="0"/>
        <pt x="452" y="768" on="0"/>
      </contour>
      <contour>
        <pt x="407" y="871" on="1"/>
        <pt x="458" y="871" on="0"/>
        <pt x="535" y="906" on="0"/>
        <pt x="591" y="966" on="0"/>
        <pt x="623" y="1043" on="0"/>
        <pt x="628" y="1085" on="1"/>
        <pt x="626" y="1110" on="1"/>
        <pt x="591" y="1103" on="0"/>
        <pt x="513" y="1096" on="0"/>
        <pt x="438" y="1088" on="0"/>
        <pt x="369" y="1075" on="0"/>
        <pt x="315" y="1050" on="0"/>
        <pt x="281" y="1009" on="0"/>
        <pt x="279" y="977" on="1"/>
        <pt x="274" y="921" on="0"/>
        <pt x="347" y="871" on="0"/>
      </contour>
    </TTGlyph>
    <TTGlyph name="ordmasculine" xMin="142" yMin="767" xMax="863" yMax="1476">
      <contour>
        <pt x="532" y="1476" on="1"/>
        <pt x="620" y="1476" on="0"/>
        <pt x="749" y="1421" on="0"/>
        <pt x="833" y="1325" on="0"/>
        <pt x="869" y="1196" on="0"/>
        <pt x="863" y="1121" on="1"/>
        <pt x="857" y="1048" on="0"/>
        <pt x="800" y="919" on="0"/>
        <pt x="701" y="823" on="0"/>
        <pt x="564" y="767" on="0"/>
        <pt x="477" y="767" on="1"/>
        <pt x="387" y="767" on="0"/>
        <pt x="256" y="822" on="0"/>
        <pt x="172" y="918" on="0"/>
        <pt x="136" y="1049" on="0"/>
        <pt x="142" y="1124" on="1"/>
        <pt x="148" y="1198" on="0"/>
        <pt x="206" y="1326" on="0"/>
        <pt x="306" y="1421" on="0"/>
        <pt x="445" y="1476" on="0"/>
      </contour>
      <contour>
        <pt x="282" y="1123" on="1"/>
        <pt x="278" y="1072" on="0"/>
        <pt x="298" y="981" on="0"/>
        <pt x="348" y="914" on="0"/>
        <pt x="429" y="875" on="0"/>
        <pt x="485" y="875" on="1"/>
        <pt x="538" y="875" on="0"/>
        <pt x="623" y="914" on="0"/>
        <pt x="685" y="981" on="0"/>
        <pt x="721" y="1070" on="0"/>
        <pt x="725" y="1119" on="1"/>
        <pt x="729" y="1171" on="0"/>
        <pt x="707" y="1262" on="0"/>
        <pt x="656" y="1330" on="0"/>
        <pt x="575" y="1369" on="0"/>
        <pt x="521" y="1369" on="1"/>
        <pt x="468" y="1369" on="0"/>
        <pt x="383" y="1330" on="0"/>
        <pt x="322" y="1262" on="0"/>
        <pt x="286" y="1173" on="0"/>
      </contour>
    </TTGlyph>
    <TTGlyph name="oslash" xMin="130" yMin="-261" xMax="1180" yMax="1277">
      <contour>
        <pt x="703" y="1051" on="1"/>
        <pt x="788" y="1051" on="0"/>
        <pt x="861" y="1031" on="1"/>
        <pt x="985" y="1277" on="1"/>
        <pt x="1085" y="1245" on="1"/>
        <pt x="958" y="993" on="1"/>
        <pt x="1020" y="960" on="0"/>
        <pt x="1110" y="861" on="0"/>
        <pt x="1165" y="737" on="0"/>
        <pt x="1187" y="592" on="0"/>
        <pt x="1180" y="513" on="1"/>
        <pt x="1172" y="405" on="0"/>
        <pt x="1088" y="210" on="0"/>
        <pt x="943" y="63" on="0"/>
        <pt x="740" y="-23" on="0"/>
        <pt x="614" y="-23" on="1"/>
        <pt x="529" y="-23" on="0"/>
        <pt x="456" y="-3" on="1"/>
        <pt x="325" y="-261" on="1"/>
        <pt x="229" y="-229" on="1"/>
        <pt x="361" y="34" on="1"/>
        <pt x="297" y="67" on="0"/>
        <pt x="205" y="165" on="0"/>
        <pt x="148" y="288" on="0"/>
        <pt x="124" y="432" on="0"/>
        <pt x="130" y="511" on="1"/>
        <pt x="139" y="622" on="0"/>
        <pt x="224" y="819" on="0"/>
        <pt x="371" y="966" on="0"/>
        <pt x="575" y="1051" on="0"/>
      </contour>
      <contour>
        <pt x="303" y="509" on="1"/>
        <pt x="299" y="457" on="0"/>
        <pt x="310" y="358" on="0"/>
        <pt x="341" y="271" on="0"/>
        <pt x="393" y="197" on="0"/>
        <pt x="428" y="170" on="1"/>
        <pt x="796" y="902" on="1"/>
        <pt x="772" y="909" on="0"/>
        <pt x="718" y="917" on="0"/>
        <pt x="688" y="917" on="1"/>
        <pt x="601" y="917" on="0"/>
        <pt x="464" y="850" on="0"/>
        <pt x="366" y="737" on="0"/>
        <pt x="309" y="589" on="0"/>
      </contour>
      <contour>
        <pt x="1006" y="511" on="1"/>
        <pt x="1015" y="619" on="0"/>
        <pt x="958" y="800" on="0"/>
        <pt x="888" y="855" on="1"/>
        <pt x="520" y="124" on="1"/>
        <pt x="568" y="109" on="0"/>
        <pt x="629" y="109" on="1"/>
        <pt x="717" y="109" on="0"/>
        <pt x="852" y="175" on="0"/>
        <pt x="947" y="286" on="0"/>
        <pt x="1000" y="431" on="0"/>
      </contour>
    </TTGlyph>
    <TTGlyph name="otilde" xMin="130" yMin="-23" xMax="1180" yMax="1435">
      <component glyphName="o" x="0" y="0" flags="0x1204"/>
      <component glyphName="tilde" x="283" y="0" flags="0x1004"/>
    </TTGlyph>
    <TTGlyph name="p" xMin="125" yMin="-427" xMax="1180" yMax="1051">
      <contour>
        <pt x="289" y="-427" on="1"/>
        <pt x="125" y="-427" on="1"/>
        <pt x="218" y="758" on="1"/>
        <pt x="220" y="779" on="0"/>
        <pt x="224" y="840" on="0"/>
        <pt x="227" y="912" on="0"/>
        <pt x="230" y="989" on="0"/>
        <pt x="231" y="1026" on="1"/>
        <pt x="398" y="1026" on="1"/>
        <pt x="392" y="880" on="1"/>
        <pt x="462" y="965" on="0"/>
        <pt x="645" y="1051" on="0"/>
        <pt x="750" y="1051" on="1"/>
        <pt x="871" y="1051" on="0"/>
        <pt x="1042" y="967" on="0"/>
        <pt x="1146" y="824" on="0"/>
        <pt x="1189" y="634" on="0"/>
        <pt x="1180" y="527" on="1"/>
        <pt x="1172" y="419" on="0"/>
        <pt x="1097" y="220" on="0"/>
        <pt x="968" y="68" on="0"/>
        <pt x="784" y="-23" on="0"/>
        <pt x="666" y="-23" on="1"/>
        <pt x="450" y="-23" on="0"/>
        <pt x="333" y="135" on="1"/>
      </contour>
      <contour>
        <pt x="361" y="494" on="1"/>
        <pt x="355" y="411" on="0"/>
        <pt x="386" y="270" on="0"/>
        <pt x="459" y="167" on="0"/>
        <pt x="574" y="109" on="0"/>
        <pt x="652" y="109" on="1"/>
        <pt x="736" y="109" on="0"/>
        <pt x="863" y="177" on="0"/>
        <pt x="949" y="291" on="0"/>
        <pt x="997" y="440" on="0"/>
        <pt x="1004" y="521" on="1"/>
        <pt x="1010" y="597" on="0"/>
        <pt x="989" y="740" on="0"/>
        <pt x="925" y="851" on="0"/>
        <pt x="810" y="917" on="0"/>
        <pt x="722" y="917" on="1"/>
        <pt x="630" y="917" on="0"/>
        <pt x="499" y="847" on="0"/>
        <pt x="413" y="730" on="0"/>
        <pt x="368" y="577" on="0"/>
      </contour>
    </TTGlyph>
    <TTGlyph name="paragraph" xMin="196" yMin="-148" xMax="1123" yMax="1451">
      <contour>
        <pt x="430" y="-148" on="1"/>
        <pt x="504" y="786" on="1"/>
        <pt x="436" y="787" on="0"/>
        <pt x="318" y="837" on="0"/>
        <pt x="234" y="927" on="0"/>
        <pt x="190" y="1053" on="0"/>
        <pt x="196" y="1130" on="1"/>
        <pt x="203" y="1224" on="0"/>
        <pt x="296" y="1348" on="0"/>
        <pt x="444" y="1421" on="0"/>
        <pt x="633" y="1451" on="0"/>
        <pt x="737" y="1451" on="1"/>
        <pt x="1123" y="1451" on="1"/>
        <pt x="1114" y="1327" on="1"/>
        <pt x="1027" y="1327" on="1"/>
        <pt x="910" y="-148" on="1"/>
        <pt x="781" y="-148" on="1"/>
        <pt x="898" y="1327" on="1"/>
        <pt x="690" y="1327" on="1"/>
        <pt x="573" y="-148" on="1"/>
      </contour>
    </TTGlyph>
    <TTGlyph name="parenleft" xMin="199" yMin="-259" xMax="692" yMax="1451">
      <contour>
        <pt x="412" y="-259" on="1"/>
        <pt x="361" y="-170" on="0"/>
        <pt x="275" y="30" on="0"/>
        <pt x="216" y="246" on="0"/>
        <pt x="190" y="472" on="0"/>
        <pt x="199" y="587" on="1"/>
        <pt x="208" y="707" on="0"/>
        <pt x="266" y="932" on="0"/>
        <pt x="355" y="1147" on="0"/>
        <pt x="473" y="1352" on="0"/>
        <pt x="544" y="1451" on="1"/>
        <pt x="692" y="1451" on="1"/>
        <pt x="550" y="1250" on="0"/>
        <pt x="380" y="818" on="0"/>
        <pt x="362" y="590" on="1"/>
        <pt x="354" y="485" on="0"/>
        <pt x="374" y="264" on="0"/>
        <pt x="425" y="45" on="0"/>
        <pt x="506" y="-165" on="0"/>
        <pt x="558" y="-259" on="1"/>
      </contour>
    </TTGlyph>
    <TTGlyph name="parenright" xMin="36" yMin="-259" xMax="526" yMax="1451">
      <contour>
        <pt x="36" y="-259" on="1"/>
        <pt x="100" y="-168" on="0"/>
        <pt x="211" y="35" on="0"/>
        <pt x="297" y="252" on="0"/>
        <pt x="353" y="484" on="0"/>
        <pt x="363" y="604" on="1"/>
        <pt x="371" y="704" on="0"/>
        <pt x="353" y="920" on="0"/>
        <pt x="303" y="1138" on="0"/>
        <pt x="222" y="1352" on="0"/>
        <pt x="167" y="1451" on="1"/>
        <pt x="314" y="1451" on="1"/>
        <pt x="365" y="1359" on="0"/>
        <pt x="452" y="1156" on="0"/>
        <pt x="510" y="939" on="0"/>
        <pt x="535" y="713" on="0"/>
        <pt x="526" y="598" on="1"/>
        <pt x="517" y="477" on="0"/>
        <pt x="459" y="252" on="0"/>
        <pt x="370" y="39" on="0"/>
        <pt x="254" y="-163" on="0"/>
        <pt x="185" y="-259" on="1"/>
      </contour>
    </TTGlyph>
    <TTGlyph name="partialdiff" xMin="116" yMin="-24" xMax="1141" yMax="1533">
      <contour>
        <pt x="504" y="111" on="1"/>
        <pt x="582" y="111" on="0"/>
        <pt x="721" y="197" on="0"/>
        <pt x="832" y="345" on="0"/>
        <pt x="915" y="543" on="0"/>
        <pt x="937" y="655" on="1"/>
        <pt x="925" y="697" on="0"/>
        <pt x="880" y="775" on="0"/>
        <pt x="815" y="834" on="0"/>
        <pt x="730" y="869" on="0"/>
        <pt x="678" y="869" on="1"/>
        <pt x="603" y="869" on="0"/>
        <pt x="466" y="796" on="0"/>
        <pt x="360" y="672" on="0"/>
        <pt x="292" y="508" on="0"/>
        <pt x="285" y="417" on="1"/>
        <pt x="280" y="348" on="0"/>
        <pt x="305" y="235" on="0"/>
        <pt x="362" y="155" on="0"/>
        <pt x="448" y="111" on="0"/>
      </contour>
      <contour>
        <pt x="394" y="1442" on="1"/>
        <pt x="457" y="1482" on="0"/>
        <pt x="621" y="1533" on="0"/>
        <pt x="709" y="1533" on="1"/>
        <pt x="821" y="1533" on="0"/>
        <pt x="995" y="1452" on="0"/>
        <pt x="1107" y="1285" on="0"/>
        <pt x="1155" y="1028" on="0"/>
        <pt x="1141" y="852" on="1"/>
        <pt x="1133" y="744" on="0"/>
        <pt x="1085" y="530" on="0"/>
        <pt x="1006" y="335" on="0"/>
        <pt x="897" y="168" on="0"/>
        <pt x="757" y="46" on="0"/>
        <pt x="588" y="-24" on="0"/>
        <pt x="490" y="-24" on="1"/>
        <pt x="389" y="-24" on="0"/>
        <pt x="242" y="44" on="0"/>
        <pt x="148" y="164" on="0"/>
        <pt x="109" y="326" on="0"/>
        <pt x="116" y="420" on="1"/>
        <pt x="126" y="543" on="0"/>
        <pt x="222" y="756" on="0"/>
        <pt x="370" y="912" on="0"/>
        <pt x="560" y="1002" on="0"/>
        <pt x="665" y="1002" on="1"/>
        <pt x="722" y="1002" on="0"/>
        <pt x="815" y="975" on="0"/>
        <pt x="889" y="931" on="0"/>
        <pt x="944" y="875" on="0"/>
        <pt x="963" y="845" on="1"/>
        <pt x="964" y="842" on="0"/>
        <pt x="968" y="836" on="1"/>
        <pt x="969" y="850" on="0"/>
        <pt x="974" y="893" on="0"/>
        <pt x="975" y="911" on="1"/>
        <pt x="984" y="1025" on="0"/>
        <pt x="951" y="1206" on="0"/>
        <pt x="874" y="1332" on="0"/>
        <pt x="754" y="1399" on="0"/>
        <pt x="675" y="1399" on="1"/>
        <pt x="639" y="1399" on="0"/>
        <pt x="565" y="1384" on="0"/>
        <pt x="492" y="1358" on="0"/>
        <pt x="423" y="1323" on="0"/>
        <pt x="394" y="1304" on="1"/>
      </contour>
    </TTGlyph>
    <TTGlyph name="percent" xMin="251" yMin="-27" xMax="1834" yMax="1447">
      <contour>
        <pt x="1503" y="622" on="1"/>
        <pt x="1447" y="622" on="0"/>
        <pt x="1363" y="576" on="0"/>
        <pt x="1305" y="500" on="0"/>
        <pt x="1272" y="402" on="0"/>
        <pt x="1268" y="350" on="1"/>
        <pt x="1264" y="296" on="0"/>
        <pt x="1281" y="200" on="0"/>
        <pt x="1329" y="128" on="0"/>
        <pt x="1404" y="86" on="0"/>
        <pt x="1458" y="86" on="1"/>
        <pt x="1512" y="86" on="0"/>
        <pt x="1596" y="131" on="0"/>
        <pt x="1653" y="207" on="0"/>
        <pt x="1685" y="304" on="0"/>
        <pt x="1690" y="357" on="1"/>
        <pt x="1694" y="412" on="0"/>
        <pt x="1677" y="508" on="0"/>
        <pt x="1631" y="580" on="0"/>
        <pt x="1557" y="622" on="0"/>
      </contour>
      <contour>
        <pt x="1512" y="735" on="1"/>
        <pt x="1596" y="735" on="0"/>
        <pt x="1723" y="678" on="0"/>
        <pt x="1805" y="577" on="0"/>
        <pt x="1840" y="438" on="0"/>
        <pt x="1834" y="356" on="1"/>
        <pt x="1827" y="276" on="0"/>
        <pt x="1766" y="137" on="0"/>
        <pt x="1665" y="33" on="0"/>
        <pt x="1528" y="-27" on="0"/>
        <pt x="1446" y="-27" on="1"/>
        <pt x="1363" y="-27" on="0"/>
        <pt x="1237" y="31" on="0"/>
        <pt x="1155" y="133" on="0"/>
        <pt x="1118" y="271" on="0"/>
        <pt x="1124" y="351" on="1"/>
        <pt x="1131" y="432" on="0"/>
        <pt x="1192" y="572" on="0"/>
        <pt x="1293" y="675" on="0"/>
        <pt x="1429" y="735" on="0"/>
      </contour>
      <contour>
        <pt x="639" y="1447" on="1"/>
        <pt x="723" y="1447" on="0"/>
        <pt x="850" y="1390" on="0"/>
        <pt x="932" y="1289" on="0"/>
        <pt x="967" y="1150" on="0"/>
        <pt x="961" y="1068" on="1"/>
        <pt x="954" y="988" on="0"/>
        <pt x="893" y="849" on="0"/>
        <pt x="792" y="746" on="0"/>
        <pt x="656" y="686" on="0"/>
        <pt x="574" y="686" on="1"/>
        <pt x="490" y="686" on="0"/>
        <pt x="363" y="744" on="0"/>
        <pt x="281" y="846" on="0"/>
        <pt x="245" y="984" on="0"/>
        <pt x="251" y="1064" on="1"/>
        <pt x="258" y="1145" on="0"/>
        <pt x="319" y="1284" on="0"/>
        <pt x="420" y="1388" on="0"/>
        <pt x="556" y="1447" on="0"/>
      </contour>
      <contour>
        <pt x="1457" y="1436" on="1"/>
        <pt x="1612" y="1436" on="1"/>
        <pt x="593" y="-5" on="1"/>
        <pt x="439" y="-5" on="1"/>
      </contour>
      <contour>
        <pt x="630" y="1335" on="1"/>
        <pt x="575" y="1335" on="0"/>
        <pt x="491" y="1290" on="0"/>
        <pt x="432" y="1215" on="0"/>
        <pt x="399" y="1117" on="0"/>
        <pt x="395" y="1065" on="1"/>
        <pt x="391" y="1010" on="0"/>
        <pt x="409" y="913" on="0"/>
        <pt x="456" y="841" on="0"/>
        <pt x="532" y="799" on="0"/>
        <pt x="586" y="799" on="1"/>
        <pt x="640" y="799" on="0"/>
        <pt x="723" y="844" on="0"/>
        <pt x="781" y="919" on="0"/>
        <pt x="814" y="1016" on="0"/>
        <pt x="818" y="1069" on="1"/>
        <pt x="822" y="1124" on="0"/>
        <pt x="805" y="1221" on="0"/>
        <pt x="758" y="1293" on="0"/>
        <pt x="683" y="1335" on="0"/>
      </contour>
    </TTGlyph>
    <TTGlyph name="period" xMin="158" yMin="-11" xMax="392" yMax="199">
      <contour>
        <pt x="375" y="-11" on="1"/>
        <pt x="158" y="-11" on="1"/>
        <pt x="175" y="199" on="1"/>
        <pt x="392" y="199" on="1"/>
      </contour>
    </TTGlyph>
    <TTGlyph name="periodcentered" xMin="116" yMin="513" xMax="350" yMax="723">
      <contour>
        <pt x="333" y="513" on="1"/>
        <pt x="116" y="513" on="1"/>
        <pt x="133" y="723" on="1"/>
        <pt x="350" y="723" on="1"/>
      </contour>
    </TTGlyph>
    <TTGlyph name="periodcentered#1" xMin="116" yMin="513" xMax="350" yMax="723">
      <contour>
        <pt x="333" y="513" on="1"/>
        <pt x="116" y="513" on="1"/>
        <pt x="133" y="723" on="1"/>
        <pt x="350" y="723" on="1"/>
      </contour>
    </TTGlyph>
    <TTGlyph name="perthousand" xMin="159" yMin="-27" xMax="2325" yMax="1447">
      <contour>
        <pt x="2007" y="567" on="1"/>
        <pt x="1958" y="567" on="0"/>
        <pt x="1882" y="529" on="0"/>
        <pt x="1829" y="463" on="0"/>
        <pt x="1798" y="376" on="0"/>
        <pt x="1794" y="328" on="1"/>
        <pt x="1790" y="277" on="0"/>
        <pt x="1807" y="189" on="0"/>
        <pt x="1851" y="123" on="0"/>
        <pt x="1921" y="86" on="0"/>
        <pt x="1970" y="86" on="1"/>
        <pt x="2018" y="86" on="0"/>
        <pt x="2094" y="125" on="0"/>
        <pt x="2147" y="191" on="0"/>
        <pt x="2178" y="279" on="0"/>
        <pt x="2182" y="327" on="1"/>
        <pt x="2186" y="377" on="0"/>
        <pt x="2169" y="465" on="0"/>
        <pt x="2125" y="530" on="0"/>
        <pt x="2055" y="567" on="0"/>
      </contour>
      <contour>
        <pt x="1957" y="-27" on="1"/>
        <pt x="1877" y="-27" on="0"/>
        <pt x="1756" y="24" on="0"/>
        <pt x="1677" y="117" on="0"/>
        <pt x="1643" y="248" on="0"/>
        <pt x="1649" y="328" on="1"/>
        <pt x="1655" y="404" on="0"/>
        <pt x="1710" y="533" on="0"/>
        <pt x="1805" y="628" on="0"/>
        <pt x="1936" y="681" on="0"/>
        <pt x="2018" y="681" on="1"/>
        <pt x="2099" y="681" on="0"/>
        <pt x="2219" y="632" on="0"/>
        <pt x="2298" y="539" on="0"/>
        <pt x="2331" y="407" on="0"/>
        <pt x="2325" y="325" on="1"/>
        <pt x="2319" y="250" on="0"/>
        <pt x="2263" y="121" on="0"/>
        <pt x="2168" y="26" on="0"/>
        <pt x="2038" y="-27" on="0"/>
      </contour>
      <contour>
        <pt x="468" y="740" on="1"/>
        <pt x="387" y="740" on="0"/>
        <pt x="266" y="791" on="0"/>
        <pt x="188" y="884" on="0"/>
        <pt x="153" y="1015" on="0"/>
        <pt x="159" y="1095" on="1"/>
        <pt x="165" y="1171" on="0"/>
        <pt x="220" y="1300" on="0"/>
        <pt x="314" y="1394" on="0"/>
        <pt x="445" y="1447" on="0"/>
        <pt x="526" y="1447" on="1"/>
        <pt x="608" y="1447" on="0"/>
        <pt x="730" y="1397" on="0"/>
        <pt x="808" y="1305" on="0"/>
        <pt x="842" y="1174" on="0"/>
        <pt x="835" y="1092" on="1"/>
        <pt x="829" y="1017" on="0"/>
        <pt x="773" y="888" on="0"/>
        <pt x="679" y="793" on="0"/>
        <pt x="548" y="740" on="0"/>
      </contour>
      <contour>
        <pt x="1170" y="-27" on="1"/>
        <pt x="1089" y="-27" on="0"/>
        <pt x="968" y="24" on="0"/>
        <pt x="889" y="117" on="0"/>
        <pt x="855" y="248" on="0"/>
        <pt x="861" y="328" on="1"/>
        <pt x="867" y="404" on="0"/>
        <pt x="922" y="533" on="0"/>
        <pt x="1017" y="628" on="0"/>
        <pt x="1148" y="681" on="0"/>
        <pt x="1230" y="681" on="1"/>
        <pt x="1312" y="681" on="0"/>
        <pt x="1433" y="630" on="0"/>
        <pt x="1510" y="537" on="0"/>
        <pt x="1543" y="406" on="0"/>
        <pt x="1537" y="325" on="1"/>
        <pt x="1531" y="250" on="0"/>
        <pt x="1476" y="121" on="0"/>
        <pt x="1381" y="26" on="0"/>
        <pt x="1251" y="-27" on="0"/>
      </contour>
      <contour>
        <pt x="1219" y="567" on="1"/>
        <pt x="1170" y="567" on="0"/>
        <pt x="1094" y="529" on="0"/>
        <pt x="1041" y="463" on="0"/>
        <pt x="1010" y="376" on="0"/>
        <pt x="1006" y="328" on="1"/>
        <pt x="1002" y="277" on="0"/>
        <pt x="1019" y="189" on="0"/>
        <pt x="1063" y="123" on="0"/>
        <pt x="1133" y="86" on="0"/>
        <pt x="1182" y="86" on="1"/>
        <pt x="1230" y="86" on="0"/>
        <pt x="1305" y="125" on="0"/>
        <pt x="1358" y="192" on="0"/>
        <pt x="1389" y="279" on="0"/>
        <pt x="1393" y="327" on="1"/>
        <pt x="1397" y="378" on="0"/>
        <pt x="1381" y="465" on="0"/>
        <pt x="1338" y="530" on="0"/>
        <pt x="1268" y="567" on="0"/>
      </contour>
      <contour>
        <pt x="516" y="1335" on="1"/>
        <pt x="468" y="1335" on="0"/>
        <pt x="393" y="1297" on="0"/>
        <pt x="340" y="1231" on="0"/>
        <pt x="309" y="1144" on="0"/>
        <pt x="305" y="1096" on="1"/>
        <pt x="301" y="1045" on="0"/>
        <pt x="318" y="957" on="0"/>
        <pt x="361" y="891" on="0"/>
        <pt x="431" y="853" on="0"/>
        <pt x="481" y="853" on="1"/>
        <pt x="529" y="853" on="0"/>
        <pt x="603" y="892" on="0"/>
        <pt x="656" y="958" on="0"/>
        <pt x="686" y="1045" on="0"/>
        <pt x="690" y="1093" on="1"/>
        <pt x="694" y="1144" on="0"/>
        <pt x="677" y="1232" on="0"/>
        <pt x="634" y="1297" on="0"/>
        <pt x="565" y="1335" on="0"/>
      </contour>
      <contour>
        <pt x="243" y="-21" on="1"/>
        <pt x="1296" y="1436" on="1"/>
        <pt x="1445" y="1436" on="1"/>
        <pt x="396" y="-21" on="1"/>
      </contour>
    </TTGlyph>
    <TTGlyph name="pi" xMin="94" yMin="-8" xMax="1296" yMax="1040">
      <contour>
        <pt x="1285" y="907" on="1"/>
        <pt x="1081" y="907" on="1"/>
        <pt x="1033" y="288" on="1"/>
        <pt x="1031" y="265" on="0"/>
        <pt x="1030" y="216" on="0"/>
        <pt x="1046" y="174" on="0"/>
        <pt x="1084" y="147" on="0"/>
        <pt x="1120" y="147" on="1"/>
        <pt x="1154" y="147" on="0"/>
        <pt x="1201" y="160" on="1"/>
        <pt x="1199" y="145" on="0"/>
        <pt x="1194" y="115" on="0"/>
        <pt x="1193" y="100" on="1"/>
        <pt x="1191" y="77" on="0"/>
        <pt x="1192" y="30" on="0"/>
        <pt x="1199" y="6" on="1"/>
        <pt x="1159" y="-1" on="0"/>
        <pt x="1089" y="-8" on="0"/>
        <pt x="1060" y="-8" on="1"/>
        <pt x="1001" y="-8" on="0"/>
        <pt x="924" y="24" on="0"/>
        <pt x="880" y="93" on="0"/>
        <pt x="867" y="202" on="0"/>
        <pt x="873" y="279" on="1"/>
        <pt x="922" y="907" on="1"/>
        <pt x="551" y="907" on="1"/>
        <pt x="520" y="698" on="0"/>
        <pt x="486" y="517" on="1"/>
        <pt x="471" y="440" on="0"/>
        <pt x="437" y="282" on="0"/>
        <pt x="400" y="143" on="0"/>
        <pt x="361" y="31" on="0"/>
        <pt x="341" y="0" on="1"/>
        <pt x="172" y="0" on="1"/>
        <pt x="201" y="44" on="0"/>
        <pt x="250" y="173" on="0"/>
        <pt x="291" y="326" on="0"/>
        <pt x="325" y="496" on="0"/>
        <pt x="353" y="668" on="0"/>
        <pt x="375" y="834" on="0"/>
        <pt x="382" y="907" on="1"/>
        <pt x="292" y="905" on="0"/>
        <pt x="158" y="875" on="0"/>
        <pt x="101" y="846" on="1"/>
        <pt x="94" y="977" on="1"/>
        <pt x="120" y="996" on="0"/>
        <pt x="188" y="1021" on="0"/>
        <pt x="275" y="1035" on="0"/>
        <pt x="383" y="1040" on="0"/>
        <pt x="451" y="1040" on="1"/>
        <pt x="1296" y="1040" on="1"/>
      </contour>
    </TTGlyph>
    <TTGlyph name="plus" xMin="238" yMin="62" xMax="1294" yMax="1047">
      <contour>
        <pt x="695" y="624" on="1"/>
        <pt x="731" y="1047" on="1"/>
        <pt x="881" y="1047" on="1"/>
        <pt x="846" y="624" on="1"/>
        <pt x="1294" y="624" on="1"/>
        <pt x="1284" y="485" on="1"/>
        <pt x="836" y="485" on="1"/>
        <pt x="800" y="62" on="1"/>
        <pt x="649" y="62" on="1"/>
        <pt x="684" y="485" on="1"/>
        <pt x="238" y="485" on="1"/>
        <pt x="247" y="624" on="1"/>
      </contour>
    </TTGlyph>
    <TTGlyph name="plusminus" xMin="200" yMin="0" xMax="1303" yMax="1107">
      <contour>
        <pt x="200" y="0" on="1"/>
        <pt x="211" y="138" on="1"/>
        <pt x="1260" y="138" on="1"/>
        <pt x="1249" y="0" on="1"/>
      </contour>
      <contour>
        <pt x="703" y="733" on="1"/>
        <pt x="732" y="1107" on="1"/>
        <pt x="881" y="1107" on="1"/>
        <pt x="852" y="733" on="1"/>
        <pt x="1303" y="733" on="1"/>
        <pt x="1292" y="595" on="1"/>
        <pt x="845" y="595" on="1"/>
        <pt x="816" y="223" on="1"/>
        <pt x="665" y="223" on="1"/>
        <pt x="694" y="595" on="1"/>
        <pt x="235" y="595" on="1"/>
        <pt x="246" y="733" on="1"/>
      </contour>
    </TTGlyph>
    <TTGlyph name="product" xMin="222" yMin="-329" xMax="1568" yMax="1423">
      <contour>
        <pt x="1541" y="1278" on="1"/>
        <pt x="1428" y="1278" on="1"/>
        <pt x="1301" y="-329" on="1"/>
        <pt x="1123" y="-329" on="1"/>
        <pt x="1250" y="1278" on="1"/>
        <pt x="527" y="1278" on="1"/>
        <pt x="400" y="-329" on="1"/>
        <pt x="225" y="-329" on="1"/>
        <pt x="352" y="1278" on="1"/>
        <pt x="227" y="1278" on="1"/>
        <pt x="222" y="1423" on="1"/>
        <pt x="1568" y="1423" on="1"/>
      </contour>
    </TTGlyph>
    <TTGlyph name="q" xMin="133" yMin="-426" xMax="1166" yMax="1051">
      <contour>
        <pt x="925" y="148" on="1"/>
        <pt x="852" y="60" on="0"/>
        <pt x="658" y="-23" on="0"/>
        <pt x="543" y="-23" on="1"/>
        <pt x="431" y="-23" on="0"/>
        <pt x="269" y="59" on="0"/>
        <pt x="166" y="202" on="0"/>
        <pt x="124" y="395" on="0"/>
        <pt x="133" y="506" on="1"/>
        <pt x="141" y="615" on="0"/>
        <pt x="217" y="812" on="0"/>
        <pt x="347" y="962" on="0"/>
        <pt x="532" y="1051" on="0"/>
        <pt x="650" y="1051" on="1"/>
        <pt x="762" y="1051" on="0"/>
        <pt x="932" y="971" on="0"/>
        <pt x="984" y="898" on="1"/>
        <pt x="999" y="1026" on="1"/>
        <pt x="1166" y="1026" on="1"/>
        <pt x="1157" y="968" on="0"/>
        <pt x="1145" y="852" on="0"/>
        <pt x="1142" y="813" on="1"/>
        <pt x="1044" y="-426" on="1"/>
        <pt x="879" y="-426" on="1"/>
      </contour>
      <contour>
        <pt x="956" y="543" on="1"/>
        <pt x="962" y="625" on="0"/>
        <pt x="930" y="763" on="0"/>
        <pt x="857" y="862" on="0"/>
        <pt x="741" y="917" on="0"/>
        <pt x="665" y="917" on="1"/>
        <pt x="581" y="917" on="0"/>
        <pt x="452" y="852" on="0"/>
        <pt x="363" y="741" on="0"/>
        <pt x="312" y="591" on="0"/>
        <pt x="306" y="507" on="1"/>
        <pt x="300" y="427" on="0"/>
        <pt x="324" y="282" on="0"/>
        <pt x="392" y="173" on="0"/>
        <pt x="506" y="109" on="0"/>
        <pt x="590" y="109" on="1"/>
        <pt x="686" y="109" on="0"/>
        <pt x="819" y="184" on="0"/>
        <pt x="906" y="307" on="0"/>
        <pt x="949" y="462" on="0"/>
      </contour>
    </TTGlyph>
    <TTGlyph name="question" xMin="283" yMin="-11" xMax="988" yMax="1478">
      <contour>
        <pt x="385" y="368" on="1"/>
        <pt x="385" y="398" on="0"/>
        <pt x="385" y="428" on="1"/>
        <pt x="385" y="454" on="0"/>
        <pt x="386" y="509" on="0"/>
        <pt x="388" y="530" on="1"/>
        <pt x="393" y="591" on="0"/>
        <pt x="458" y="693" on="0"/>
        <pt x="550" y="785" on="0"/>
        <pt x="657" y="872" on="0"/>
        <pt x="749" y="964" on="0"/>
        <pt x="814" y="1065" on="0"/>
        <pt x="819" y="1125" on="1"/>
        <pt x="823" y="1182" on="0"/>
        <pt x="782" y="1262" on="0"/>
        <pt x="706" y="1313" on="0"/>
        <pt x="604" y="1336" on="0"/>
        <pt x="549" y="1336" on="1"/>
        <pt x="480" y="1336" on="0"/>
        <pt x="346" y="1301" on="0"/>
        <pt x="283" y="1267" on="1"/>
        <pt x="294" y="1413" on="1"/>
        <pt x="369" y="1448" on="0"/>
        <pt x="518" y="1478" on="0"/>
        <pt x="581" y="1478" on="1"/>
        <pt x="673" y="1478" on="0"/>
        <pt x="828" y="1435" on="0"/>
        <pt x="938" y="1349" on="0"/>
        <pt x="995" y="1220" on="0"/>
        <pt x="988" y="1133" on="1"/>
        <pt x="983" y="1069" on="0"/>
        <pt x="915" y="955" on="0"/>
        <pt x="819" y="848" on="0"/>
        <pt x="709" y="749" on="0"/>
        <pt x="614" y="654" on="0"/>
        <pt x="547" y="560" on="0"/>
        <pt x="544" y="513" on="1"/>
        <pt x="542" y="490" on="0"/>
        <pt x="543" y="440" on="0"/>
        <pt x="544" y="418" on="1"/>
        <pt x="546" y="392" on="0"/>
        <pt x="549" y="368" on="1"/>
      </contour>
      <contour>
        <pt x="545" y="-11" on="1"/>
        <pt x="328" y="-11" on="1"/>
        <pt x="345" y="199" on="1"/>
        <pt x="562" y="199" on="1"/>
      </contour>
    </TTGlyph>
    <TTGlyph name="questiondown" xMin="141" yMin="-408" xMax="846" yMax="1081">
      <contour>
        <pt x="744" y="702" on="1"/>
        <pt x="744" y="672" on="0"/>
        <pt x="744" y="642" on="1"/>
        <pt x="744" y="616" on="0"/>
        <pt x="743" y="560" on="0"/>
        <pt x="741" y="540" on="1"/>
        <pt x="737" y="479" on="0"/>
        <pt x="671" y="377" on="0"/>
        <pt x="579" y="285" on="0"/>
        <pt x="472" y="198" on="0"/>
        <pt x="380" y="106" on="0"/>
        <pt x="315" y="5" on="0"/>
        <pt x="310" y="-55" on="1"/>
        <pt x="306" y="-112" on="0"/>
        <pt x="348" y="-192" on="0"/>
        <pt x="424" y="-243" on="0"/>
        <pt x="525" y="-266" on="0"/>
        <pt x="580" y="-266" on="1"/>
        <pt x="649" y="-266" on="0"/>
        <pt x="784" y="-231" on="0"/>
        <pt x="846" y="-197" on="1"/>
        <pt x="835" y="-343" on="1"/>
        <pt x="760" y="-378" on="0"/>
        <pt x="612" y="-408" on="0"/>
        <pt x="549" y="-408" on="1"/>
        <pt x="457" y="-408" on="0"/>
        <pt x="301" y="-365" on="0"/>
        <pt x="191" y="-279" on="0"/>
        <pt x="134" y="-150" on="0"/>
        <pt x="141" y="-63" on="1"/>
        <pt x="146" y="0" on="0"/>
        <pt x="214" y="115" on="0"/>
        <pt x="310" y="222" on="0"/>
        <pt x="420" y="321" on="0"/>
        <pt x="516" y="416" on="0"/>
        <pt x="582" y="510" on="0"/>
        <pt x="586" y="557" on="1"/>
        <pt x="587" y="580" on="0"/>
        <pt x="585" y="630" on="0"/>
        <pt x="584" y="652" on="1"/>
        <pt x="582" y="678" on="0"/>
        <pt x="580" y="702" on="1"/>
      </contour>
      <contour>
        <pt x="584" y="1081" on="1"/>
        <pt x="801" y="1081" on="1"/>
        <pt x="784" y="871" on="1"/>
        <pt x="567" y="871" on="1"/>
      </contour>
    </TTGlyph>
    <TTGlyph name="quotedbl" xMin="228" yMin="989" xMax="701" yMax="1451">
      <contour>
        <pt x="517" y="989" on="1"/>
        <pt x="517" y="1451" on="1"/>
        <pt x="701" y="1451" on="1"/>
        <pt x="647" y="989" on="1"/>
      </contour>
      <contour>
        <pt x="228" y="989" on="1"/>
        <pt x="228" y="1451" on="1"/>
        <pt x="411" y="1451" on="1"/>
        <pt x="359" y="989" on="1"/>
      </contour>
    </TTGlyph>
    <TTGlyph name="quotedblbase" xMin="159" yMin="-238" xMax="840" yMax="201">
      <contour>
        <pt x="299" y="201" on="1"/>
        <pt x="481" y="201" on="1"/>
        <pt x="293" y="-238" on="1"/>
        <pt x="159" y="-238" on="1"/>
      </contour>
      <contour>
        <pt x="657" y="201" on="1"/>
        <pt x="840" y="201" on="1"/>
        <pt x="651" y="-238" on="1"/>
        <pt x="518" y="-238" on="1"/>
      </contour>
    </TTGlyph>
    <TTGlyph name="quotedblleft" xMin="260" yMin="1023" xMax="931" yMax="1463">
      <contour>
        <pt x="442" y="1023" on="1"/>
        <pt x="260" y="1023" on="1"/>
        <pt x="449" y="1463" on="1"/>
        <pt x="582" y="1463" on="1"/>
      </contour>
      <contour>
        <pt x="792" y="1023" on="1"/>
        <pt x="609" y="1023" on="1"/>
        <pt x="798" y="1463" on="1"/>
        <pt x="931" y="1463" on="1"/>
      </contour>
    </TTGlyph>
    <TTGlyph name="quotedblright" xMin="289" yMin="1023" xMax="937" yMax="1463">
      <contour>
        <pt x="428" y="1463" on="1"/>
        <pt x="610" y="1463" on="1"/>
        <pt x="422" y="1023" on="1"/>
        <pt x="289" y="1023" on="1"/>
      </contour>
      <contour>
        <pt x="755" y="1463" on="1"/>
        <pt x="937" y="1463" on="1"/>
        <pt x="748" y="1023" on="1"/>
        <pt x="615" y="1023" on="1"/>
      </contour>
    </TTGlyph>
    <TTGlyph name="quoteleft" xMin="211" yMin="1023" xMax="532" yMax="1463">
      <contour>
        <pt x="393" y="1023" on="1"/>
        <pt x="211" y="1023" on="1"/>
        <pt x="400" y="1463" on="1"/>
        <pt x="532" y="1463" on="1"/>
      </contour>
    </TTGlyph>
    <TTGlyph name="quoteright" xMin="221" yMin="1023" xMax="542" yMax="1463">
      <contour>
        <pt x="361" y="1463" on="1"/>
        <pt x="542" y="1463" on="1"/>
        <pt x="353" y="1023" on="1"/>
        <pt x="221" y="1023" on="1"/>
      </contour>
    </TTGlyph>
    <TTGlyph name="quotesinglbase" xMin="106" yMin="-238" xMax="428" yMax="201">
      <contour>
        <pt x="247" y="201" on="1"/>
        <pt x="428" y="201" on="1"/>
        <pt x="239" y="-238" on="1"/>
        <pt x="106" y="-238" on="1"/>
      </contour>
    </TTGlyph>
    <TTGlyph name="quotesingle" xMin="290" yMin="989" xMax="474" yMax="1451">
      <contour>
        <pt x="290" y="989" on="1"/>
        <pt x="290" y="1451" on="1"/>
        <pt x="474" y="1451" on="1"/>
        <pt x="420" y="989" on="1"/>
      </contour>
    </TTGlyph>
    <TTGlyph name="r" xMin="167" yMin="0" xMax="796" yMax="1050">
      <contour>
        <pt x="332" y="0" on="1"/>
        <pt x="167" y="0" on="1"/>
        <pt x="228" y="779" on="1"/>
        <pt x="233" y="842" on="0"/>
        <pt x="239" y="968" on="0"/>
        <pt x="242" y="1026" on="1"/>
        <pt x="407" y="1026" on="1"/>
        <pt x="401" y="871" on="1"/>
        <pt x="449" y="956" on="0"/>
        <pt x="601" y="1050" on="0"/>
        <pt x="689" y="1050" on="1"/>
        <pt x="747" y="1050" on="0"/>
        <pt x="796" y="1038" on="1"/>
        <pt x="785" y="883" on="1"/>
        <pt x="765" y="894" on="0"/>
        <pt x="706" y="907" on="0"/>
        <pt x="672" y="907" on="1"/>
        <pt x="612" y="907" on="0"/>
        <pt x="509" y="860" on="0"/>
        <pt x="432" y="772" on="0"/>
        <pt x="383" y="646" on="0"/>
        <pt x="377" y="568" on="1"/>
      </contour>
    </TTGlyph>
    <TTGlyph name="radical" xMin="148" yMin="-153" xMax="1338" yMax="1596">
      <contour>
        <pt x="1338" y="1596" on="1"/>
        <pt x="734" y="-153" on="1"/>
        <pt x="599" y="-153" on="1"/>
        <pt x="333" y="690" on="1"/>
        <pt x="159" y="662" on="1"/>
        <pt x="148" y="774" on="1"/>
        <pt x="447" y="825" on="1"/>
        <pt x="628" y="214" on="1"/>
        <pt x="672" y="41" on="1"/>
        <pt x="726" y="217" on="1"/>
        <pt x="1208" y="1596" on="1"/>
      </contour>
    </TTGlyph>
    <TTGlyph name="registered" xMin="160" yMin="-32" xMax="1774" yMax="1483">
      <contour>
        <pt x="797" y="664" on="1"/>
        <pt x="767" y="273" on="1"/>
        <pt x="619" y="273" on="1"/>
        <pt x="691" y="1192" on="1"/>
        <pt x="964" y="1192" on="1"/>
        <pt x="1183" y="1192" on="0"/>
        <pt x="1384" y="1059" on="0"/>
        <pt x="1375" y="935" on="1"/>
        <pt x="1371" y="889" on="0"/>
        <pt x="1333" y="805" on="0"/>
        <pt x="1264" y="737" on="0"/>
        <pt x="1159" y="690" on="0"/>
        <pt x="1090" y="681" on="1"/>
        <pt x="1116" y="655" on="0"/>
        <pt x="1167" y="584" on="0"/>
        <pt x="1219" y="500" on="0"/>
        <pt x="1271" y="406" on="0"/>
        <pt x="1297" y="357" on="1"/>
        <pt x="1342" y="273" on="1"/>
        <pt x="1174" y="273" on="1"/>
        <pt x="1067" y="485" on="1"/>
        <pt x="1034" y="551" on="0"/>
        <pt x="968" y="641" on="0"/>
        <pt x="934" y="664" on="1"/>
      </contour>
      <contour>
        <pt x="805" y="783" on="1"/>
        <pt x="930" y="783" on="1"/>
        <pt x="994" y="783" on="0"/>
        <pt x="1097" y="791" on="0"/>
        <pt x="1172" y="820" on="0"/>
        <pt x="1215" y="874" on="0"/>
        <pt x="1218" y="920" on="1"/>
        <pt x="1222" y="970" on="0"/>
        <pt x="1196" y="1030" on="0"/>
        <pt x="1131" y="1062" on="0"/>
        <pt x="1022" y="1072" on="0"/>
        <pt x="944" y="1072" on="1"/>
        <pt x="826" y="1072" on="1"/>
      </contour>
      <contour>
        <pt x="920" y="85" on="1"/>
        <pt x="1016" y="85" on="0"/>
        <pt x="1194" y="130" on="0"/>
        <pt x="1351" y="212" on="0"/>
        <pt x="1483" y="328" on="0"/>
        <pt x="1580" y="470" on="0"/>
        <pt x="1640" y="634" on="0"/>
        <pt x="1647" y="724" on="1"/>
        <pt x="1654" y="815" on="0"/>
        <pt x="1620" y="980" on="0"/>
        <pt x="1543" y="1123" on="0"/>
        <pt x="1430" y="1239" on="0"/>
        <pt x="1285" y="1321" on="0"/>
        <pt x="1113" y="1366" on="0"/>
        <pt x="1017" y="1366" on="1"/>
        <pt x="874" y="1366" on="0"/>
        <pt x="618" y="1268" on="0"/>
        <pt x="421" y="1095" on="0"/>
        <pt x="298" y="862" on="0"/>
        <pt x="287" y="727" on="1"/>
        <pt x="280" y="636" on="0"/>
        <pt x="314" y="471" on="0"/>
        <pt x="391" y="328" on="0"/>
        <pt x="505" y="212" on="0"/>
        <pt x="650" y="130" on="0"/>
        <pt x="823" y="85" on="0"/>
      </contour>
      <contour>
        <pt x="912" y="-32" on="1"/>
        <pt x="800" y="-32" on="0"/>
        <pt x="596" y="23" on="0"/>
        <pt x="424" y="122" on="0"/>
        <pt x="287" y="261" on="0"/>
        <pt x="195" y="429" on="0"/>
        <pt x="152" y="622" on="0"/>
        <pt x="160" y="726" on="1"/>
        <pt x="168" y="830" on="0"/>
        <pt x="241" y="1022" on="0"/>
        <pt x="361" y="1190" on="0"/>
        <pt x="520" y="1329" on="0"/>
        <pt x="706" y="1428" on="0"/>
        <pt x="915" y="1483" on="0"/>
        <pt x="1025" y="1483" on="1"/>
        <pt x="1137" y="1483" on="0"/>
        <pt x="1339" y="1428" on="0"/>
        <pt x="1511" y="1328" on="0"/>
        <pt x="1648" y="1189" on="0"/>
        <pt x="1739" y="1020" on="0"/>
        <pt x="1782" y="828" on="0"/>
        <pt x="1774" y="725" on="1"/>
        <pt x="1766" y="621" on="0"/>
        <pt x="1693" y="429" on="0"/>
        <pt x="1575" y="261" on="0"/>
        <pt x="1417" y="122" on="0"/>
        <pt x="1231" y="23" on="0"/>
        <pt x="1022" y="-32" on="0"/>
      </contour>
    </TTGlyph>
    <TTGlyph name="ring" xMin="195" yMin="1149" xMax="615" yMax="1530">
      <contour>
        <pt x="515" y="1340" on="1"/>
        <pt x="517" y="1362" on="0"/>
        <pt x="503" y="1400" on="0"/>
        <pt x="475" y="1428" on="0"/>
        <pt x="435" y="1445" on="0"/>
        <pt x="412" y="1445" on="1"/>
        <pt x="390" y="1445" on="0"/>
        <pt x="349" y="1428" on="0"/>
        <pt x="317" y="1400" on="0"/>
        <pt x="296" y="1361" on="0"/>
        <pt x="294" y="1340" on="1"/>
        <pt x="291" y="1294" on="0"/>
        <pt x="345" y="1235" on="0"/>
        <pt x="396" y="1235" on="1"/>
        <pt x="418" y="1235" on="0"/>
        <pt x="459" y="1252" on="0"/>
        <pt x="493" y="1280" on="0"/>
        <pt x="514" y="1319" on="0"/>
      </contour>
      <contour>
        <pt x="195" y="1339" on="1"/>
        <pt x="198" y="1380" on="0"/>
        <pt x="237" y="1450" on="0"/>
        <pt x="298" y="1501" on="0"/>
        <pt x="377" y="1530" on="0"/>
        <pt x="420" y="1530" on="1"/>
        <pt x="464" y="1530" on="0"/>
        <pt x="539" y="1500" on="0"/>
        <pt x="592" y="1449" on="0"/>
        <pt x="618" y="1379" on="0"/>
        <pt x="615" y="1340" on="1"/>
        <pt x="612" y="1300" on="0"/>
        <pt x="573" y="1231" on="0"/>
        <pt x="512" y="1179" on="0"/>
        <pt x="433" y="1149" on="0"/>
        <pt x="391" y="1149" on="1"/>
        <pt x="347" y="1149" on="0"/>
        <pt x="272" y="1178" on="0"/>
        <pt x="219" y="1229" on="0"/>
        <pt x="192" y="1299" on="0"/>
      </contour>
    </TTGlyph>
    <TTGlyph name="s" xMin="128" yMin="-23" xMax="927" yMax="1051">
      <contour>
        <pt x="856" y="847" on="1"/>
        <pt x="805" y="884" on="0"/>
        <pt x="656" y="917" on="0"/>
        <pt x="574" y="917" on="1"/>
        <pt x="528" y="917" on="0"/>
        <pt x="448" y="897" on="0"/>
        <pt x="388" y="860" on="0"/>
        <pt x="351" y="807" on="0"/>
        <pt x="349" y="774" on="1"/>
        <pt x="346" y="739" on="0"/>
        <pt x="376" y="689" on="0"/>
        <pt x="431" y="652" on="0"/>
        <pt x="507" y="623" on="0"/>
        <pt x="550" y="610" on="1"/>
        <pt x="589" y="598" on="0"/>
        <pt x="678" y="572" on="0"/>
        <pt x="765" y="537" on="0"/>
        <pt x="843" y="490" on="0"/>
        <pt x="901" y="426" on="0"/>
        <pt x="931" y="340" on="0"/>
        <pt x="927" y="284" on="1"/>
        <pt x="921" y="206" on="0"/>
        <pt x="840" y="91" on="0"/>
        <pt x="716" y="15" on="0"/>
        <pt x="561" y="-23" on="0"/>
        <pt x="481" y="-23" on="1"/>
        <pt x="428" y="-23" on="0"/>
        <pt x="325" y="-11" on="0"/>
        <pt x="232" y="17" on="0"/>
        <pt x="154" y="61" on="0"/>
        <pt x="128" y="94" on="1"/>
        <pt x="183" y="229" on="1"/>
        <pt x="207" y="197" on="0"/>
        <pt x="275" y="151" on="0"/>
        <pt x="356" y="122" on="0"/>
        <pt x="443" y="109" on="0"/>
        <pt x="485" y="109" on="1"/>
        <pt x="541" y="109" on="0"/>
        <pt x="637" y="130" on="0"/>
        <pt x="709" y="171" on="0"/>
        <pt x="753" y="232" on="0"/>
        <pt x="756" y="272" on="1"/>
        <pt x="760" y="318" on="0"/>
        <pt x="720" y="375" on="0"/>
        <pt x="645" y="416" on="0"/>
        <pt x="540" y="447" on="0"/>
        <pt x="478" y="467" on="1"/>
        <pt x="405" y="491" on="0"/>
        <pt x="288" y="544" on="0"/>
        <pt x="210" y="614" on="0"/>
        <pt x="172" y="707" on="0"/>
        <pt x="177" y="771" on="1"/>
        <pt x="183" y="842" on="0"/>
        <pt x="256" y="948" on="0"/>
        <pt x="368" y="1017" on="0"/>
        <pt x="505" y="1051" on="0"/>
        <pt x="575" y="1051" on="1"/>
        <pt x="678" y="1051" on="0"/>
        <pt x="850" y="1012" on="0"/>
        <pt x="907" y="964" on="1"/>
      </contour>
    </TTGlyph>
    <TTGlyph name="scaron" xMin="128" yMin="-23" xMax="938" yMax="1493">
      <component glyphName="s" x="0" y="0" flags="0x1204"/>
      <component glyphName="caron" x="158" y="0" flags="0x1004"/>
    </TTGlyph>
    <TTGlyph name="section" xMin="212" yMin="-48" xMax="969" yMax="1493">
      <contour>
        <pt x="936" y="1304" on="1"/>
        <pt x="913" y="1315" on="0"/>
        <pt x="857" y="1334" on="0"/>
        <pt x="797" y="1348" on="0"/>
        <pt x="738" y="1356" on="0"/>
        <pt x="714" y="1356" on="1"/>
        <pt x="668" y="1356" on="0"/>
        <pt x="589" y="1341" on="0"/>
        <pt x="529" y="1309" on="0"/>
        <pt x="492" y="1257" on="0"/>
        <pt x="489" y="1221" on="1"/>
        <pt x="486" y="1191" on="0"/>
        <pt x="504" y="1142" on="0"/>
        <pt x="550" y="1095" on="0"/>
        <pt x="630" y="1049" on="0"/>
        <pt x="691" y="1022" on="1"/>
        <pt x="749" y="996" on="0"/>
        <pt x="854" y="941" on="0"/>
        <pt x="930" y="873" on="0"/>
        <pt x="973" y="790" on="0"/>
        <pt x="969" y="737" on="1"/>
        <pt x="965" y="695" on="0"/>
        <pt x="929" y="621" on="0"/>
        <pt x="873" y="557" on="0"/>
        <pt x="800" y="502" on="0"/>
        <pt x="762" y="480" on="1"/>
        <pt x="797" y="462" on="0"/>
        <pt x="854" y="418" on="0"/>
        <pt x="892" y="364" on="0"/>
        <pt x="911" y="295" on="0"/>
        <pt x="908" y="252" on="1"/>
        <pt x="902" y="180" on="0"/>
        <pt x="826" y="68" on="0"/>
        <pt x="708" y="-9" on="0"/>
        <pt x="558" y="-48" on="0"/>
        <pt x="478" y="-48" on="1"/>
        <pt x="409" y="-48" on="0"/>
        <pt x="273" y="-22" on="0"/>
        <pt x="212" y="4" on="1"/>
        <pt x="222" y="153" on="1"/>
        <pt x="293" y="119" on="0"/>
        <pt x="424" y="89" on="0"/>
        <pt x="484" y="89" on="1"/>
        <pt x="540" y="89" on="0"/>
        <pt x="631" y="113" on="0"/>
        <pt x="695" y="154" on="0"/>
        <pt x="731" y="210" on="0"/>
        <pt x="734" y="243" on="1"/>
        <pt x="736" y="276" on="0"/>
        <pt x="712" y="323" on="0"/>
        <pt x="661" y="361" on="0"/>
        <pt x="586" y="397" on="0"/>
        <pt x="538" y="418" on="1"/>
        <pt x="456" y="454" on="1"/>
        <pt x="352" y="500" on="0"/>
        <pt x="235" y="634" on="0"/>
        <pt x="242" y="729" on="1"/>
        <pt x="245" y="772" on="0"/>
        <pt x="282" y="845" on="0"/>
        <pt x="339" y="907" on="0"/>
        <pt x="411" y="956" on="0"/>
        <pt x="450" y="975" on="1"/>
        <pt x="416" y="997" on="0"/>
        <pt x="363" y="1046" on="0"/>
        <pt x="329" y="1104" on="0"/>
        <pt x="313" y="1173" on="0"/>
        <pt x="316" y="1217" on="1"/>
        <pt x="322" y="1286" on="0"/>
        <pt x="390" y="1390" on="0"/>
        <pt x="500" y="1459" on="0"/>
        <pt x="641" y="1493" on="0"/>
        <pt x="720" y="1493" on="1"/>
        <pt x="784" y="1493" on="0"/>
        <pt x="888" y="1470" on="0"/>
        <pt x="946" y="1452" on="1"/>
      </contour>
      <contour>
        <pt x="634" y="547" on="1"/>
        <pt x="659" y="562" on="0"/>
        <pt x="713" y="599" on="0"/>
        <pt x="757" y="642" on="0"/>
        <pt x="787" y="693" on="0"/>
        <pt x="790" y="723" on="1"/>
        <pt x="792" y="755" on="0"/>
        <pt x="769" y="802" on="0"/>
        <pt x="725" y="839" on="0"/>
        <pt x="663" y="869" on="0"/>
        <pt x="627" y="885" on="1"/>
        <pt x="605" y="894" on="1"/>
        <pt x="595" y="898" on="0"/>
        <pt x="575" y="907" on="0"/>
        <pt x="566" y="912" on="1"/>
        <pt x="539" y="898" on="0"/>
        <pt x="490" y="863" on="0"/>
        <pt x="448" y="821" on="0"/>
        <pt x="422" y="771" on="0"/>
        <pt x="420" y="741" on="1"/>
        <pt x="417" y="704" on="0"/>
        <pt x="446" y="650" on="0"/>
        <pt x="503" y="606" on="0"/>
        <pt x="584" y="568" on="0"/>
      </contour>
    </TTGlyph>
    <TTGlyph name="semicolon" xMin="80" yMin="-256" xMax="459" yMax="1051">
      <contour>
        <pt x="222" y="207" on="1"/>
        <pt x="410" y="207" on="1"/>
        <pt x="211" y="-256" on="1"/>
        <pt x="80" y="-256" on="1"/>
      </contour>
      <contour>
        <pt x="442" y="841" on="1"/>
        <pt x="225" y="841" on="1"/>
        <pt x="242" y="1051" on="1"/>
        <pt x="459" y="1051" on="1"/>
      </contour>
    </TTGlyph>
</ttFont>
